<?xml version="1.0" encoding="UTF-8"?>
<!DOCTYPE svg PUBLIC "-//W3C//DTD SVG 1.1//EN" "http://www.w3.org/Graphics/SVG/1.1/DTD/svg11.dtd">
<!-- Creator: CorelDRAW -->
<svg xmlns="http://www.w3.org/2000/svg" xml:space="preserve" width="9.92339in" height="2.31222in" style="shape-rendering:geometricPrecision; text-rendering:geometricPrecision; image-rendering:optimizeQuality; fill-rule:evenodd; clip-rule:evenodd"
viewBox="0 0 9.92339 2.31222"
 xmlns:xlink="http://www.w3.org/1999/xlink">
 <defs>
  <style type="text/css">
   <![CDATA[
    .fil1 {fill:#1F1A17}
    .fil0 {fill:#0963AA}
   ]]>
  </style>
 </defs>
 <g id="Layer_x0020_1">
  <metadata id="CorelCorpID_0Corel-Layer"/>
  <g id="_133358376">
   <path id="_133232320" class="fil0" d="M8.68708 1.677c-0.0627756,-6.29921e-005 -0.123173,-0.0152283 -0.178453,-0.0450039 -0.17026,-0.0917008 -0.255173,-0.296283 -0.255173,-0.482559l0 -0.0668386c0,-0.0291457 0.00334646,-0.0581969 0.00976378,-0.086622 0.0482559,-0.213697 0.260508,-0.374122 0.47772,-0.374122l0.0935472 0c0.0289685,0 0.0502559,0.00364173 0.0774331,0.0128346 0.0304764,0.0103031 0.0501024,0.0139094 0.0829528,0.0139094l0.019685 0 0 0.161366 -0.0213189 -0.00177559c-0.0249173,-0.00207874 -0.0460157,-0.00790551 -0.0693425,-0.0164016 -0.0430118,-0.0156693 -0.0689213,-0.023626 -0.116134,-0.023626l-0.0801929 0c-0.0441535,0 -0.0862677,0.0108701 -0.124764,0.0325157 -0.119339,0.0670945 -0.176319,0.21761 -0.176319,0.34876 0,0.0260472 0.00237402,0.0521142 0.00691339,0.0777638 0.0258583,0.146138 0.130972,0.303512 0.294169,0.303512l0.0801929 0c0.0410197,0 0.0737717,-0.00696063 0.112551,-0.0191024 0.0233465,-0.00731102 0.0462126,-0.0149173 0.0700906,-0.0204843l0.0241535 -0.00562598 0 0.161465 -0.191102 0.035378 -0.136374 -0.00534252zm-1.65059 -1.24298l0 1.21626 -0.173028 0 0 -1.21626 -0.387591 0 0 -0.146287 0.948209 0 0 0.146287 -0.387591 0zm0.455488 0.628894l0.493795 0c-0.000834646,-0.0214961 -0.00302362,-0.0429843 -0.00651181,-0.0641732 -0.0160591,-0.0974921 -0.0695984,-0.230579 -0.187276,-0.230579l-0.0668189 0c-0.0116772,0 -0.0232756,0.0014252 -0.034626,0.00417717 -0.0817244,0.019811 -0.141417,0.103776 -0.171071,0.17761 -0.0142992,0.0356102 -0.0242402,0.0743661 -0.0274921,0.112965zm-0.000169291 0.146303c0.00150394,0.0221811 0.00465748,0.0442835 0.00931102,0.0659921 0.0245984,0.11476 0.103756,0.255504 0.237417,0.255504l0.106917 0c0.0762992,0 0.138445,-0.0472559 0.212217,-0.0534016l0.0213189 -0.00177559 0 0.159795 -0.0180512 0.00150394c-0.0689252,0.00574016 -0.133406,0.0401654 -0.202114,0.0401654l-0.147031 0c-0.0437913,0 -0.0865945,-0.00880709 -0.12698,-0.0256772 -0.165937,-0.0692992 -0.266921,-0.259988 -0.266921,-0.435067l0 -0.133657c0,-0.0864685 0.0331339,-0.177016 0.0777087,-0.250185 0.0629055,-0.103268 0.174024,-0.210559 0.302839,-0.210559l0.0668228 0c0.236815,0 0.393921,0.208882 0.393921,0.43402l0 0.153343 -0.667374 0zm1.77669 -0.437858c0.00626772,-0.0065 0.0123189,-0.0131811 0.0182362,-0.0197756 0.0180354,-0.0200945 0.0355984,-0.0403031 0.0555984,-0.0585276 0.0544055,-0.0495866 0.113406,-0.0712008 0.187154,-0.0712008l0.0133543 0c0.26602,0 0.380551,0.133272 0.380551,0.393921l0 0.6345 -0.159657 0 0 -0.6345c0,-0.0992126 -0.0468031,-0.247614 -0.167425,-0.247614l-0.0801929 0c-0.0303898,0 -0.0595433,0.00687402 -0.0867402,0.0204094 -0.10685,0.0531772 -0.160878,0.193339 -0.160878,0.307398l0 0.554307 -0.159657 0 0 -1.45611 0.159657 0 0 0.577189z"/>
   <path id="_133232128" class="fil0" d="M0.84202 1.41673l0.160386 0c0.243465,0 0.427685,-0.198346 0.427685,-0.441055 0,-0.253618 -0.176724,-0.454429 -0.427685,-0.454429l-0.160386 0 0 0.895484zm-0.84202 0.120291c0,0.403752 0.391791,0.775197 0.801925,0.775197l0.0267244 0c0.263732,0 0.465791,-0.145531 0.598409,-0.283705 0.152193,-0.158587 0.203512,-0.368378 0.203512,-0.678602 -0.0958819,0.0702283 -0.0844213,0.122831 -0.24048,0.200575 -0.0878504,0.0437756 -0.242488,0.0800984 -0.374331,0.0800984l-0.441059 0 0 -1.32317 0.467799 0c0.114213,0 0.271043,0.0419449 0.347591,0.0800827 0.156059,0.0777598 0.144598,0.130343 0.24048,0.200591l0 -0.588087 -1.63057 0 0 1.53702z"/>
   <path id="_86883752" class="fil1" d="M4.98603 0.457031l-0.000755906 0.197878 -0.187126 0 0 0.18711 0.187126 0 0 0.507894c0,0.156831 0.112756,0.307398 0.253929,0.307398l0.0677362 0.0052874 0.186213 -0.0320118 0 -0.093563c0,-0.0460787 -0.00988189,-0.051748 -0.0133701,-0.093563 -0.0418031,0.00348819 -0.0474685,0.0133701 -0.0935472,0.0133701l-0.0534685 0c-0.047311,0 -0.093563,-0.0829567 -0.093563,-0.133661l0 -0.48115 0.22722 0 0 -0.18711 -0.22722 0 -0.00132677 -0.271819 -0.251846 0.0739409zm-0.963063 0.451823l0 0.0400984c0,0.329102 0.454409,0.207583 0.454409,0.414315 0,0.0605866 -0.0885276,0.106933 -0.160382,0.106933l-0.0534528 0c-0.0678937,0 -0.168102,-0.042622 -0.21385,-0.0668386 -0.00697638,0.0299803 -0.0133701,0.0307362 -0.0133701,0.0668386l-0.000425197 0.149807 0.294469 0.0373031 0.0534646 0c0.167063,0 0.360866,-0.123382 0.360866,-0.294043l0 -0.0267244c0,-0.338579 -0.454429,-0.282744 -0.454429,-0.400965 0,-0.066063 0.0542244,-0.120287 0.120291,-0.120287l0.0400945 0c0.114067,0 0.145228,0.0209961 0.227205,0.0400984 0.00699606,-0.0299803 0.013374,-0.0307362 0.013374,-0.0668228l-0.000507874 -0.130567 -0.213346 -0.0298189 -0.120287 0c-0.157717,0 -0.334122,0.118744 -0.334122,0.280673zm-1.06922 0.414315c0,0.171421 0.125764,0.334142 0.294028,0.334142l0.0534646 0c0.168689,0 0.224319,-0.0824331 0.320772,-0.147016l0 0.120291 0.240575 0 0 -0.975677 -0.253949 0 0 0.481154c0,0.13724 -0.0667717,0.320768 -0.20048,0.320768l-0.0534488 0c-0.151673,0 -0.147031,-0.229921 -0.147031,-0.387591l0 -0.414331 -0.253929 0 0 0.66826zm-1.10934 -0.20048l0 0.0400984c0,0.289937 0.192209,0.494524 0.481154,0.494524l0.0400984 0c0.176059,0 0.209949,-0.0378858 0.334138,-0.0668228l0 -0.21385c-0.0681772,0.0360709 -0.192681,0.093563 -0.294043,0.093563l-0.0801929 0c-0.100051,0 -0.227205,-0.11437 -0.227205,-0.21385l0 -0.0400984 0.681634 0c0,-0.315307 -0.111969,-0.588071 -0.414331,-0.588071l-0.0267283 0c-0.314626,0 -0.494524,0.186622 -0.494524,0.494508zm0.253949 -0.120287c0,-0.0834606 0.10365,-0.18711 0.18711,-0.18711l0.0668386 0c0.108906,0 0.173736,0.107709 0.173736,0.227209l-0.427685 0 0 -0.0400984zm3.44826 0.093563l0 0.0668228c0,0.259346 0.211469,0.494524 0.454413,0.494524l0.133657 0c0.242331,0 0.454413,-0.236661 0.454413,-0.494524l0 -0.0668228c0,-0.227917 -0.227839,-0.467783 -0.441043,-0.467783l-0.080189 0c-0.284717,0 -0.521252,0.197752 -0.521252,0.467783zm0.267303 0.0267244c0,-0.148465 0.0909094,-0.294028 0.240575,-0.294028l0.0534685 0c0.110091,0 0.213835,0.153094 0.213835,0.267303l0 0.0534685c0,0.138031 -0.0853858,0.307398 -0.213835,0.307398l-0.0801929 0c-0.140969,0 -0.21385,-0.182531 -0.21385,-0.334142z"/>
  </g>
 </g>
</svg>
