<?xml version="1.0" encoding="UTF-8" standalone="no"?>
<!-- Created with Inkscape (http://www.inkscape.org/) -->

<svg
   xmlns:dc="http://purl.org/dc/elements/1.1/"
   xmlns:cc="http://creativecommons.org/ns#"
   xmlns:rdf="http://www.w3.org/1999/02/22-rdf-syntax-ns#"
   xmlns:svg="http://www.w3.org/2000/svg"
   xmlns="http://www.w3.org/2000/svg"
   xmlns:xlink="http://www.w3.org/1999/xlink"
   xmlns:sodipodi="http://sodipodi.sourceforge.net/DTD/sodipodi-0.dtd"
   xmlns:inkscape="http://www.inkscape.org/namespaces/inkscape"
   width="800"
   height="600"
   id="svg5893"
   version="1.1"
   inkscape:version="0.48.3.1 r9886"
   sodipodi:docname="front-background2.svg"
   inkscape:export-filename="front-background.png"
   inkscape:export-xdpi="120.03619"
   inkscape:export-ydpi="120.03619">
  <defs
     id="defs5895">
    <linearGradient
       inkscape:collect="always"
       xlink:href="#linearGradient3301-2"
       id="linearGradient3307-4"
       x1="1849.498"
       y1="1175.0056"
       x2="1921.5383"
       y2="1206.2761"
       gradientUnits="userSpaceOnUse"
       gradientTransform="translate(-234.71047,-107.26233)" />
    <linearGradient
       inkscape:collect="always"
       id="linearGradient3301-2">
      <stop
         style="stop-color:#000000;stop-opacity:1;"
         offset="0"
         id="stop3303-2" />
      <stop
         style="stop-color:#000000;stop-opacity:0;"
         offset="1"
         id="stop3305-6" />
    </linearGradient>
    <filter
       id="filter3059-4"
       inkscape:label="Invert"
       x="0"
       y="0"
       width="1"
       height="1"
       inkscape:menu="Color"
       inkscape:menu-tooltip="Invert colors"
       color-interpolation-filters="sRGB">
      <feColorMatrix
         id="feColorMatrix3061-1"
         type="saturate"
         values="1"
         result="fbSourceGraphic" />
      <feColorMatrix
         id="feColorMatrix3063-2"
         in="fbSourceGraphic"
         values="-1 0 0 0 1 0 -1 0 0 1 0 0 -1 0 1 0 0 0 1 0 " />
    </filter>
    <linearGradient
       inkscape:collect="always"
       xlink:href="#linearGradient3301-2"
       id="linearGradient5766"
       x1="1849.498"
       y1="1175.0056"
       x2="1921.5383"
       y2="1206.2761"
       gradientUnits="userSpaceOnUse"
       gradientTransform="translate(-234.71047,-107.26233)" />
    <filter
       id="filter3065-8"
       inkscape:label="Invert"
       x="0"
       y="0"
       width="1"
       height="1"
       inkscape:menu="Color"
       inkscape:menu-tooltip="Invert colors"
       color-interpolation-filters="sRGB">
      <feColorMatrix
         id="feColorMatrix3067-8"
         type="saturate"
         values="1"
         result="fbSourceGraphic" />
      <feColorMatrix
         id="feColorMatrix3069-8"
         in="fbSourceGraphic"
         values="-1 0 0 0 1 0 -1 0 0 1 0 0 -1 0 1 0 0 0 1 0 " />
    </filter>
    <filter
       id="filter3071-8"
       inkscape:label="Invert"
       x="0"
       y="0"
       width="1"
       height="1"
       inkscape:menu="Color"
       inkscape:menu-tooltip="Invert colors"
       color-interpolation-filters="sRGB">
      <feColorMatrix
         id="feColorMatrix3073-3"
         type="saturate"
         values="1"
         result="fbSourceGraphic" />
      <feColorMatrix
         id="feColorMatrix3075-8"
         in="fbSourceGraphic"
         values="-1 0 0 0 1 0 -1 0 0 1 0 0 -1 0 1 0 0 0 1 0 " />
    </filter>
    <filter
       id="filter3077-0"
       inkscape:label="Invert"
       x="0"
       y="0"
       width="1"
       height="1"
       inkscape:menu="Color"
       inkscape:menu-tooltip="Invert colors"
       color-interpolation-filters="sRGB">
      <feColorMatrix
         id="feColorMatrix3079-4"
         type="saturate"
         values="1"
         result="fbSourceGraphic" />
      <feColorMatrix
         id="feColorMatrix3081-7"
         in="fbSourceGraphic"
         values="-1 0 0 0 1 0 -1 0 0 1 0 0 -1 0 1 0 0 0 1 0 " />
    </filter>
    <filter
       id="filter3083-8"
       inkscape:label="Invert"
       x="0"
       y="0"
       width="1"
       height="1"
       inkscape:menu="Color"
       inkscape:menu-tooltip="Invert colors"
       color-interpolation-filters="sRGB">
      <feColorMatrix
         id="feColorMatrix3085-9"
         type="saturate"
         values="1"
         result="fbSourceGraphic" />
      <feColorMatrix
         id="feColorMatrix3087-0"
         in="fbSourceGraphic"
         values="-1 0 0 0 1 0 -1 0 0 1 0 0 -1 0 1 0 0 0 1 0 " />
    </filter>
    <filter
       id="filter3089-0"
       inkscape:label="Invert"
       x="0"
       y="0"
       width="1"
       height="1"
       inkscape:menu="Color"
       inkscape:menu-tooltip="Invert colors"
       color-interpolation-filters="sRGB">
      <feColorMatrix
         id="feColorMatrix3091-3"
         type="saturate"
         values="1"
         result="fbSourceGraphic" />
      <feColorMatrix
         id="feColorMatrix3093-3"
         in="fbSourceGraphic"
         values="-1 0 0 0 1 0 -1 0 0 1 0 0 -1 0 1 0 0 0 1 0 " />
    </filter>
    <linearGradient
       id="linearGradient3234-7">
      <stop
         style="stop-color:#ffffff;stop-opacity:1;"
         offset="0"
         id="stop3236-3" />
      <stop
         style="stop-color:#ffffff;stop-opacity:0;"
         offset="1"
         id="stop3238-2" />
    </linearGradient>
    <filter
       id="filter3095-6"
       inkscape:label="Invert"
       x="0"
       y="0"
       width="1"
       height="1"
       inkscape:menu="Color"
       inkscape:menu-tooltip="Invert colors"
       color-interpolation-filters="sRGB">
      <feColorMatrix
         id="feColorMatrix3097-5"
         type="saturate"
         values="1"
         result="fbSourceGraphic" />
      <feColorMatrix
         id="feColorMatrix3099-2"
         in="fbSourceGraphic"
         values="-1 0 0 0 1 0 -1 0 0 1 0 0 -1 0 1 0 0 0 1 0 " />
    </filter>
    <filter
       id="filter3101-9"
       inkscape:label="Invert"
       x="0"
       y="0"
       width="1"
       height="1"
       inkscape:menu="Color"
       inkscape:menu-tooltip="Invert colors"
       color-interpolation-filters="sRGB">
      <feColorMatrix
         id="feColorMatrix3103-6"
         type="saturate"
         values="1"
         result="fbSourceGraphic" />
      <feColorMatrix
         id="feColorMatrix3105-0"
         in="fbSourceGraphic"
         values="-1 0 0 0 1 0 -1 0 0 1 0 0 -1 0 1 0 0 0 1 0 " />
    </filter>
    <filter
       id="filter3107-1"
       inkscape:label="Invert"
       x="0"
       y="0"
       width="1"
       height="1"
       inkscape:menu="Color"
       inkscape:menu-tooltip="Invert colors"
       color-interpolation-filters="sRGB">
      <feColorMatrix
         id="feColorMatrix3109-0"
         type="saturate"
         values="1"
         result="fbSourceGraphic" />
      <feColorMatrix
         id="feColorMatrix3111-4"
         in="fbSourceGraphic"
         values="-1 0 0 0 1 0 -1 0 0 1 0 0 -1 0 1 0 0 0 1 0 " />
    </filter>
    <filter
       id="filter3113-7"
       inkscape:label="Invert"
       x="0"
       y="0"
       width="1"
       height="1"
       inkscape:menu="Color"
       inkscape:menu-tooltip="Invert colors"
       color-interpolation-filters="sRGB">
      <feColorMatrix
         id="feColorMatrix3115-0"
         type="saturate"
         values="1"
         result="fbSourceGraphic" />
      <feColorMatrix
         id="feColorMatrix3117-8"
         in="fbSourceGraphic"
         values="-1 0 0 0 1 0 -1 0 0 1 0 0 -1 0 1 0 0 0 1 0 " />
    </filter>
    <filter
       id="filter3119-2"
       inkscape:label="Invert"
       x="0"
       y="0"
       width="1"
       height="1"
       inkscape:menu="Color"
       inkscape:menu-tooltip="Invert colors"
       color-interpolation-filters="sRGB">
      <feColorMatrix
         id="feColorMatrix3121-4"
         type="saturate"
         values="1"
         result="fbSourceGraphic" />
      <feColorMatrix
         id="feColorMatrix3123-7"
         in="fbSourceGraphic"
         values="-1 0 0 0 1 0 -1 0 0 1 0 0 -1 0 1 0 0 0 1 0 " />
    </filter>
    <linearGradient
       id="linearGradient3156-4">
      <stop
         style="stop-color:#ffffff;stop-opacity:1;"
         offset="0"
         id="stop3158-3" />
      <stop
         style="stop-color:#ffffff;stop-opacity:0"
         offset="1"
         id="stop3160-1" />
    </linearGradient>
    <filter
       id="filter3125-4"
       inkscape:label="Invert"
       x="0"
       y="0"
       width="1"
       height="1"
       inkscape:menu="Color"
       inkscape:menu-tooltip="Invert colors"
       color-interpolation-filters="sRGB">
      <feColorMatrix
         id="feColorMatrix3127-6"
         type="saturate"
         values="1"
         result="fbSourceGraphic" />
      <feColorMatrix
         id="feColorMatrix3129-9"
         in="fbSourceGraphic"
         values="-1 0 0 0 1 0 -1 0 0 1 0 0 -1 0 1 0 0 0 1 0 " />
    </filter>
    <radialGradient
       inkscape:collect="always"
       xlink:href="#linearGradient3595"
       id="radialGradient3609"
       gradientUnits="userSpaceOnUse"
       gradientTransform="matrix(-0.51232318,-0.38740784,0.34637444,-0.37872867,737.04771,1007.8656)"
       cx="1451.6025"
       cy="839.90619"
       fx="1451.6025"
       fy="839.90619"
       r="616.42596" />
    <linearGradient
       id="linearGradient3595">
      <stop
         style="stop-color:#edeebc;stop-opacity:0.68627453;"
         offset="0"
         id="stop3597" />
      <stop
         style="stop-color:#e8e8b1;stop-opacity:0;"
         offset="1"
         id="stop3599" />
    </linearGradient>
    <linearGradient
       inkscape:collect="always"
       xlink:href="#linearGradient3631"
       id="linearGradient3637"
       x1="1329.1356"
       y1="33.307316"
       x2="939.95343"
       y2="948.24384"
       gradientUnits="userSpaceOnUse"
       gradientTransform="matrix(0.07074584,-0.76509124,0.8414143,0.06432861,-62.989798,1172.0745)" />
    <linearGradient
       inkscape:collect="always"
       id="linearGradient3631">
      <stop
         style="stop-color:#ffffff;stop-opacity:1;"
         offset="0"
         id="stop3633" />
      <stop
         style="stop-color:#ffffff;stop-opacity:0;"
         offset="1"
         id="stop3635" />
    </linearGradient>
    <linearGradient
       inkscape:collect="always"
       xlink:href="#linearGradient3301-2-5"
       id="linearGradient3307-4-3"
       x1="1849.498"
       y1="1175.0056"
       x2="1921.5383"
       y2="1206.2761"
       gradientUnits="userSpaceOnUse"
       gradientTransform="translate(-234.71047,-107.26233)" />
    <linearGradient
       inkscape:collect="always"
       id="linearGradient3301-2-5">
      <stop
         style="stop-color:#000000;stop-opacity:1;"
         offset="0"
         id="stop3303-2-6" />
      <stop
         style="stop-color:#000000;stop-opacity:0;"
         offset="1"
         id="stop3305-6-6" />
    </linearGradient>
    <filter
       id="filter3059-4-7"
       inkscape:label="Invert"
       x="0"
       y="0"
       width="1"
       height="1"
       inkscape:menu="Color"
       inkscape:menu-tooltip="Invert colors"
       color-interpolation-filters="sRGB">
      <feColorMatrix
         id="feColorMatrix3061-1-6"
         type="saturate"
         values="1"
         result="fbSourceGraphic" />
      <feColorMatrix
         id="feColorMatrix3063-2-1"
         in="fbSourceGraphic"
         values="-1 0 0 0 1 0 -1 0 0 1 0 0 -1 0 1 0 0 0 1 0 " />
    </filter>
    <linearGradient
       inkscape:collect="always"
       xlink:href="#linearGradient3301-2-5"
       id="linearGradient3105"
       x1="1849.498"
       y1="1175.0056"
       x2="1921.5383"
       y2="1206.2761"
       gradientUnits="userSpaceOnUse"
       gradientTransform="translate(-234.71047,-107.26233)" />
    <radialGradient
       inkscape:collect="always"
       xlink:href="#linearGradient3272-8"
       id="radialGradient3282-8"
       gradientUnits="userSpaceOnUse"
       gradientTransform="matrix(1.3082479,0.6050943,-0.5327241,1.1517796,-604.3369,-581.72541)"
       cx="750.66138"
       cy="73.871254"
       fx="750.66138"
       fy="73.871254"
       r="60.661373" />
    <linearGradient
       inkscape:collect="always"
       id="linearGradient3272-8">
      <stop
         style="stop-color:#ffffff;stop-opacity:1;"
         offset="0"
         id="stop3274-9" />
      <stop
         style="stop-color:#ffffff;stop-opacity:0;"
         offset="1"
         id="stop3276-2" />
    </linearGradient>
    <filter
       id="filter3065-8-3"
       inkscape:label="Invert"
       x="0"
       y="0"
       width="1"
       height="1"
       inkscape:menu="Color"
       inkscape:menu-tooltip="Invert colors"
       color-interpolation-filters="sRGB">
      <feColorMatrix
         id="feColorMatrix3067-8-2"
         type="saturate"
         values="1"
         result="fbSourceGraphic" />
      <feColorMatrix
         id="feColorMatrix3069-8-7"
         in="fbSourceGraphic"
         values="-1 0 0 0 1 0 -1 0 0 1 0 0 -1 0 1 0 0 0 1 0 " />
    </filter>
    <radialGradient
       inkscape:collect="always"
       xlink:href="#linearGradient3272-8"
       id="radialGradient3278-6"
       cx="750.66138"
       cy="73.871254"
       fx="750.66138"
       fy="73.871254"
       r="60.661373"
       gradientTransform="matrix(1.3082479,0.6050943,-0.5327241,1.1517796,-426.74725,-572.69543)"
       gradientUnits="userSpaceOnUse" />
    <filter
       id="filter3071-8-6"
       inkscape:label="Invert"
       x="0"
       y="0"
       width="1"
       height="1"
       inkscape:menu="Color"
       inkscape:menu-tooltip="Invert colors"
       color-interpolation-filters="sRGB">
      <feColorMatrix
         id="feColorMatrix3073-3-6"
         type="saturate"
         values="1"
         result="fbSourceGraphic" />
      <feColorMatrix
         id="feColorMatrix3075-8-0"
         in="fbSourceGraphic"
         values="-1 0 0 0 1 0 -1 0 0 1 0 0 -1 0 1 0 0 0 1 0 " />
    </filter>
    <radialGradient
       inkscape:collect="always"
       xlink:href="#linearGradient3258-3"
       id="radialGradient3268-3"
       gradientUnits="userSpaceOnUse"
       gradientTransform="matrix(0.2197462,0.7381071,-2.5448999,0.7576573,2283.5923,-492.96137)"
       cx="182.06349"
       cy="491.29102"
       fx="182.06349"
       fy="491.29102"
       r="170" />
    <linearGradient
       inkscape:collect="always"
       id="linearGradient3258-3">
      <stop
         style="stop-color:#ffffff;stop-opacity:1;"
         offset="0"
         id="stop3260-3" />
      <stop
         style="stop-color:#ffffff;stop-opacity:0;"
         offset="1"
         id="stop3262-8" />
    </linearGradient>
    <filter
       id="filter3077-0-7"
       inkscape:label="Invert"
       x="0"
       y="0"
       width="1"
       height="1"
       inkscape:menu="Color"
       inkscape:menu-tooltip="Invert colors"
       color-interpolation-filters="sRGB">
      <feColorMatrix
         id="feColorMatrix3079-4-6"
         type="saturate"
         values="1"
         result="fbSourceGraphic" />
      <feColorMatrix
         id="feColorMatrix3081-7-9"
         in="fbSourceGraphic"
         values="-1 0 0 0 1 0 -1 0 0 1 0 0 -1 0 1 0 0 0 1 0 " />
    </filter>
    <radialGradient
       inkscape:collect="always"
       xlink:href="#linearGradient3258-3"
       id="radialGradient3264-6"
       cx="182.06349"
       cy="491.29102"
       fx="182.06349"
       fy="491.29102"
       r="170"
       gradientTransform="matrix(1,0,0,0.882353,-234.71047,-47.262367)"
       gradientUnits="userSpaceOnUse" />
    <filter
       id="filter3083-8-0"
       inkscape:label="Invert"
       x="0"
       y="0"
       width="1"
       height="1"
       inkscape:menu="Color"
       inkscape:menu-tooltip="Invert colors"
       color-interpolation-filters="sRGB">
      <feColorMatrix
         id="feColorMatrix3085-9-5"
         type="saturate"
         values="1"
         result="fbSourceGraphic" />
      <feColorMatrix
         id="feColorMatrix3087-0-8"
         in="fbSourceGraphic"
         values="-1 0 0 0 1 0 -1 0 0 1 0 0 -1 0 1 0 0 0 1 0 " />
    </filter>
    <linearGradient
       inkscape:collect="always"
       xlink:href="#linearGradient3248-8"
       id="linearGradient3254-6"
       x1="615.2381"
       y1="293.33334"
       x2="897.14282"
       y2="712.38092"
       gradientUnits="userSpaceOnUse"
       gradientTransform="translate(-234.71047,-107.26233)" />
    <linearGradient
       inkscape:collect="always"
       id="linearGradient3248-8">
      <stop
         style="stop-color:#ffffff;stop-opacity:1;"
         offset="0"
         id="stop3250-7" />
      <stop
         style="stop-color:#ffffff;stop-opacity:0;"
         offset="1"
         id="stop3252-9" />
    </linearGradient>
    <filter
       id="filter3089-0-8"
       inkscape:label="Invert"
       x="0"
       y="0"
       width="1"
       height="1"
       inkscape:menu="Color"
       inkscape:menu-tooltip="Invert colors"
       color-interpolation-filters="sRGB">
      <feColorMatrix
         id="feColorMatrix3091-3-8"
         type="saturate"
         values="1"
         result="fbSourceGraphic" />
      <feColorMatrix
         id="feColorMatrix3093-3-4"
         in="fbSourceGraphic"
         values="-1 0 0 0 1 0 -1 0 0 1 0 0 -1 0 1 0 0 0 1 0 " />
    </filter>
    <linearGradient
       inkscape:collect="always"
       xlink:href="#linearGradient3234-7-8"
       id="linearGradient3240-3"
       x1="160"
       y1="104.28571"
       x2="459.04764"
       y2="416.66666"
       gradientUnits="userSpaceOnUse"
       gradientTransform="translate(-234.71047,-107.26233)" />
    <linearGradient
       id="linearGradient3234-7-8">
      <stop
         style="stop-color:#ffffff;stop-opacity:1;"
         offset="0"
         id="stop3236-3-8" />
      <stop
         style="stop-color:#ffffff;stop-opacity:0;"
         offset="1"
         id="stop3238-2-8" />
    </linearGradient>
    <filter
       id="filter3095-6-3"
       inkscape:label="Invert"
       x="0"
       y="0"
       width="1"
       height="1"
       inkscape:menu="Color"
       inkscape:menu-tooltip="Invert colors"
       color-interpolation-filters="sRGB">
      <feColorMatrix
         id="feColorMatrix3097-5-1"
         type="saturate"
         values="1"
         result="fbSourceGraphic" />
      <feColorMatrix
         id="feColorMatrix3099-2-5"
         in="fbSourceGraphic"
         values="-1 0 0 0 1 0 -1 0 0 1 0 0 -1 0 1 0 0 0 1 0 " />
    </filter>
    <linearGradient
       inkscape:collect="always"
       xlink:href="#linearGradient3214-5"
       id="linearGradient3228-6"
       gradientUnits="userSpaceOnUse"
       gradientTransform="matrix(0.6321839,0,0,0.6737146,471.49643,284.28016)"
       x1="315.2381"
       y1="1129.8051"
       x2="1920"
       y2="828.85266" />
    <linearGradient
       inkscape:collect="always"
       id="linearGradient3214-5">
      <stop
         style="stop-color:#ffffff;stop-opacity:1"
         offset="0"
         id="stop3216-8" />
      <stop
         style="stop-color:#ffffff;stop-opacity:0"
         offset="1"
         id="stop3218-7" />
    </linearGradient>
    <filter
       id="filter3101-9-8"
       inkscape:label="Invert"
       x="0"
       y="0"
       width="1"
       height="1"
       inkscape:menu="Color"
       inkscape:menu-tooltip="Invert colors"
       color-interpolation-filters="sRGB">
      <feColorMatrix
         id="feColorMatrix3103-6-1"
         type="saturate"
         values="1"
         result="fbSourceGraphic" />
      <feColorMatrix
         id="feColorMatrix3105-0-2"
         in="fbSourceGraphic"
         values="-1 0 0 0 1 0 -1 0 0 1 0 0 -1 0 1 0 0 0 1 0 " />
    </filter>
    <linearGradient
       inkscape:collect="always"
       xlink:href="#linearGradient3214-5"
       id="linearGradient3224-4"
       gradientUnits="userSpaceOnUse"
       x1="315.2381"
       y1="1129.8051"
       x2="1920"
       y2="828.85266"
       gradientTransform="matrix(0.7931034,0,0,0.8421432,162.53091,82.165781)" />
    <filter
       id="filter3107-1-3"
       inkscape:label="Invert"
       x="0"
       y="0"
       width="1"
       height="1"
       inkscape:menu="Color"
       inkscape:menu-tooltip="Invert colors"
       color-interpolation-filters="sRGB">
      <feColorMatrix
         id="feColorMatrix3109-0-6"
         type="saturate"
         values="1"
         result="fbSourceGraphic" />
      <feColorMatrix
         id="feColorMatrix3111-4-1"
         in="fbSourceGraphic"
         values="-1 0 0 0 1 0 -1 0 0 1 0 0 -1 0 1 0 0 0 1 0 " />
    </filter>
    <linearGradient
       inkscape:collect="always"
       xlink:href="#linearGradient3214-5"
       id="linearGradient3220-8"
       x1="315.2381"
       y1="1129.8051"
       x2="1920"
       y2="828.85266"
       gradientUnits="userSpaceOnUse"
       gradientTransform="translate(-234.71047,-107.26233)" />
    <filter
       id="filter3113-7-9"
       inkscape:label="Invert"
       x="0"
       y="0"
       width="1"
       height="1"
       inkscape:menu="Color"
       inkscape:menu-tooltip="Invert colors"
       color-interpolation-filters="sRGB">
      <feColorMatrix
         id="feColorMatrix3115-0-5"
         type="saturate"
         values="1"
         result="fbSourceGraphic" />
      <feColorMatrix
         id="feColorMatrix3117-8-7"
         in="fbSourceGraphic"
         values="-1 0 0 0 1 0 -1 0 0 1 0 0 -1 0 1 0 0 0 1 0 " />
    </filter>
    <linearGradient
       inkscape:collect="always"
       xlink:href="#linearGradient3234-7-8"
       id="linearGradient3244-6"
       gradientUnits="userSpaceOnUse"
       x1="160"
       y1="104.28571"
       x2="459.04764"
       y2="416.66666"
       gradientTransform="translate(25.289529,-107.26233)" />
    <linearGradient
       id="linearGradient3189">
      <stop
         style="stop-color:#ffffff;stop-opacity:1;"
         offset="0"
         id="stop3191" />
      <stop
         style="stop-color:#ffffff;stop-opacity:0;"
         offset="1"
         id="stop3193" />
    </linearGradient>
    <filter
       id="filter3119-2-3"
       inkscape:label="Invert"
       x="0"
       y="0"
       width="1"
       height="1"
       inkscape:menu="Color"
       inkscape:menu-tooltip="Invert colors"
       color-interpolation-filters="sRGB">
      <feColorMatrix
         id="feColorMatrix3121-4-0"
         type="saturate"
         values="1"
         result="fbSourceGraphic" />
      <feColorMatrix
         id="feColorMatrix3123-7-1"
         in="fbSourceGraphic"
         values="-1 0 0 0 1 0 -1 0 0 1 0 0 -1 0 1 0 0 0 1 0 " />
    </filter>
    <linearGradient
       y2="507.61908"
       x2="1000"
       y1="0"
       x1="918.09521"
       gradientUnits="userSpaceOnUse"
       id="linearGradient3404"
       xlink:href="#linearGradient3156-4-2"
       inkscape:collect="always"
       gradientTransform="translate(-234.71047,-107.26233)" />
    <linearGradient
       id="linearGradient3156-4-2">
      <stop
         style="stop-color:#ffffff;stop-opacity:1;"
         offset="0"
         id="stop3158-3-7" />
      <stop
         style="stop-color:#ffffff;stop-opacity:0"
         offset="1"
         id="stop3160-1-8" />
    </linearGradient>
    <filter
       id="filter3125-4-2"
       inkscape:label="Invert"
       x="0"
       y="0"
       width="1"
       height="1"
       inkscape:menu="Color"
       inkscape:menu-tooltip="Invert colors"
       color-interpolation-filters="sRGB">
      <feColorMatrix
         id="feColorMatrix3127-6-4"
         type="saturate"
         values="1"
         result="fbSourceGraphic" />
      <feColorMatrix
         id="feColorMatrix3129-9-6"
         in="fbSourceGraphic"
         values="-1 0 0 0 1 0 -1 0 0 1 0 0 -1 0 1 0 0 0 1 0 " />
    </filter>
    <radialGradient
       r="616.42596"
       fy="839.90619"
       fx="1451.6025"
       cy="839.90619"
       cx="1451.6025"
       gradientTransform="matrix(0.39512984,-0.52253506,0.38627768,0.35327855,51.833505,1054.2982)"
       gradientUnits="userSpaceOnUse"
       id="radialGradient5889"
       xlink:href="#linearGradient3595-4"
       inkscape:collect="always" />
    <linearGradient
       id="linearGradient3595-4">
      <stop
         style="stop-color:#edeebc;stop-opacity:0.68627453;"
         offset="0"
         id="stop3597-5" />
      <stop
         style="stop-color:#e8e8b1;stop-opacity:0;"
         offset="1"
         id="stop3599-3" />
    </linearGradient>
    <linearGradient
       y2="948.24384"
       x2="939.95343"
       y1="33.307316"
       x1="1329.1356"
       gradientTransform="matrix(0.78034142,0.07215598,-0.06561084,0.85818579,-115.64849,238.31398)"
       gradientUnits="userSpaceOnUse"
       id="linearGradient5891"
       xlink:href="#linearGradient3631-4"
       inkscape:collect="always" />
    <linearGradient
       inkscape:collect="always"
       id="linearGradient3631-4">
      <stop
         style="stop-color:#ffffff;stop-opacity:1;"
         offset="0"
         id="stop3633-5" />
      <stop
         style="stop-color:#ffffff;stop-opacity:0;"
         offset="1"
         id="stop3635-1" />
    </linearGradient>
    <radialGradient
       r="616.42596"
       fy="839.90619"
       fx="1451.6025"
       cy="839.90619"
       cx="1451.6025"
       gradientTransform="matrix(0.36169535,-0.19984196,0.35359223,0.13511032,-40.394228,622.83473)"
       gradientUnits="userSpaceOnUse"
       id="radialGradient3228"
       xlink:href="#linearGradient3595-4"
       inkscape:collect="always" />
    <linearGradient
       y2="948.24384"
       x2="939.95343"
       y1="33.307316"
       x1="1329.1356"
       gradientTransform="matrix(0.7143117,0.02759584,-0.06005908,0.32821056,-193.70449,310.76402)"
       gradientUnits="userSpaceOnUse"
       id="linearGradient3230"
       xlink:href="#linearGradient3631-4"
       inkscape:collect="always" />
  </defs>
  <sodipodi:namedview
     id="base"
     pagecolor="#ffffff"
     bordercolor="#666666"
     borderopacity="1.0"
     inkscape:pageopacity="1"
     inkscape:pageshadow="2"
     inkscape:zoom="0.87833333"
     inkscape:cx="400"
     inkscape:cy="72.296015"
     inkscape:document-units="px"
     inkscape:current-layer="layer3"
     showgrid="false"
     inkscape:window-width="840"
     inkscape:window-height="715"
     inkscape:window-x="0"
     inkscape:window-y="0"
     inkscape:window-maximized="0" />
  <metadata
     id="metadata5898">
    <rdf:RDF>
      <cc:Work
         rdf:about="">
        <dc:format>image/svg+xml</dc:format>
        <dc:type
           rdf:resource="http://purl.org/dc/dcmitype/StillImage" />
        <dc:title></dc:title>
      </cc:Work>
    </rdf:RDF>
  </metadata>
  <g
     inkscape:groupmode="layer"
     id="layer3"
     inkscape:label="deusto">
    <rect
       style="fill:#2c4b9b;fill-opacity:1;stroke:#000000;stroke-width:5.59336567;stroke-miterlimit:4;stroke-opacity:1;stroke-dasharray:none"
       id="rect3962"
       width="979.84796"
       height="268.39032"
       x="-117.1777"
       y="337.27341" />
    <path
       inkscape:connector-curvature="0"
       sodipodi:nodetypes="czc"
       id="path3607"
       d="M -122.65013,647.7619 C 866.98054,644.65658 1055.8352,286.62639 777.68707,302.09831 499.53871,317.57024 746.19824,572.02272 -122.65013,647.7619 z"
       style="opacity:0.203;fill:url(#radialGradient3228);fill-opacity:1;fill-rule:evenodd;stroke:url(#linearGradient3230);stroke-width:0.48590335px;stroke-linecap:butt;stroke-linejoin:miter;stroke-opacity:1"
       inkscape:export-filename="/home/sato/Escritorio/wallpaper2.png"
       inkscape:export-xdpi="90"
       inkscape:export-ydpi="90" />
    <path
       inkscape:connector-curvature="0"
       style="opacity:0.203;fill:url(#linearGradient3404);fill-opacity:1;stroke:none;filter:url(#filter3125-4-2)"
       d="m 1685.2895,-107.26233 -1919.99997,0 0,680 c 611.7531,0.1726 1402.86107,-428.26377 1919.99997,-440 l 0,-240 z"
       id="path3154"
       sodipodi:nodetypes="ccccc"
       transform="matrix(0.53487983,0,0,0.24576558,7.6223983,362.38974)" />
    <path
       inkscape:connector-curvature="0"
       sodipodi:nodetypes="ccccc"
       id="path3242"
       d="m -234.71047,572.73767 c 205.714279,-394.28571 893.52495,-567.6132188 700,-680 l 240,0 c -321.25943,204.769591 -859.99149,711.33797 -940,1060 l 0,-380 z"
       style="opacity:0.203;fill:url(#linearGradient3244-6);fill-opacity:1;stroke:none;filter:url(#filter3119-2-3)"
       transform="matrix(0.53487983,0,0,0.24576558,7.6223983,362.38974)" />
    <path
       inkscape:connector-curvature="0"
       style="opacity:0.203;fill:url(#linearGradient3220-8);fill-opacity:1;stroke:none;filter:url(#filter3113-7-9)"
       d="M -54.710471,1092.7377 C 447.27898,852.59213 584.05154,330.86716 1685.2895,552.73767 l 0,60 C 733.98705,368.11772 218.28521,1030.3607 185.28953,1092.7377 l -240.000001,0 z"
       id="path3212"
       sodipodi:nodetypes="ccccc"
       transform="matrix(0.53487983,0,0,0.24576558,7.6223983,362.38974)" />
    <path
       inkscape:connector-curvature="0"
       sodipodi:nodetypes="ccccc"
       id="path3222"
       d="M 305.28953,1092.7377 C 703.41909,890.50073 811.89393,451.13357 1685.2895,637.98032 l 0,50.5286 C 930.80823,482.50388 521.80335,1040.2073 495.63436,1092.7377 l -190.34483,0 z"
       style="opacity:0.203;fill:url(#linearGradient3224-4);fill-opacity:1;stroke:none;filter:url(#filter3107-1-3)"
       transform="matrix(0.53487983,0,0,0.24576558,7.6223983,362.38974)" />
    <path
       inkscape:connector-curvature="0"
       style="opacity:0.203;fill:url(#linearGradient3228-6);fill-opacity:1;stroke:none;filter:url(#filter3101-9-8)"
       d="M 585.28953,1092.7377 C 902.63913,930.94807 989.10463,579.45439 1685.2895,728.93179 l 0,40.42288 C 1163.8914,587.40778 719.77777,1044.9991 737.01367,1092.7377 l -151.72414,0 z"
       id="path3226"
       sodipodi:nodetypes="ccccc"
       transform="matrix(0.53487983,0,0,0.24576558,7.6223983,362.38974)" />
    <path
       inkscape:connector-curvature="0"
       style="opacity:0.203;fill:url(#linearGradient3240-3);fill-opacity:1;stroke:none;filter:url(#filter3095-6-3)"
       d="m -234.71047,372.73767 c 213.333329,-253.33333 801.14402,-432.375127 440,-480 l 240,0 c -16.49753,48.579112 -666.65817,450.38559 -680,620 l 0,-140 z"
       id="path3232"
       sodipodi:nodetypes="ccccc"
       transform="matrix(0.53487983,0,0,0.24576558,7.6223983,362.38974)" />
    <path
       inkscape:connector-curvature="0"
       style="opacity:0.053;fill:url(#linearGradient3254-6);fill-opacity:1;stroke:none;filter:url(#filter3089-0-8)"
       d="M -234.71047,1012.7377 C 143.47074,563.89156 767.66993,-95.428682 1565.2895,-107.26233 l 120,0 0,120.000001 c -2.0623,-72.518426 -168.7666,38.9542 -231.9396,28.96631 C 1068.3642,-19.1637 -84.096471,620.51274 -174.71047,1092.7377 l -60,0 0,-80 z"
       id="path3246"
       sodipodi:nodetypes="ccccsccc"
       transform="matrix(0.53487983,0,0,0.24576558,7.6223983,362.38974)" />
    <path
       inkscape:connector-curvature="0"
       style="opacity:0.203;fill:url(#radialGradient3264-6);fill-opacity:1;stroke:none;filter:url(#filter3083-8-0)"
       d="m -194.71047,552.73767 c 100.671919,-119.69553 209.027009,-227.43946 340,-300 0,0 -61.984131,-0.39683 -180.000001,100 -116.746029,99.12698 -159.999999,200 -159.999999,200 z"
       id="path3256"
       sodipodi:nodetypes="cczc"
       transform="matrix(0.53487983,0,0,0.24576558,7.6223983,362.38974)" />
    <path
       inkscape:connector-curvature="0"
       sodipodi:nodetypes="cczc"
       id="path3266"
       d="m 640.99809,220.77899 c 115.64643,-77.28553 607.32061,-277.837964 816.67241,-300.399244 0,0 -263.7029,26.356429 -409.2391,79.52122516 C 904.52703,52.315951 640.99809,220.77899 640.99809,220.77899 z"
       style="opacity:0.203;fill:url(#radialGradient3268-3);fill-opacity:1;stroke:none;filter:url(#filter3077-0-7)"
       transform="matrix(0.53487983,0,0,0.24576558,7.6223983,362.38974)" />
    <path
       inkscape:connector-curvature="0"
       style="opacity:0.203;fill:url(#radialGradient3278-6);fill-opacity:1;stroke:none;filter:url(#filter3071-8-6)"
       d="m 501.52704,-89.519825 c 0,0 16.26249,14.757496 3.76249,42.257496 -12.5,27.5 -50,70 -50,70 46.93535,-41.13443 88.77878,-83.686042 121.32275,-96.613757 -33.81241,4.056528 -44.99147,5.972383 -75.08524,-15.643739 z"
       id="path3270"
       sodipodi:nodetypes="czccc"
       transform="matrix(0.53487983,0,0,0.24576558,7.6223983,362.38974)" />
    <path
       inkscape:connector-curvature="0"
       sodipodi:nodetypes="czccc"
       id="path3280"
       d="m 323.93739,-98.549807 c 0,0 6.86111,14.337524 3.76249,42.257496 -3.09377,27.876249 -54.89124,70.752502 -54.89124,70.752502 44.3016,-30.599454 93.67002,-84.438544 126.21399,-97.366259 -33.81241,4.056528 -44.99147,5.972383 -75.08524,-15.643739 z"
       style="opacity:0.203;fill:url(#radialGradient3282-8);fill-opacity:1;stroke:none;filter:url(#filter3065-8-3)"
       transform="matrix(0.53487983,0,0,0.24576558,7.6223983,362.38974)" />
    <text
       xml:space="preserve"
       style="font-size:16px;font-style:normal;font-weight:bold;writing-mode:lr-tb;opacity:0.203;fill:url(#linearGradient3307-4-3);fill-opacity:1;stroke:none;filter:url(#filter3059-4-7);font-family:Liberation Mono"
       x="1609.1021"
       y="1084.3314"
       id="text3297"
       transform="matrix(0.53487983,0,0,0.24576558,7.6223983,362.38974)"><tspan
         sodipodi:role="line"
         id="tspan3299"
         x="1609.1021"
         y="1084.3314"
         style="fill:url(#linearGradient3307-4-3);fill-opacity:1">W.Smith</tspan></text>
    <text
       xml:space="preserve"
       style="font-size:25.46000862px;font-style:normal;font-variant:normal;font-weight:normal;font-stretch:normal;text-align:start;line-height:100%;letter-spacing:0px;word-spacing:0px;writing-mode:lr-tb;text-anchor:start;fill:#000000;fill-opacity:1;stroke:none;font-family:DejaVu Serif;-inkscape-font-specification:DejaVu Serif"
       x="400.58908"
       y="508.66016"
       id="text3001"
       sodipodi:linespacing="100%"><tspan
         sodipodi:role="line"
         x="400.58908"
         y="508.66016"
         style="font-style:normal;font-variant:normal;font-weight:bold;font-stretch:normal;text-align:center;line-height:100%;text-anchor:middle;fill:#ffffff;fill-opacity:1;font-family:Frutiger-Light;-inkscape-font-specification:Frutiger-Light Bold"
         id="tspan3009">University of Deusto</tspan><tspan
         sodipodi:role="line"
         x="400.58908"
         y="528.29388"
         style="font-size:18px;font-style:normal;font-variant:normal;font-weight:bold;font-stretch:normal;text-align:center;line-height:100%;text-anchor:middle;fill:#ffffff;fill-opacity:1;font-family:Frutiger-Light;-inkscape-font-specification:Frutiger-Light Bold"
         id="tspan4206">www.deusto.es</tspan></text>
    <path
       style="fill:#ffffff;fill-opacity:1"
       d="m 385.96796,421.29401 -0.0189,2.0147 c -0.009,1.10874 -0.0184,9.82103 -0.0238,19.36298 -0.01,17.19167 -0.008,17.35733 0.0855,17.97072 0.15757,1.03683 0.42596,2.18569 0.72699,3.12185 0.18441,0.57334 0.26015,0.7889 0.48466,1.36371 0.19336,0.4949 0.82345,1.81258 1.10714,2.31405 0.0524,0.0926 0.12238,0.21454 0.15682,0.27561 0.33699,0.59714 1.26384,1.92818 1.88164,2.69893 0.47249,0.58942 1.7279,1.86008 2.35207,2.38057 0.13833,0.11536 0.32655,0.27286 0.41815,0.35162 0.60198,0.51762 2.32199,1.69635 2.47561,1.69635 0.023,0 0.0428,0.0219 0.0428,0.0475 0,0.0256 0.0193,0.0475 0.0427,0.0475 0.0235,0 0.19692,0.0885 0.3849,0.19956 0.42358,0.25042 1.25751,0.65428 1.94818,0.94084 0.16659,0.0692 0.36974,0.1523 0.44663,0.18532 0.0769,0.033 0.20963,0.0875 0.29935,0.11879 0.0897,0.0312 0.20532,0.0741 0.2566,0.095 0.14663,0.0597 1.08733,0.35518 1.45876,0.4609 1.07812,0.30685 2.74996,0.57944 4.01988,0.65096 0.98985,0.0558 1.60966,0.0565 2.44709,0.005 0.78466,-0.0485 1.86023,-0.15848 2.21427,-0.22808 0.11536,-0.0227 0.32466,-0.063 0.46567,-0.0903 0.65088,-0.12623 2.09217,-0.48745 2.26178,-0.56544 0.0513,-0.0235 0.3215,-0.11987 0.60345,-0.21382 0.28201,-0.0939 0.60408,-0.20784 0.71274,-0.2566 0.1087,-0.0488 0.20771,-0.0903 0.22336,-0.0903 0.0638,0 1.13919,-0.50076 1.5823,-0.7365 0.2054,-0.10928 0.46435,-0.24201 0.5797,-0.29937 0.11536,-0.0574 0.21954,-0.12333 0.22809,-0.14254 0.009,-0.0192 0.0308,-0.0333 0.0523,-0.0333 0.0677,0 1.27937,-0.76023 1.63457,-1.02636 0.0897,-0.0672 0.28808,-0.21495 0.44191,-0.32788 0.9035,-0.66324 2.46943,-2.13293 3.16935,-2.97452 0.17893,-0.21514 0.34882,-0.41826 0.37537,-0.44666 0.16357,-0.1748 0.70666,-0.89388 1.00263,-1.33046 0.19373,-0.28578 0.65097,-0.98997 0.65097,-1.00259 0,-0.008 0.0878,-0.17197 0.19956,-0.36112 0.2959,-0.50054 0.92541,-1.79411 1.17363,-2.41384 0.50343,-1.25671 0.97871,-2.90547 1.14043,-3.95813 0.0296,-0.19227 0.0727,-0.43438 0.095,-0.53695 0.0395,-0.18128 0.0921,-0.67712 0.1853,-1.72007 0.0288,-0.32091 0.0475,-7.35886 0.0475,-19.03036 l 0,-18.51718 -20.01872,0 -20.01395,0 z m 14.61129,3.16462 c 1.51272,-0.007 4.519,0.0148 4.61386,0.0428 0.24892,0.0732 0.34068,0.14354 0.43718,0.33262 0.0882,0.17288 0.0951,0.27556 0.095,1.82939 -4e-5,0.90466 -0.0164,2.69845 -0.0333,3.98663 -0.0168,1.28817 -0.042,2.3378 -0.057,2.3378 -0.0152,-6.2e-4 -0.0785,-0.0695 -0.14256,-0.15681 -0.2135,-0.29115 -0.0993,-0.27955 -3.06481,-0.29458 l -2.71322,-0.0142 -0.005,-0.15206 c -0.008,-0.99243 0.009,-7.88229 0.0189,-7.89248 0.009,-0.009 0.34632,-0.0168 0.85057,-0.019 z m 8.80959,0.0475 c 1.45847,-0.002 2.7092,-10e-4 2.77968,0 l 0.1283,0 0,4.03415 0,4.0294 -2.74642,0 c -2.3321,0 -2.76132,0.0127 -2.87478,0.0713 -0.0734,0.038 -0.19151,0.13475 -0.26134,0.21859 l -0.1283,0.15681 0,-3.96764 c 0,-4.17222 -0.006,-4.10622 0.19484,-4.35725 0.13928,-0.17443 0.20335,-0.18121 2.90802,-0.18533 z m -11.21389,0.93609 0.37061,0 0.37537,0 0,3.98187 0,3.98664 3.13611,0 3.13133,0 0.10451,0.22333 c 0.1362,0.29661 0.31949,0.40237 0.69376,0.40389 0.25188,6.2e-4 0.31319,-0.0159 0.47042,-0.14256 0.0985,-0.0793 0.19883,-0.2168 0.22809,-0.30411 l 0.057,-0.1568 0.68898,0 c 0.38092,0 1.80919,-0.008 3.17412,-0.0142 l 2.4851,-0.01 0.009,-3.96763 0.0144,-3.96288 0.36112,-0.01 0.36115,-0.01 0,4.34775 0,4.34776 -0.3136,0 c -0.17306,10e-4 -1.66589,0 -3.31193,0 l -2.98877,0 -0.10932,0.14255 c -0.1177,0.15923 -0.34582,0.31409 -0.59391,0.40389 -0.26545,0.0961 -0.69918,0.11044 -0.97412,0.0333 -0.28627,-0.0804 -0.36978,-0.13162 -0.66522,-0.41815 l -0.21383,-0.20907 -3.23585,-0.01 -3.23112,-0.0142 -0.0144,-4.32399 -0.009,-4.31925 z m 22.65111,13.55645 0,0.28034 0,0.2756 1.10713,0.36587 c 1.22648,0.40651 1.15838,0.36102 1.0976,0.77452 l -0.0238,0.17106 -2.62767,0 -2.62765,0 -0.0283,-0.10453 c -0.0345,-0.13816 0,-0.4433 0.0523,-0.49418 0.0234,-0.0219 0.16931,-0.0765 0.3231,-0.1188 0.15382,-0.0423 0.32413,-0.099 0.37537,-0.12352 0.0809,-0.0387 0.5945,-0.19956 1.21168,-0.38489 0.18621,-0.0559 0.1858,-0.0599 0.20907,-0.33736 l 0.0238,-0.27562 0.4514,-0.0142 0.45616,-0.0143 z m -14.96296,0.10928 c 0.11392,-0.0187 0.27838,0.0185 1.14515,0.26609 0.19805,0.0566 0.31492,0.0915 1.00259,0.28035 0.29482,0.081 0.66967,0.18434 0.83631,0.23284 0.59389,0.1728 1.144,0.32635 1.1784,0.32786 0.0193,4.2e-4 0.0333,0.13746 0.0333,0.30411 l 0,0.30411 -4.11494,0 c -2.26445,-2e-5 -4.13109,-0.0162 -4.14819,-0.0333 -0.0452,-0.0452 -0.0395,-0.36514 0.009,-0.49417 0.0329,-0.0864 0.10656,-0.12543 0.33736,-0.18532 0.16274,-0.0422 0.48679,-0.12965 0.7175,-0.19481 0.36547,-0.10323 0.84079,-0.23381 1.72486,-0.47042 0.12817,-0.0343 0.44215,-0.1202 0.69847,-0.19006 0.25636,-0.0699 0.51563,-0.13665 0.57971,-0.14729 z m -14.32621,0.22332 c 0.0337,0 0.44269,0.12773 0.91231,0.2851 0.46964,0.15739 0.91619,0.30288 0.99309,0.32312 0.0769,0.0203 0.27526,0.083 0.44191,0.14256 l 0.30411,0.10928 0.0144,0.28985 0.0144,0.2946 -0.76028,0 c -0.41779,4e-5 -1.58657,0.0117 -2.59914,0.0286 -2.10944,0.035 -1.97168,0.0653 -1.94818,-0.38013 l 0.0144,-0.27086 0.25661,-0.0855 c 0.14096,-0.048 0.4221,-0.13788 0.62721,-0.19956 0.20507,-0.0617 0.66617,-0.21072 1.02158,-0.32787 0.35544,-0.11715 0.67431,-0.20908 0.708,-0.20908 z m 14.34996,0.16158 c -0.15514,0.0164 -0.29672,0.11441 -0.32787,0.28033 -0.0341,0.18209 0.01,0.3483 0.11405,0.42765 0.13003,0.0991 0.46965,0.0732 0.57021,-0.0428 0.13574,-0.15653 0.15481,-0.29825 0.057,-0.46567 -0.0894,-0.15313 -0.25825,-0.21603 -0.41339,-0.19955 z m -12.4778,1.81987 0.40861,0 0.0144,3.13132 c 0.008,1.72398 0.008,3.13609 0,3.13609 -0.008,-4.1e-4 -0.20228,-0.12794 -0.42765,-0.28034 l -0.40862,-0.27559 -0.54646,-0.0143 -0.54169,-0.0143 -0.0144,-0.41814 c -0.0131,-0.46173 -0.0578,-0.59238 -0.22809,-0.66999 -0.17178,-0.0783 -0.27889,-0.0619 -0.42288,0.0618 -0.12185,0.10468 -0.13032,0.14076 -0.15206,0.54642 l -0.0238,0.43716 -0.53693,0.0237 -0.53692,0.019 -0.3944,0.27084 -0.3944,0.26609 -0.0283,-0.92183 c -0.0156,-0.50604 -0.0345,-1.89961 -0.0378,-3.09808 l -0.005,-2.17623 1.93395,-0.0143 c 1.06386,-0.006 2.11823,-0.01 2.34254,-0.01 z m 0.97883,0 1.67257,0.005 c 0.91974,0.003 2.58916,0.007 3.71105,0.01 l 2.03842,0.005 -0.009,3.12184 -0.0144,3.12183 -2.14298,0.0143 c -1.17921,0.008 -2.85139,0.007 -3.71581,0 l -1.57275,-0.01 0.0144,-3.13609 0.0189,-3.13132 z m 7.93526,0.0238 3.58747,0 3.58751,0 -0.004,2.08119 c -0.004,1.1472 -0.0173,2.56441 -0.0333,3.14561 l -0.0283,1.05486 -0.18531,-0.0808 c -0.10253,-0.046 -0.39152,-0.17653 -0.64146,-0.2851 l -0.45618,-0.1948 0,-0.44192 c 0,-0.40484 -0.009,-0.44588 -0.11404,-0.55119 -0.15983,-0.1598 -0.4325,-0.16175 -0.58443,0 -0.097,0.10327 -0.11613,0.17342 -0.13307,0.5607 l -0.0189,0.44664 -0.49419,-0.0143 -0.49414,-0.0143 -0.0144,-0.46091 c -0.0156,-0.53839 -0.0799,-0.62924 -0.41816,-0.63197 -0.29387,-0.002 -0.3812,0.14694 -0.38013,0.64146 4.1e-4,0.209 -0.0115,0.40519 -0.0283,0.43241 -0.0283,0.0457 -0.81527,0.0578 -0.93133,0.0143 -0.0271,-0.0102 -0.0448,-0.17773 -0.0378,-0.39915 0.0107,-0.34472 0.004,-0.39528 -0.10451,-0.53694 -0.10677,-0.13996 -0.144,-0.15205 -0.35162,-0.15205 -0.21102,0 -0.23889,0.009 -0.32314,0.14728 -0.0732,0.12013 -0.0901,0.23598 -0.0902,0.55596 l 0,0.4039 -0.36115,0.15206 c -0.19867,0.0821 -0.47286,0.19529 -0.60819,0.25657 -0.13537,0.0613 -0.26972,0.11404 -0.29462,0.11404 -0.0288,1e-5 -0.0428,-1.1346 -0.0428,-3.12183 l 0,-3.12182 z m 12.10244,0.0333 c 1.49361,-4.1e-4 2.92454,0.009 2.97451,0.0286 0.0594,0.0228 0.0713,0.42339 0.0713,3.00303 0,1.63827 -0.0123,3.04648 -0.0283,3.12658 l -0.0283,0.14731 -2.92228,-0.0143 c -1.60539,-0.006 -3.28397,-0.016 -3.73004,-0.0238 l -0.80778,-0.0143 0.0283,-1.01212 c 0.0164,-0.55692 0.0283,-1.94528 0.0283,-3.08855 l 0,-2.08124 0.10454,-0.0475 c 0.0647,-0.0289 0.17565,-0.0263 0.29935,0 0.10837,0.0231 0.41512,0.0275 0.67949,0.01 0.28365,-0.0193 1.8373,-0.0326 3.33091,-0.0333 z m 3.58274,0.0333 2.35206,0.0143 2.35208,0.01 0.005,2.10973 c 0,1.16022 -0.01,2.55991 -0.0238,3.11232 l -0.0238,1.00735 -0.41815,-0.27084 -0.42288,-0.27083 -0.54646,0 -0.55119,0 0,-0.46092 c 0,-0.42957 -0.004,-0.46165 -0.11404,-0.56544 -0.1627,-0.15283 -0.4076,-0.14837 -0.56545,0.01 -0.10985,0.10983 -0.12144,0.15358 -0.1283,0.55595 l -0.005,0.43715 -0.55118,0.0143 -0.54642,0.01 -0.35638,0.23282 c -0.1951,0.12736 -0.37045,0.23283 -0.38965,0.23283 -0.0565,0 -0.0666,-0.66064 -0.0666,-3.49722 l 0,-2.67993 z m -27.80188,0.48943 c -0.19722,0 -0.28036,0.14914 -0.28036,0.49417 0,0.15665 0.0148,0.30013 0.0333,0.31837 0.0181,0.0179 0.13694,0.0266 0.2661,0.019 l 0.23281,-0.0143 0.0144,-0.2946 c 0.0173,-0.36251 -0.0615,-0.5227 -0.2661,-0.5227 z m 1.30193,0 c -0.19084,0 -0.28036,0.16822 -0.28036,0.53692 l 0,0.30886 0.27087,-0.0142 0.2661,-0.0142 0.0144,-0.32311 c 0.016,-0.36515 -0.0545,-0.49417 -0.27087,-0.49417 z m 1.30194,0 c -0.17922,0 -0.2756,0.19109 -0.2756,0.55594 l 0,0.28509 0.28036,0 0.28036,0 0,-0.33736 c 0,-0.38042 -0.0698,-0.50367 -0.28512,-0.50367 z m 2.93177,0 c -0.20034,0 -0.27082,0.12902 -0.27082,0.49891 l 0,0.34212 0.25656,0 0.25661,0 0,-0.31835 c 0,-0.35065 -0.079,-0.52268 -0.24235,-0.52268 z m 1.56804,0 c -0.17425,0 -0.26405,0.15652 -0.28033,0.47517 -0.008,0.15933 -0.004,0.30695 0.009,0.32785 0.0128,0.0209 0.13611,0.038 0.27559,0.038 l 0.25184,0 0,-0.33736 c 0,-0.36567 -0.0709,-0.50366 -0.25661,-0.50366 z m 1.56807,0 c -0.1514,-0.008 -0.23758,0.17375 -0.23758,0.52268 l 0,0.31835 0.25657,0 0.2566,0 0,-0.34686 c 0,-0.30568 -0.0131,-0.35898 -0.10455,-0.42289 -0.0646,-0.0452 -0.12057,-0.0687 -0.17104,-0.0713 z m 1.59655,0.005 c -0.0445,0.003 -0.0861,0.0333 -0.14733,0.0903 -0.0861,0.0802 -0.10451,0.14441 -0.10451,0.41814 l 0,0.32785 0.25657,0 0.25661,0 0,-0.34685 c 0,-0.30568 -0.009,-0.35898 -0.0998,-0.42289 -0.068,-0.0476 -0.11709,-0.0698 -0.16156,-0.0666 z m 3.11708,0.019 c -0.0144,0.005 -0.0308,0.0159 -0.0475,0.0286 -0.16455,0.12416 -0.19484,0.20521 -0.19484,0.49417 l 0,0.29459 0.28036,0 0.27559,0 0,-0.32312 c 0,-0.3066 -0.004,-0.32728 -0.13779,-0.42289 -0.0894,-0.0637 -0.13205,-0.087 -0.17581,-0.0713 z m 3.11709,0.0238 c -0.0551,0.002 -0.11491,0.0253 -0.18058,0.0713 -0.0901,0.0632 -0.10455,0.11756 -0.10455,0.39913 l 0,0.32311 0.28036,0 0.28035,0 0,-0.29458 c 0,-0.32208 -0.11046,-0.50575 -0.27558,-0.49893 z m -1.54428,0.005 c -0.0637,-2.7e-4 -0.12576,0.0307 -0.18535,0.0903 -0.0741,0.0741 -0.095,0.15355 -0.095,0.39437 l 0,0.30411 0.27559,0 0.27086,0 0.009,-0.30411 c 0.007,-0.24785 -0.008,-0.31646 -0.0856,-0.39437 -0.0601,-0.0601 -0.12636,-0.09 -0.19007,-0.0903 z m 3.04104,0.01 c -0.16771,-0.002 -0.21978,0.17019 -0.20432,0.62722 l 0.009,0.20433 0.24235,-0.0142 0.24707,-0.0143 0.009,-0.30411 c 0.0123,-0.33206 -0.0373,-0.44282 -0.22332,-0.48941 -0.0288,-0.007 -0.0568,-0.009 -0.0808,-0.01 z m 3.15983,0 c -0.021,6.2e-4 -0.0429,0.007 -0.0665,0.0142 -0.16315,0.0518 -0.2123,0.16403 -0.21382,0.49417 l 0,0.31837 0.27559,0 0.28032,0 -0.0238,-0.34212 c -0.0214,-0.33021 -0.10508,-0.49006 -0.25183,-0.48469 z m 1.58229,0.019 c -0.03,0.003 -0.0649,0.0117 -0.0998,0.0238 -0.1438,0.0499 -0.17487,0.14869 -0.17581,0.51318 l 0,0.26133 0.21859,0.019 c 0.31656,0.0243 0.31176,0.0285 0.32787,-0.22333 0.0267,-0.41803 -0.0609,-0.61617 -0.27087,-0.59397 z m 1.53955,0.0142 c -0.0534,0.005 -0.10269,0.0247 -0.1283,0.057 -0.0971,0.12281 -0.14815,0.55429 -0.0855,0.71751 0.0168,0.0443 0.10361,0.0617 0.28036,0.0617 l 0.26132,0 0,-0.33261 c 0,-0.24561 -0.0243,-0.35552 -0.0808,-0.41814 -0.0552,-0.061 -0.15805,-0.0934 -0.24707,-0.0855 z m 1.66781,0 c -0.0744,0 -0.16993,0.0322 -0.20905,0.0713 -0.0758,0.0758 -0.13919,0.57099 -0.0903,0.69848 0.0227,0.0591 0.0838,0.0681 0.27559,0.057 l 0.24235,-0.0143 0.0144,-0.29936 c 0.0176,-0.37241 -0.0452,-0.51318 -0.23281,-0.51318 z m 2.90326,0 c -0.21502,0 -0.28574,0.12516 -0.27559,0.50368 l 0.009,0.33261 0.24235,0 c 0.27883,0 0.29704,-0.0285 0.28035,-0.44664 -0.0111,-0.2803 -0.0803,-0.38965 -0.2566,-0.38965 z m 1.32096,0 c -0.20223,0 -0.27077,0.11665 -0.28985,0.49418 l -0.0189,0.34211 0.28514,0 c 0.27756,0 0.28664,-0.003 0.29458,-0.12829 0.0288,-0.45433 -0.07,-0.708 -0.27083,-0.708 z m 1.31624,0 c -0.2172,0 -0.2848,0.10175 -0.30412,0.48467 l -0.0144,0.35638 0.29459,-0.0143 0.29461,-0.0142 0.0144,-0.2851 c 0.0128,-0.3239 -0.0982,-0.52744 -0.28509,-0.52744 z m -31.4987,1.87691 c -0.0506,4.2e-4 -0.10278,0.0303 -0.16156,0.0855 -0.10151,0.0954 -0.10927,0.13942 -0.10927,0.48943 l 0,0.38963 0.25183,0 c 0.28822,0 0.28913,0.001 0.30412,-0.40864 0.012,-0.32176 -0.0612,-0.49195 -0.23285,-0.54645 -0.0173,-0.006 -0.0353,-0.01 -0.0523,-0.01 z m 1.31623,0.019 c -0.0511,0.004 -0.11511,0.0263 -0.16631,0.0665 -0.1085,0.0854 -0.11882,0.12071 -0.11882,0.48468 l 0,0.39438 0.28036,0 0.28036,0 0,-0.36113 c 0,-0.38672 -0.0617,-0.53969 -0.23285,-0.58445 -0.0136,-0.004 -0.0259,-10e-4 -0.0427,0 z m 1.28295,0 c -0.0197,0.003 -0.0407,0.009 -0.0665,0.019 -0.17688,0.0672 -0.19406,0.11346 -0.19484,0.54167 l 0,0.38489 0.28036,0 0.28036,0 0,-0.37537 c 0,-0.34352 -0.0132,-0.38245 -0.12354,-0.48469 -0.0759,-0.0703 -0.11642,-0.0948 -0.17581,-0.0855 z m 2.88423,0.019 c -0.0459,0.005 -0.0945,0.0266 -0.14257,0.0618 -0.0711,0.052 -0.0903,0.13639 -0.10451,0.41815 -0.01,0.19465 -0.006,0.38431 0.009,0.42288 0.0329,0.0854 0.47159,0.1017 0.52266,0.019 0.0181,-0.0294 0.0349,-0.20285 0.0378,-0.38487 0.005,-0.2842 -0.0107,-0.3471 -0.0998,-0.43716 -0.0745,-0.0752 -0.1468,-0.1083 -0.22332,-0.0998 z m 1.6203,0.0142 c -0.0875,-0.001 -0.17458,0.0376 -0.23281,0.11405 -0.0598,0.0785 -0.0836,0.75748 -0.0283,0.81252 0.0173,0.0171 0.14363,0.0333 0.28032,0.0333 l 0.24712,0 0,-0.41816 c 0,-0.39263 -0.007,-0.42391 -0.11406,-0.49416 -0.0478,-0.0314 -0.0996,-0.0468 -0.15205,-0.0475 z m 1.56803,0.0143 c -0.0802,-0.002 -0.15711,0.0173 -0.1853,0.0618 -0.023,0.0363 -0.0424,0.25086 -0.0428,0.47516 l 0,0.40864 0.25657,0 0.2566,0 0,-0.39913 c 0,-0.30357 -0.0197,-0.41866 -0.076,-0.47516 -0.0461,-0.0461 -0.12884,-0.0696 -0.20911,-0.0713 z m 4.73267,0.0143 c -0.0833,4.1e-4 -0.16401,0.0199 -0.19484,0.057 -0.0447,0.0538 -0.0714,0.35528 -0.0618,0.72225 l 0.005,0.15206 0.25661,0 0.25661,0 0,-0.40865 c 0,-0.25688 -0.0222,-0.43063 -0.0571,-0.46566 -0.0365,-0.0367 -0.12106,-0.0575 -0.20433,-0.057 z m 1.53955,0 c -0.21353,0 -0.2566,0.0926 -0.2566,0.55594 l 0,0.37538 0.2566,0 0.25657,0 0,-0.37538 c 0,-0.46332 -0.0431,-0.55594 -0.25657,-0.55594 z m 1.549,0 c -0.21151,0 -0.26436,0.10733 -0.26609,0.54644 l 0,0.38488 0.2566,0 0.25661,0 0.009,-0.26609 c 0.0181,-0.56495 -0.0227,-0.66523 -0.25661,-0.66523 z m 1.53007,0 c -0.18267,0 -0.25662,0.16318 -0.25662,0.57019 l 0,0.36113 0.25662,0 0.25656,0 0,-0.39439 c 0,-0.42878 -0.0523,-0.53693 -0.25656,-0.53693 z m 3.1218,0 c -0.19027,0 -0.26453,0.14815 -0.28032,0.55594 l -0.0144,0.37538 0.27559,0 0.27559,0 0,-0.38013 c 0,-0.41473 -0.0638,-0.55119 -0.2566,-0.55119 z m 1.58229,0 c -0.17018,0.0179 -0.29922,0.26508 -0.29934,0.63672 l 0,0.28986 0.2661,0.0143 0.27082,0.0142 0.009,-0.41339 c 0.0115,-0.35174 0.004,-0.42506 -0.0665,-0.47992 -0.063,-0.0486 -0.12383,-0.0677 -0.18058,-0.0618 z m -12.38751,0.005 c -0.0251,-4.2e-4 -0.0544,0.002 -0.0855,0.005 -0.20536,0.0198 -0.26996,0.15926 -0.27087,0.58445 l 0,0.33737 0.28037,0 0.27559,0 0,-0.4134 c 0,-0.40829 -0.0255,-0.51003 -0.19956,-0.51317 z m 13.98884,0 c -0.054,0.004 -0.11113,0.0345 -0.17105,0.0903 -0.0894,0.0833 -0.0998,0.14374 -0.0998,0.48943 l 0,0.39437 0.25657,0 c 0.23433,0 0.258,-0.0109 0.28509,-0.11879 0.0164,-0.0647 0.0201,-0.25239 0.009,-0.41815 -0.0148,-0.22951 -0.0399,-0.31819 -0.10927,-0.37061 -0.0627,-0.0475 -0.11704,-0.0703 -0.17104,-0.0666 z m 1.58229,0 c -0.0585,0.004 -0.1131,0.0452 -0.17105,0.1188 -0.0791,0.1006 -0.095,0.18913 -0.095,0.48941 l 0,0.36588 0.27559,0 0.28036,0 0,-0.39437 c 0,-0.34569 -0.0103,-0.40612 -0.0998,-0.48943 -0.0686,-0.0639 -0.13155,-0.0948 -0.19007,-0.0903 z m 5.55467,0.0238 c -0.057,0.002 -0.1179,0.0337 -0.1948,0.0998 -0.0653,0.0561 -0.0808,0.14612 -0.0808,0.45141 0,0.20966 0.008,0.39324 0.0189,0.40389 0.0107,0.0107 0.12941,0.0157 0.2661,0.0143 l 0.25184,0 0.009,-0.38489 c 0.0123,-0.35466 0.007,-0.3916 -0.0998,-0.49891 -0.0607,-0.0608 -0.11404,-0.0877 -0.17109,-0.0855 z m -2.60391,0.019 c -0.24995,0 -0.30243,0.0888 -0.30411,0.51794 l 0,0.38961 0.25661,0.0238 0.2566,0.0238 0.009,-0.4134 c 0.0148,-0.45517 -0.0193,-0.54169 -0.2186,-0.54169 z m 1.29248,0 c -0.21287,0.001 -0.24464,0.0641 -0.26137,0.52267 l -0.0189,0.43242 0.2281,-0.005 c 0.12406,-6.2e-4 0.25307,-0.0183 0.28508,-0.038 0.0382,-0.0235 0.057,-0.15313 0.057,-0.38012 0,-0.38103 -0.0822,-0.53371 -0.28984,-0.5322 z m -30.16348,1.86264 c -0.1957,0 -0.26133,0.13141 -0.26133,0.49894 l 0,0.34211 0.25657,0 0.2566,0 0,-0.33737 c 0,-0.36105 -0.0743,-0.50368 -0.25184,-0.50368 z m 2.63716,0.0143 c -0.0517,-0.002 -0.10874,0.0162 -0.17104,0.057 -0.1094,0.0717 -0.11882,0.10554 -0.11882,0.4229 l 0,0.34689 0.28036,0 0.28509,0 -0.009,-0.29462 c -0.009,-0.33548 -0.11092,-0.52642 -0.26606,-0.53219 z m 2.85098,0.0333 c -0.1858,0 -0.2518,0.16407 -0.2518,0.63672 0,0.37143 0.0103,0.42807 0.0808,0.44191 0.0679,0.0132 0.34895,0.0101 0.43241,-0.005 0.0128,-0.002 0.0173,-0.21712 0.009,-0.47992 -0.0148,-0.51165 -0.0516,-0.59395 -0.27087,-0.59395 z m 1.63457,0 c -0.23343,0 -0.29935,0.14191 -0.29935,0.62247 0,0.23924 0.0148,0.44743 0.0333,0.46565 0.0181,0.0179 0.13694,0.0266 0.2661,0.019 l 0.23286,-0.0142 0.0144,-0.43715 c 0.0152,-0.49473 -0.0459,-0.65572 -0.24712,-0.65572 z m 1.56807,0 c -0.0534,-0.002 -0.10673,0.0182 -0.15682,0.057 -0.0577,0.0448 -0.0757,0.16893 -0.0903,0.53692 -0.0103,0.26298 -0.0128,0.48631 0,0.49893 0.0128,0.0125 0.13891,0.0238 0.27559,0.0238 l 0.24711,0 0,-0.48469 c 0,-0.45016 -0.009,-0.4936 -0.10455,-0.56068 -0.0627,-0.0439 -0.11761,-0.0689 -0.17104,-0.0713 z m 1.59179,0.019 c -0.0875,-10e-4 -0.17458,0.0376 -0.23281,0.11403 -0.0357,0.0468 -0.0562,0.24823 -0.0571,0.53219 l 0,0.45141 0.28036,0 0.2756,0 0,-0.48943 c 0,-0.46684 -0.005,-0.48913 -0.11405,-0.56069 -0.0478,-0.0314 -0.0995,-0.0468 -0.15206,-0.0475 z m 10.86227,0.0286 c -0.07,10e-4 -0.14142,0.0321 -0.19956,0.0903 -0.0799,0.0799 -0.0951,0.15457 -0.0951,0.52745 0,0.23927 0.016,0.44857 0.0333,0.46566 0.0173,0.0171 0.14364,0.0333 0.28037,0.0333 l 0.24711,0 0,-0.47516 c 0,-0.37573 -0.0148,-0.49312 -0.076,-0.56068 -0.0506,-0.0559 -0.12004,-0.0822 -0.19008,-0.0808 z m 3.16459,0 c -0.0559,0.005 -0.10788,0.0317 -0.15679,0.076 -0.0721,0.0652 -0.0855,0.15277 -0.0855,0.5607 l 0,0.4799 0.25657,0 0.25661,0 0,-0.51317 c 0,-0.45756 -0.009,-0.51274 -0.0903,-0.55594 -0.0646,-0.0345 -0.1246,-0.0523 -0.18057,-0.0475 z m 1.65831,0.005 c -0.0242,-0.001 -0.0512,10e-4 -0.0807,0.005 -0.17401,0.0205 -0.23208,0.18792 -0.23286,0.67474 l 0,0.43239 0.27559,0 c 0.15231,0 0.28324,-0.014 0.29463,-0.0333 0.0115,-0.0192 0.007,-0.2419 -0.009,-0.49417 -0.0288,-0.43835 -0.0764,-0.57576 -0.24706,-0.58444 z m 2.87002,0 c -0.0552,0.003 -0.11117,0.0399 -0.18058,0.10928 -0.0955,0.0955 -0.11404,0.15611 -0.11404,0.38489 0,0.15068 0.0115,0.29176 0.0283,0.30886 0.0173,0.0171 0.14363,0.0286 0.28036,0.0286 l 0.24707,0 0,-0.32787 c 0,-0.26413 -0.0148,-0.34267 -0.0903,-0.41814 -0.0616,-0.0615 -0.11589,-0.0889 -0.17108,-0.0855 z m -6.12962,0.005 c -0.0937,0.008 -0.177,0.0608 -0.21858,0.15206 -0.0576,0.12645 -0.0768,0.86876 -0.0238,0.92181 0.0173,0.0171 0.14363,0.0333 0.28036,0.0333 l 0.24707,0 0,-0.50366 c 0,-0.48649 -4.1e-4,-0.5072 -0.10927,-0.56546 -0.0571,-0.0306 -0.1196,-0.0427 -0.17581,-0.038 z m 8.74302,0 c -0.0429,0.005 -0.0902,0.0258 -0.1378,0.057 -0.10451,0.0685 -0.11404,0.10198 -0.11404,0.42288 l 0,0.35163 0.2661,-0.0142 0.27083,-0.0143 0.0144,-0.27083 c 0.0176,-0.34122 -0.11335,-0.55433 -0.29935,-0.53218 z m -31.66498,1.57281 1.51103,0 1.51576,0 0.42292,0.28984 0.41811,0.28984 -0.0144,0.4229 -0.009,0.41816 -2.34253,0.0142 -2.34258,0.01 0,-0.46092 c 0,-0.42198 0.006,-0.4673 0.0903,-0.49417 0.0511,-0.0162 0.11983,-0.0535 0.15205,-0.0855 0.0321,-0.032 0.17997,-0.13836 0.32788,-0.23283 l 0.27082,-0.17106 z m 18.29386,0.0713 0.34685,0.1663 c 0.19229,0.0918 0.45937,0.21575 0.59397,0.27561 l 0.24706,0.10928 0,0.43239 c 0,0.39634 -0.0107,0.43257 -0.0998,0.46092 -0.0534,0.0169 -0.93757,0.023 -1.96715,0.0143 -1.02964,-0.009 -2.59073,-0.0218 -3.46871,-0.0285 l -1.59655,-0.01 0,-0.44664 0,-0.44191 0.17581,-0.076 c 0.0961,-0.0396 0.3085,-0.13202 0.47516,-0.20906 0.1666,-0.077 0.34787,-0.15604 0.39912,-0.17583 0.0513,-0.0198 1.16965,-0.043 2.48987,-0.0523 l 2.40435,-0.019 z m 10.54866,0.0238 1.5015,0 c 1.34003,0 1.51259,0.008 1.64406,0.0808 0.0809,0.0449 0.15826,0.0935 0.17109,0.1093 0.0128,0.0158 0.14243,0.10563 0.28984,0.19956 l 0.2661,0.17105 0,0.44192 0,0.44191 -2.34257,0 c -1.29031,0 -2.3635,-0.0162 -2.3806,-0.0333 -0.0173,-0.0172 -0.0283,-0.21604 -0.0283,-0.4419 0,-0.37546 0.009,-0.41552 0.10455,-0.47516 0.0577,-0.0359 0.25743,-0.16183 0.44191,-0.28036 l 0.33264,-0.21381 z m -24.46148,0.4609 2.92224,0.0143 c 1.60864,0.007 3.28635,0.0159 3.7253,0.0238 l 0.79353,0.0143 0.009,0.39437 c 0.005,0.24717 -0.009,0.40233 -0.0428,0.42292 -0.0539,0.0334 -4.71342,0.0574 -6.44325,0.0333 l -0.96457,-0.0143 0,-0.44666 0,-0.4419 z m 15.6329,0.0713 1.63457,0.005 c 0.89722,0.003 2.56861,0.0103 3.71577,0.0143 l 2.08597,0.005 0,0.44666 0,0.44191 -3.70628,0 c -3.04647,0 -3.71043,-0.0107 -3.73003,-0.0618 -0.0131,-0.0342 -0.0168,-0.24039 -0.009,-0.45616 l 0.009,-0.39438 z m -17.65238,2.41857 c 0.15391,-0.002 0.29532,-0.003 0.40866,0.005 0.90536,0.0627 1.2368,0.12146 2.00518,0.35164 0.34431,0.10312 0.38027,0.1189 1.1214,0.47041 0.55784,0.26456 1.14647,0.46638 1.80088,0.61296 0.42038,0.0942 0.60592,0.10452 1.50626,0.10452 0.90108,2e-5 1.08573,-0.0142 1.51576,-0.10928 0.59886,-0.13239 1.15769,-0.31878 1.69162,-0.56544 0.91533,-0.42292 1.25384,-0.53127 2.2665,-0.73176 0.48971,-0.0969 1.78449,-0.11168 2.26179,-0.0238 0.84695,0.156 1.40574,0.31203 1.81991,0.50368 0.15378,0.0711 0.28652,0.13091 0.29935,0.13304 0.0128,0.002 0.17268,0.0749 0.35162,0.16156 0.61504,0.29784 1.33563,0.51749 2.09546,0.63671 0.52085,0.0817 1.68569,0.0919 2.17153,0.019 0.34669,-0.052 1.09214,-0.21882 1.23067,-0.2756 0.0512,-0.021 0.16686,-0.0638 0.25657,-0.095 0.0897,-0.0312 0.23286,-0.0881 0.31361,-0.12354 0.0808,-0.0354 0.1562,-0.0665 0.17108,-0.0665 0.0148,0 0.20142,-0.0809 0.41339,-0.18057 0.53409,-0.25102 0.93659,-0.40215 1.29244,-0.48467 0.91345,-0.21181 1.67127,-0.29094 2.2998,-0.24234 0.26239,0.0204 0.56713,0.0445 0.67949,0.0523 0.11231,0.008 0.23724,0.0233 0.27559,0.0381 0.0382,0.0148 0.22283,0.0604 0.41339,0.0998 0.39501,0.0816 0.80877,0.21822 1.33045,0.43716 l 0.36115,0.15205 0,1.18316 c 0,1.14702 0,1.18317 -0.0903,1.18317 -0.0505,-1e-5 -0.15826,-0.0389 -0.24234,-0.0855 -0.25451,-0.14113 -1.29174,-0.46138 -1.76287,-0.54644 -0.55916,-0.10096 -1.85744,-0.11277 -2.44708,-0.0237 -0.42778,0.0646 -0.87253,0.16281 -0.95508,0.21384 -0.0251,0.0156 -0.0833,0.0385 -0.12831,0.0475 -0.13102,0.0262 -0.62113,0.20963 -0.87429,0.32785 -1.07775,0.50337 -1.71314,0.70298 -2.55639,0.81254 -0.32195,0.0418 -1.74681,0.0565 -1.98619,0.019 -0.33757,-0.0529 -1.24617,-0.2603 -1.3162,-0.29937 -0.0445,-0.0248 -0.11983,-0.0428 -0.16631,-0.0428 -0.0465,0 -0.10394,-0.0213 -0.12831,-0.0428 -0.0242,-0.0215 -0.11934,-0.0664 -0.20905,-0.0998 -0.0897,-0.0333 -0.349,-0.14884 -0.57971,-0.25659 -0.23072,-0.10775 -0.57752,-0.25295 -0.76978,-0.32312 -0.19225,-0.0702 -0.39539,-0.1451 -0.44664,-0.16631 -0.0886,-0.0366 -0.24858,-0.0766 -0.72226,-0.18055 -0.43263,-0.095 -1.33231,-0.15821 -1.82464,-0.1283 -0.66112,0.0401 -1.54256,0.18828 -1.83413,0.30885 -0.0512,0.0212 -0.24962,0.0977 -0.44191,0.16631 -0.19225,0.0686 -0.46246,0.18119 -0.60347,0.25183 -0.21736,0.10895 -0.63481,0.28599 -1.00258,0.42291 -1.07155,0.39896 -2.92253,0.4892 -4.10068,0.20431 -0.67752,-0.16383 -0.95044,-0.25774 -1.58702,-0.55593 -0.58698,-0.27495 -0.87445,-0.39801 -0.95508,-0.4134 -0.0128,-0.003 -0.0847,-0.0279 -0.1616,-0.057 -0.55217,-0.20906 -1.63094,-0.38811 -2.34729,-0.38961 -0.49419,-4.2e-4 -1.18161,0.0829 -1.75812,0.21381 -0.17773,0.0404 -0.38173,0.0817 -0.4514,0.095 -0.0697,0.0134 -0.15093,0.0546 -0.18057,0.0903 -0.0296,0.0357 -0.0883,0.0665 -0.13303,0.0665 -0.0897,0 -0.55714,0.18097 -0.62721,0.24235 -0.0242,0.0213 -0.0822,0.038 -0.1283,0.038 -0.0786,0 -0.0855,-0.0773 -0.0855,-1.19267 l 0,-1.1879 0.3136,-0.14256 c 0.3642,-0.16489 0.85908,-0.33259 1.2259,-0.41339 0.14101,-0.0311 0.32845,-0.0728 0.41816,-0.095 0.25784,-0.0641 0.83081,-0.11554 1.29244,-0.12354 z m 0.2091,4.4238 c 0.47191,0.008 0.94423,0.0376 1.15464,0.076 0.77385,0.14144 1.30408,0.3143 2.10023,0.69374 0.7766,0.37012 1.6843,0.64836 2.44709,0.746 0.565,0.0723 1.79468,0.0376 2.21428,-0.0618 0.0641,-0.0152 0.20798,-0.0474 0.3231,-0.0713 0.42107,-0.0873 1.01816,-0.29033 1.58706,-0.54169 0.81436,-0.35983 0.82586,-0.36474 1.16413,-0.47042 1.28842,-0.40244 2.34471,-0.46259 3.77282,-0.21381 0.40377,0.0703 1.16881,0.32221 1.62508,0.53692 0.2741,0.12902 0.63637,0.28721 0.80302,0.35165 0.16664,0.0644 0.34311,0.13528 0.3944,0.15679 0.13985,0.0586 0.41679,0.14005 0.56544,0.16631 0.0725,0.0128 0.25044,0.0534 0.39436,0.0903 0.35738,0.0917 0.83578,0.13089 1.5823,0.12829 1.21513,-0.004 2.01286,-0.19393 3.31191,-0.77927 0.37546,-0.16915 0.7159,-0.30884 0.75552,-0.30884 0.0395,0 0.0863,-0.0162 0.0998,-0.038 0.0267,-0.0435 0.88391,-0.24645 1.40172,-0.33261 0.36728,-0.0611 1.84034,-0.0359 2.25706,0.038 0.72834,0.12912 1.34364,0.30949 1.89112,0.56544 l 0.29939,0.14257 0,1.18789 c 0,0.98961 -0.007,1.18792 -0.0618,1.18792 -0.0362,-2e-5 -0.20194,-0.0595 -0.36584,-0.13304 -0.16393,-0.0736 -0.49426,-0.19781 -0.73653,-0.27562 -0.41964,-0.13473 -0.60182,-0.17873 -1.23067,-0.28984 -0.34188,-0.0604 -1.71023,-0.0635 -2.01472,-0.005 -0.12369,0.0238 -0.36078,0.0709 -0.52742,0.0998 -0.16661,0.0289 -0.36498,0.0711 -0.44187,0.095 -0.44861,0.13945 -0.58485,0.18455 -0.80307,0.27084 -0.13298,0.0526 -0.42169,0.17788 -0.64147,0.28035 -0.3674,0.17133 -0.9409,0.37876 -1.40171,0.50843 -0.10254,0.0289 -0.39466,0.0882 -0.65097,0.12829 -0.45449,0.0712 -1.06502,0.10089 -1.62985,0.0808 -0.37944,-0.0135 -1.38963,-0.16029 -1.44449,-0.20907 -0.0242,-0.0216 -0.10081,-0.038 -0.17105,-0.038 -0.0703,0 -0.14096,-0.0219 -0.15682,-0.0476 -0.0156,-0.0256 -0.0756,-0.0475 -0.13303,-0.0475 -0.0574,0 -0.12769,-0.0168 -0.15206,-0.038 -0.0242,-0.0212 -0.13647,-0.0643 -0.25183,-0.0998 -0.11536,-0.0355 -0.44578,-0.17684 -0.7365,-0.31362 -0.55044,-0.25896 -1.46212,-0.56827 -1.94344,-0.66047 -0.67633,-0.12957 -2.07368,-0.11205 -2.889,0.038 -0.42444,0.0781 -1.17169,0.31653 -1.44926,0.46092 -0.0495,0.0258 -0.14022,0.0682 -0.20429,0.095 -0.0641,0.0269 -0.25628,0.10953 -0.42292,0.1853 -0.16661,0.0758 -0.38688,0.16273 -0.48942,0.19483 -0.10254,0.0321 -0.22907,0.0751 -0.28036,0.095 -0.0512,0.0199 -0.14495,0.0499 -0.20906,0.0665 -0.0641,0.0167 -0.1906,0.0522 -0.28035,0.076 -0.85535,0.22652 -2.64805,0.24448 -3.45918,0.038 -0.75662,-0.19261 -1.03324,-0.28943 -1.71059,-0.60348 -1.28122,-0.59399 -2.13134,-0.78875 -3.43069,-0.78875 -1.00373,0 -2.25245,0.25068 -2.92228,0.5892 -0.0703,0.0355 -0.17807,0.0849 -0.24234,0.10928 l -0.11878,0.0428 0,-1.20217 0,-1.20217 0.24708,-0.11878 c 0.50475,-0.2458 1.3582,-0.49464 2.06222,-0.59871 0.2091,-0.0309 0.67801,-0.0417 1.14991,-0.0333 z m -0.37065,4.37626 c 0.36658,-0.0125 0.71163,0.0106 1.17367,0.0665 0.80331,0.0973 1.52423,0.31962 2.4281,0.74602 0.4886,0.2305 0.87671,0.38586 1.14988,0.4609 0.13459,0.037 0.36267,0.0992 0.50368,0.1378 0.141,0.0386 0.56766,0.10251 0.95031,0.14256 0.95269,0.0997 1.79402,0.0238 2.85102,-0.25185 0.22591,-0.0589 0.80467,-0.28372 1.23067,-0.47992 0.1666,-0.0767 0.40875,-0.17863 0.53693,-0.22808 0.12817,-0.0494 0.27658,-0.10654 0.32787,-0.12829 0.0512,-0.0218 0.27152,-0.0869 0.48941,-0.14255 0.21789,-0.0557 0.46003,-0.11948 0.53693,-0.14255 0.0769,-0.023 0.43746,-0.0677 0.80302,-0.0998 0.57272,-0.0503 0.75749,-0.0507 1.34948,0.0143 0.73312,0.0805 1.03009,0.13552 1.23545,0.21858 0.0705,0.0286 0.1283,0.0428 0.1283,0.0333 0,-0.0215 0.68454,0.22221 0.92179,0.32787 0.0948,0.0422 0.30234,0.13302 0.45617,0.20431 1.28357,0.59507 2.08449,0.7649 3.48295,0.73177 0.84302,-0.02 1.39153,-0.0864 1.80562,-0.21859 0.0897,-0.0286 0.19438,-0.0617 0.23286,-0.0713 0.24711,-0.0618 0.67944,-0.23995 1.39698,-0.57495 0.23992,-0.11203 1.03472,-0.37927 1.21165,-0.40863 0.0652,-0.0109 0.16874,-0.0398 0.23285,-0.0618 0.34763,-0.11939 0.82435,-0.16475 1.67731,-0.16155 0.68808,0.003 0.96774,0.0202 1.14991,0.076 0.13234,0.0405 0.25296,0.0653 0.2661,0.0522 0.0132,-0.0131 0.0953,-0.003 0.18054,0.0238 0.0852,0.0271 0.40061,0.12914 0.70324,0.22334 0.30263,0.0942 0.67164,0.22792 0.81729,0.29933 l 0.26133,0.12829 -0.0144,1.18317 c -0.008,0.64925 -0.0227,1.18692 -0.0333,1.19741 -0.0102,0.0105 -0.20317,-0.0602 -0.42765,-0.1568 -0.22446,-0.0966 -0.44762,-0.19184 -0.4989,-0.21383 -0.16875,-0.0724 -0.97436,-0.2605 -1.37796,-0.32311 -0.50085,-0.0778 -1.57227,-0.0817 -2.11927,-0.005 -0.75786,0.10663 -1.46652,0.32126 -2.23803,0.67947 -0.63202,0.29349 -1.19195,0.48979 -1.81987,0.63673 -0.39444,0.0923 -1.73155,0.17837 -2.2095,0.14255 -0.46624,-0.0349 -1.47458,-0.24221 -1.74861,-0.36113 -0.0769,-0.0333 -0.2691,-0.10845 -0.42289,-0.16629 -0.15381,-0.0579 -0.49586,-0.20464 -0.76028,-0.32787 -1.08338,-0.50499 -1.955,-0.69869 -3.15509,-0.70325 -0.72839,-0.003 -1.65804,0.0963 -1.8484,0.19957 -0.0445,0.0242 -0.10943,0.0428 -0.14256,0.0428 -0.12295,0 -0.81408,0.24687 -1.19739,0.42766 -0.21793,0.10275 -0.43816,0.20995 -0.48941,0.23282 -0.186,0.083 -0.89097,0.32699 -1.05014,0.36587 -0.94723,0.23085 -1.70541,0.30102 -2.58487,0.23285 -0.97597,-0.0757 -1.8556,-0.32657 -2.92229,-0.83154 -1.21522,-0.57531 -2.46098,-0.80982 -3.76804,-0.70801 -0.90166,0.0703 -1.70998,0.27125 -2.44237,0.60346 -0.17659,0.0801 -0.32807,0.14256 -0.33736,0.14256 -0.009,0 -0.0189,-0.54229 -0.0189,-1.20693 l 0,-1.2069 0.24707,-0.1188 c 0.58595,-0.28001 1.46328,-0.52666 2.17625,-0.61298 0.26356,-0.0319 0.49283,-0.0542 0.71278,-0.0618 z"
       id="path2996"
       inkscape:connector-curvature="0" />
  </g>
</svg>
