<?xml version="1.0" encoding="UTF-8" standalone="no"?>
<!-- Created with Inkscape (http://www.inkscape.org/) -->

<svg
   xmlns:dc="http://purl.org/dc/elements/1.1/"
   xmlns:cc="http://creativecommons.org/ns#"
   xmlns:rdf="http://www.w3.org/1999/02/22-rdf-syntax-ns#"
   xmlns:svg="http://www.w3.org/2000/svg"
   xmlns="http://www.w3.org/2000/svg"
   xmlns:xlink="http://www.w3.org/1999/xlink"
   xmlns:sodipodi="http://sodipodi.sourceforge.net/DTD/sodipodi-0.dtd"
   xmlns:inkscape="http://www.inkscape.org/namespaces/inkscape"
   width="1052.36"
   height="82.559998"
   id="svg2"
   version="1.1"
   inkscape:version="0.48.2 r9819"
   sodipodi:docname="header.svg"
   inkscape:export-filename="header_yellow.png"
   inkscape:export-xdpi="120.03619"
   inkscape:export-ydpi="120.03619">
  <defs
     id="defs4">
    <linearGradient
       id="linearGradient3805">
      <stop
         style="stop-color:#fafa45;stop-opacity:1;"
         offset="0"
         id="stop3807" />
      <stop
         style="stop-color:#ffffff;stop-opacity:1;"
         offset="1"
         id="stop3809" />
    </linearGradient>
    <linearGradient
       id="linearGradient3967">
      <stop
         style="stop-color:#ecc2ee;stop-opacity:1;"
         offset="0"
         id="stop3969" />
      <stop
         style="stop-color:#ecc2ee;stop-opacity:0;"
         offset="1"
         id="stop3971" />
    </linearGradient>
    <linearGradient
       id="linearGradient3955">
      <stop
         style="stop-color:#8997a0;stop-opacity:1;"
         offset="0"
         id="stop3957" />
      <stop
         style="stop-color:#8a97a0;stop-opacity:0;"
         offset="1"
         id="stop3959" />
    </linearGradient>
    <linearGradient
       id="linearGradient3943">
      <stop
         style="stop-color:#a09c89;stop-opacity:1;"
         offset="0"
         id="stop3945" />
      <stop
         style="stop-color:#a09c89;stop-opacity:0;"
         offset="1"
         id="stop3947" />
    </linearGradient>
    <linearGradient
       id="linearGradient3832">
      <stop
         style="stop-color:#ae553f;stop-opacity:1;"
         offset="0"
         id="stop3834" />
      <stop
         style="stop-color:#ad553f;stop-opacity:0;"
         offset="1"
         id="stop3836" />
    </linearGradient>
    <linearGradient
       id="linearGradient3772">
      <stop
         style="stop-color:#000000;stop-opacity:1;"
         offset="0"
         id="stop3774" />
      <stop
         style="stop-color:#000000;stop-opacity:0;"
         offset="1"
         id="stop3776" />
    </linearGradient>
    <linearGradient
       id="linearGradient3763">
      <stop
         style="stop-color:#199200;stop-opacity:1;"
         offset="0"
         id="stop3765" />
      <stop
         style="stop-color:#ffffff;stop-opacity:0;"
         offset="1"
         id="stop3767" />
    </linearGradient>
    <linearGradient
       id="linearGradient3760">
      <stop
         style="stop-color:#1b1c3e;stop-opacity:1;"
         offset="0"
         id="stop3762" />
      <stop
         style="stop-color:#37376e;stop-opacity:1;"
         offset="1"
         id="stop3764" />
    </linearGradient>
    <clipPath
       id="clipPath3034"
       clipPathUnits="userSpaceOnUse">
      <path
         id="path3036"
         d="m 0,0 3310,0 0,264 L 0,264 0,0 z"
         inkscape:connector-curvature="0" />
    </clipPath>
    <clipPath
       id="clipPath3024"
       clipPathUnits="userSpaceOnUse">
      <path
         id="path3026"
         d="m 0,0 3310,0 0,264 L 0,264 0,0 z"
         inkscape:connector-curvature="0" />
    </clipPath>
    <linearGradient
       inkscape:collect="always"
       xlink:href="#linearGradient3760"
       id="linearGradient3766"
       x1="-3.3833658e-07"
       y1="361.50504"
       x2="1052.36"
       y2="361.50504"
       gradientUnits="userSpaceOnUse" />
    <linearGradient
       inkscape:collect="always"
       xlink:href="#linearGradient3760"
       id="linearGradient3771"
       x1="-98.214287"
       y1="-140.57144"
       x2="1081.0715"
       y2="-140.57144"
       gradientUnits="userSpaceOnUse"
       gradientTransform="matrix(0.89617023,0,0,0.9819714,85.776294,481.96817)" />
    <linearGradient
       inkscape:collect="always"
       xlink:href="#linearGradient3763"
       id="linearGradient3769"
       x1="-1.0101526"
       y1="85.123703"
       x2="1056.6196"
       y2="85.123703"
       gradientUnits="userSpaceOnUse"
       gradientTransform="matrix(0.99501746,0,0,0.3045998,1.0051194,359.28118)" />
    <linearGradient
       inkscape:collect="always"
       xlink:href="#linearGradient3763-0"
       id="linearGradient3769-2"
       x1="-1.0101526"
       y1="85.123703"
       x2="1056.6196"
       y2="85.123703"
       gradientUnits="userSpaceOnUse"
       gradientTransform="matrix(0.99501746,0,0,0.3045998,1.0051194,359.28118)" />
    <linearGradient
       id="linearGradient3763-0">
      <stop
         style="stop-color:#199200;stop-opacity:1;"
         offset="0"
         id="stop3765-2" />
      <stop
         style="stop-color:#199200;stop-opacity:0;"
         offset="1"
         id="stop3767-1" />
    </linearGradient>
    <linearGradient
       y2="85.123703"
       x2="1056.6196"
       y1="85.123703"
       x1="-1.0101526"
       gradientTransform="matrix(0.99501746,0,0,0.3045998,1.0051189,54.63131)"
       gradientUnits="userSpaceOnUse"
       id="linearGradient3809"
       xlink:href="#linearGradient3763-0"
       inkscape:collect="always" />
    <linearGradient
       inkscape:collect="always"
       xlink:href="#linearGradient3832"
       id="linearGradient3838"
       x1="0"
       y1="80.559998"
       x2="1052.36"
       y2="80.559998"
       gradientUnits="userSpaceOnUse" />
    <linearGradient
       inkscape:collect="always"
       xlink:href="#linearGradient3943"
       id="linearGradient3949"
       x1="0"
       y1="80.559998"
       x2="1052.36"
       y2="80.559998"
       gradientUnits="userSpaceOnUse" />
    <linearGradient
       inkscape:collect="always"
       xlink:href="#linearGradient3955"
       id="linearGradient3961"
       x1="0"
       y1="80.559998"
       x2="1052.36"
       y2="80.559998"
       gradientUnits="userSpaceOnUse" />
    <linearGradient
       inkscape:collect="always"
       xlink:href="#linearGradient3967"
       id="linearGradient3973"
       x1="0"
       y1="80.559998"
       x2="1052.36"
       y2="80.559998"
       gradientUnits="userSpaceOnUse" />
    <linearGradient
       y2="85.123703"
       x2="1056.6196"
       y1="85.123703"
       x1="-1.0101526"
       gradientTransform="matrix(0.99501746,0,0,0.3045998,1.0051189,54.63131)"
       gradientUnits="userSpaceOnUse"
       id="linearGradient3809-8"
       xlink:href="#linearGradient3763-0-4"
       inkscape:collect="always" />
    <linearGradient
       id="linearGradient3763-0-4">
      <stop
         style="stop-color:#199200;stop-opacity:1;"
         offset="0"
         id="stop3765-2-3" />
      <stop
         style="stop-color:#199200;stop-opacity:0;"
         offset="1"
         id="stop3767-1-1" />
    </linearGradient>
    <linearGradient
       inkscape:collect="always"
       xlink:href="#linearGradient3805"
       id="linearGradient3811"
       x1="0"
       y1="80.559998"
       x2="1052.36"
       y2="80.559998"
       gradientUnits="userSpaceOnUse" />
  </defs>
  <sodipodi:namedview
     id="base"
     pagecolor="#ffffff"
     bordercolor="#666666"
     borderopacity="1.0"
     inkscape:pageopacity="0.0"
     inkscape:pageshadow="2"
     inkscape:zoom="0.7"
     inkscape:cx="502.88347"
     inkscape:cy="-109.32708"
     inkscape:document-units="px"
     inkscape:current-layer="layer3"
     showgrid="false"
     inkscape:window-width="1218"
     inkscape:window-height="730"
     inkscape:window-x="0"
     inkscape:window-y="0"
     inkscape:window-maximized="0"
     fit-margin-top="0"
     fit-margin-left="0"
     fit-margin-right="0"
     fit-margin-bottom="0" />
  <metadata
     id="metadata7">
    <rdf:RDF>
      <cc:Work
         rdf:about="">
        <dc:format>image/svg+xml</dc:format>
        <dc:type
           rdf:resource="http://purl.org/dc/dcmitype/StillImage" />
        <dc:title></dc:title>
      </cc:Work>
    </rdf:RDF>
  </metadata>
  <g
     inkscape:label="basic"
     inkscape:groupmode="layer"
     id="layer1"
     transform="translate(3.3833658e-7,-304.64987)"
     style="display:inline"
     sodipodi:insensitive="true">
    <rect
       style="fill:url(#linearGradient3771);fill-opacity:1;stroke:none"
       id="rect2995"
       width="1052.36"
       height="78.557709"
       x="-3.3833658e-07"
       y="304.65216" />
    <path
       style="fill:#ffffff;fill-opacity:1;display:inline"
       d="m 970.93064,310.62249 -0.0224,2.3738 c -0.01,1.30636 -0.0216,11.57151 -0.028,22.81421 -0.0116,20.2559 -0.009,20.45109 0.10078,21.17382 0.18565,1.22162 0.50187,2.57526 0.85658,3.67828 0.21724,0.67553 0.3065,0.92952 0.57106,1.60678 0.22778,0.58311 0.97018,2.13564 1.30446,2.7265 0.0617,0.10912 0.14416,0.25278 0.18476,0.32473 0.39706,0.70358 1.48908,2.27186 2.21704,3.17999 0.55669,0.69448 2.03584,2.19162 2.77129,2.80488 0.163,0.13593 0.38476,0.32149 0.49268,0.4143 0.70929,0.60987 2.73588,1.9987 2.91685,1.9987 0.0271,0 0.0504,0.0258 0.0504,0.056 0,0.0302 0.0227,0.056 0.0504,0.056 0.0277,0 0.232,0.10421 0.45348,0.23512 0.49911,0.29505 1.48167,0.77089 2.29542,1.10854 0.19633,0.0815 0.43565,0.17944 0.52626,0.21833 0.0906,0.0389 0.247,0.10316 0.35271,0.13997 0.10572,0.0368 0.24192,0.0874 0.30233,0.11198 0.17278,0.0703 1.28115,0.4185 1.71877,0.54305 1.27028,0.36154 3.24014,0.68273 4.73639,0.767 1.16627,0.0657 1.89655,0.0666 2.88326,0.006 0.92448,-0.0571 2.19176,-0.18671 2.60894,-0.26873 0.13592,-0.0267 0.38254,-0.0742 0.54866,-0.10637 0.76691,-0.14873 2.46504,-0.57435 2.66494,-0.66623 0.06,-0.0277 0.3788,-0.14123 0.711,-0.25193 0.3323,-0.1107 0.7118,-0.24488 0.8398,-0.30234 0.128,-0.0575 0.2447,-0.10636 0.2631,-0.10636 0.075,0 1.3423,-0.59001 1.8644,-0.86777 0.242,-0.12876 0.5471,-0.28515 0.683,-0.35272 0.1359,-0.0676 0.2586,-0.14532 0.2687,-0.16796 0.01,-0.0226 0.036,-0.0392 0.062,-0.0392 0.08,0 1.5074,-0.89573 1.9259,-1.20929 0.1057,-0.0792 0.3395,-0.25327 0.5207,-0.38632 1.0645,-0.78147 2.9096,-2.5131 3.7343,-3.50471 0.2108,-0.25348 0.4109,-0.49279 0.4422,-0.52626 0.1928,-0.20596 0.8326,-1.05321 1.1813,-1.5676 0.2283,-0.33672 0.767,-1.16642 0.767,-1.1813 0,-0.01 0.1034,-0.20262 0.2352,-0.42548 0.3486,-0.58975 1.0903,-2.11388 1.3828,-2.84408 0.5932,-1.48071 1.1532,-3.42334 1.3437,-4.66363 0.035,-0.22654 0.086,-0.5118 0.112,-0.63264 0.047,-0.21361 0.1084,-0.79782 0.2183,-2.02667 0.034,-0.37809 0.056,-8.67048 0.056,-22.42231 l 0,-21.81767 -23.58681,0 -23.58121,0 z m 17.21563,3.72867 c 1.78234,-0.008 5.32445,0.0175 5.43622,0.0504 0.29326,0.0862 0.40141,0.16912 0.51507,0.3919 0.10391,0.2037 0.11202,0.32468 0.11197,2.15546 -3e-5,1.06592 -0.0192,3.17942 -0.0392,4.6972 -0.02,1.51778 -0.0495,2.7545 -0.0672,2.7545 -0.0177,-9.5e-4 -0.0924,-0.0818 -0.16796,-0.18476 -0.25156,-0.34304 -0.11696,-0.32938 -3.61109,-0.34709 l -3.19678,-0.0168 -0.006,-0.17916 c -0.009,-1.16932 0.0104,-9.28722 0.0224,-9.29923 0.0107,-0.0107 0.40803,-0.0197 1.00214,-0.0224 z m 10.37976,0.056 c 1.71847,-0.002 3.19207,-0.002 3.27517,0 l 0.1512,0 0,4.7532 0,4.7476 -3.23602,0 c -2.74774,0 -3.25348,0.0149 -3.38714,0.084 -0.0865,0.0447 -0.22567,0.15877 -0.30792,0.25756 l -0.15116,0.18474 0,-4.67482 c -0.002,-4.91587 -0.007,-4.8381 0.22954,-5.13389 0.16409,-0.2055 0.23961,-0.21349 3.42633,-0.21835 z m -13.21264,1.10293 0.43669,0 0.44228,0 0,4.69161 0,4.69721 3.69507,0 3.68945,0 0.12318,0.26313 c 0.16045,0.34947 0.37639,0.47409 0.81739,0.47588 0.29678,9.5e-4 0.36903,-0.0188 0.55426,-0.16797 0.11607,-0.0935 0.23426,-0.25544 0.26873,-0.35831 l 0.0672,-0.18474 0.8118,0 c 0.4488,0 2.13163,-0.009 3.73985,-0.0168 l 2.92801,-0.0112 0.011,-4.67482 0.017,-4.66922 0.4255,-0.0112 0.4255,-0.0112 0,5.12269 0,5.1227 -0.3695,0 c -0.2039,0.002 -1.9628,0 -3.90219,0 l -3.52151,0 -0.12877,0.16796 c -0.1387,0.18761 -0.4075,0.37008 -0.69982,0.47589 -0.31273,0.11321 -0.82379,0.13012 -1.14771,0.0392 -0.33733,-0.0947 -0.43573,-0.15507 -0.7838,-0.49267 l -0.25193,-0.24634 -3.81264,-0.0112 -3.80703,-0.0168 -0.0168,-5.09469 -0.0112,-5.08911 z m 26.68841,15.97275 0,0.33031 0,0.32472 1.3045,0.43108 c 1.4451,0.47897 1.3648,0.42536 1.2933,0.91258 l -0.028,0.20154 -3.0961,0 -3.096,0 -0.034,-0.12317 c -0.041,-0.16277 0,-0.5223 0.062,-0.58225 0.028,-0.0258 0.1995,-0.0901 0.3807,-0.13997 0.1813,-0.0498 0.3819,-0.11666 0.4423,-0.14554 0.095,-0.0456 0.7004,-0.23515 1.4277,-0.4535 0.2194,-0.0659 0.2189,-0.0705 0.2463,-0.39749 l 0.028,-0.32473 0.5319,-0.0168 0.5374,-0.0168 z m -17.62992,0.12876 c 0.13423,-0.0221 0.32804,0.0217 1.34927,0.31352 0.23334,0.0667 0.37106,0.10783 1.18129,0.33031 0.34736,0.0954 0.78902,0.2172 0.98535,0.27434 0.69974,0.20361 1.34791,0.38452 1.38845,0.38631 0.0226,6.3e-4 0.0392,0.16195 0.0392,0.35831 l 0,0.35831 -4.84837,0 c -2.66806,-2e-5 -4.86742,-0.0191 -4.88756,-0.0392 -0.0532,-0.0532 -0.0466,-0.43022 0.0112,-0.58225 0.0387,-0.10175 0.12554,-0.14779 0.3975,-0.21836 0.19171,-0.0497 0.57355,-0.15275 0.84538,-0.22953 0.43061,-0.12163 0.99067,-0.27549 2.03229,-0.55427 0.15102,-0.0404 0.52094,-0.14162 0.82299,-0.22394 0.30204,-0.0823 0.60751,-0.16101 0.68303,-0.17355 z m -16.8797,0.26313 c 0.0397,0 0.52159,0.15048 1.07492,0.33591 0.55333,0.18544 1.07949,0.35686 1.17011,0.3807 0.0906,0.0239 0.32433,0.0979 0.52066,0.16798 l 0.35831,0.12876 0.0168,0.34152 0.0168,0.34709 -0.89577,0 c -0.49227,6e-5 -1.86935,0.0138 -3.06243,0.0336 -2.48542,0.0412 -2.32309,0.077 -2.29541,-0.44788 l 0.0168,-0.31913 0.30232,-0.10078 c 0.16612,-0.0565 0.49737,-0.16246 0.73901,-0.23514 0.24164,-0.0727 0.78491,-0.24827 1.2037,-0.38631 0.41879,-0.13802 0.79446,-0.24633 0.83419,-0.24633 z m 16.9077,0.19036 c -0.18279,0.0194 -0.34962,0.13482 -0.3863,0.33031 -0.0403,0.21454 0.0116,0.41037 0.13436,0.50387 0.15321,0.1167 0.55336,0.0862 0.67183,-0.0504 0.15997,-0.18443 0.18239,-0.35141 0.0672,-0.54867 -0.10537,-0.18043 -0.30429,-0.25453 -0.48707,-0.23513 z m -14.70187,2.14425 0.48148,0 0.0168,3.68945 c 0.009,2.03126 0.009,3.69506 0,3.69506 -0.009,-6.3e-4 -0.23832,-0.15073 -0.50387,-0.3303 l -0.48148,-0.32472 -0.64383,-0.0168 -0.63824,-0.0168 -0.0168,-0.49267 c -0.0156,-0.54403 -0.068,-0.69798 -0.26873,-0.78941 -0.20242,-0.0922 -0.3286,-0.0729 -0.49828,0.0728 -0.14359,0.12334 -0.15356,0.16586 -0.17915,0.64383 l -0.028,0.51507 -0.63264,0.028 -0.63264,0.0224 -0.46468,0.31912 -0.46468,0.31353 -0.0336,-1.08615 c -0.0186,-0.59624 -0.0407,-2.23819 -0.0448,-3.65027 l -0.006,-2.56413 2.27862,-0.0168 c 1.25349,-0.007 2.49581,-0.0112 2.7601,-0.0112 z m 1.15331,0 1.9707,0.006 c 1.08369,0.004 3.05065,0.007 4.37249,0.0112 l 2.40179,0.006 -0.0112,3.67828 -0.0168,3.67826 -2.52496,0.0168 c -1.38941,0.009 -3.35962,0.008 -4.37809,0 l -1.85313,-0.0113 0.0168,-3.69506 0.0224,-3.68946 z m 9.34963,0.028 4.22693,0 4.22692,0 -0.006,2.45215 c -0.004,1.35168 -0.0205,3.02148 -0.0392,3.70629 l -0.0336,1.24287 -0.21835,-0.0952 c -0.12081,-0.0542 -0.46131,-0.20799 -0.75581,-0.33591 l -0.53746,-0.22953 0,-0.52068 c 0,-0.477 -0.0103,-0.52535 -0.13437,-0.64943 -0.18829,-0.18829 -0.50957,-0.19059 -0.68862,0 -0.1143,0.12166 -0.1368,0.20432 -0.15676,0.66063 l -0.0224,0.52626 -0.58225,-0.0168 -0.58225,-0.0168 -0.0168,-0.54306 c -0.0185,-0.63434 -0.0941,-0.74139 -0.49268,-0.74462 -0.34626,-0.003 -0.44914,0.17314 -0.44788,0.7558 6.3e-4,0.24625 -0.0137,0.47741 -0.0336,0.50948 -0.0332,0.0539 -0.9606,0.0681 -1.09731,0.0168 -0.0321,-0.012 -0.0529,-0.20939 -0.0448,-0.47028 0.0126,-0.40616 0.004,-0.46573 -0.12317,-0.63265 -0.12578,-0.1649 -0.16967,-0.17915 -0.41429,-0.17915 -0.24861,0 -0.28146,0.0108 -0.3807,0.17354 -0.0863,0.14154 -0.10621,0.27804 -0.10638,0.65505 l 0,0.47589 -0.42549,0.17916 c -0.23409,0.0967 -0.55715,0.2301 -0.71662,0.3023 -0.15947,0.0722 -0.31779,0.13437 -0.34711,0.13437 -0.0339,1e-5 -0.0504,-1.33682 -0.0504,-3.67826 l 0,-3.67826 z m 14.25955,0.0392 c 1.7599,-6.3e-4 3.4458,0.011 3.5047,0.0336 0.07,0.0269 0.084,0.49886 0.084,3.5383 0,1.93027 -0.015,3.58947 -0.034,3.68386 l -0.034,0.17356 -3.4431,-0.0168 c -1.8915,-0.007 -3.8693,-0.0189 -4.3949,-0.028 l -0.95174,-0.0168 0.0336,-1.19251 c 0.0194,-0.65619 0.0332,-2.29201 0.0336,-3.63906 l 0,-2.45219 0.12317,-0.056 c 0.0762,-0.034 0.20698,-0.0311 0.35271,0 0.12767,0.0272 0.48916,0.0324 0.80056,0.0112 0.3343,-0.0228 2.1648,-0.0384 3.9246,-0.0392 z m 4.2214,0.0392 2.7713,0.0168 2.7713,0.0112 0.01,2.48577 c 9e-4,1.36702 -0.012,3.01619 -0.028,3.66706 l -0.028,1.1869 -0.4927,-0.31911 -0.4983,-0.31911 -0.6438,0 -0.6495,0 0,-0.54307 c 0,-0.50613 0,-0.54394 -0.1343,-0.66622 -0.1918,-0.18007 -0.4803,-0.17481 -0.6663,0.0112 -0.1294,0.1294 -0.143,0.18095 -0.1511,0.65504 l -0.01,0.51507 -0.6495,0.0168 -0.6438,0.0113 -0.4199,0.27433 c -0.2299,0.15005 -0.4364,0.27432 -0.4591,0.27432 -0.067,0 -0.078,-0.7784 -0.078,-4.12056 l 0,-3.1576 z m -32.75733,0.57666 c -0.23237,0 -0.33031,0.17574 -0.33031,0.58226 0,0.18458 0.0177,0.35363 0.0392,0.37511 0.0215,0.0211 0.16134,0.0313 0.31352,0.0224 l 0.27433,-0.0168 0.0168,-0.34711 c 0.0202,-0.42713 -0.0725,-0.61587 -0.31352,-0.61587 z m 1.53401,0 c -0.22484,0 -0.33031,0.19822 -0.33031,0.63263 l 0,0.36392 0.31912,-0.0168 0.31352,-0.0168 0.0168,-0.3807 c 0.0187,-0.43023 -0.0642,-0.58225 -0.31912,-0.58225 z m 1.53401,0 c -0.21118,0 -0.32471,0.22517 -0.32471,0.65503 l 0,0.33591 0.33031,0 0.33032,0 0,-0.39749 c 0,-0.44823 -0.0822,-0.59345 -0.33592,-0.59345 z m 3.45432,0 c -0.23608,0 -0.31911,0.15204 -0.31911,0.58784 l 0,0.4031 0.30232,0 0.30232,0 0,-0.37509 c 0,-0.41315 -0.0931,-0.61585 -0.28553,-0.61585 z m 1.84754,0 c -0.20531,0 -0.31112,0.18443 -0.33032,0.55986 -0.01,0.18774 -0.004,0.36168 0.0112,0.38629 0.0152,0.0247 0.16038,0.0448 0.32472,0.0448 l 0.29672,0 0,-0.39749 c 0,-0.43084 -0.0835,-0.59345 -0.30232,-0.59345 z m 1.84753,0 c -0.17836,-0.009 -0.27993,0.20472 -0.27993,0.61585 l 0,0.3751 0.30233,0 0.30232,0 0,-0.40869 c 0,-0.36016 -0.0157,-0.42297 -0.12317,-0.49827 -0.0761,-0.0533 -0.1421,-0.0809 -0.20155,-0.084 z m 1.88112,0.006 c -0.0524,0.004 -0.10141,0.0392 -0.17356,0.10638 -0.1014,0.0945 -0.12316,0.17015 -0.12316,0.49267 l 0,0.3863 0.30232,0 0.30232,0 0,-0.40869 c 0,-0.36015 -0.01,-0.42296 -0.11757,-0.49826 -0.0801,-0.0561 -0.13794,-0.0822 -0.19035,-0.0784 z m 3.67267,0.0224 c -0.0172,0.006 -0.0362,0.0186 -0.056,0.0336 -0.19384,0.1463 -0.22954,0.24179 -0.22954,0.58225 l 0,0.34709 0.33032,0 0.32471,0 0,-0.3807 c 0,-0.36126 -0.004,-0.38561 -0.16235,-0.49826 -0.10537,-0.075 -0.15555,-0.10246 -0.20715,-0.084 z m 3.67267,0.028 c -0.0649,0.003 -0.13536,0.0298 -0.21275,0.084 -0.1062,0.0744 -0.12317,0.13852 -0.12317,0.47028 l 0,0.3807 0.33031,0 0.33032,0 0,-0.34709 c 0,-0.37949 -0.13017,-0.59589 -0.32471,-0.58786 z m -1.81954,0.006 c -0.075,-3.2e-4 -0.14816,0.0362 -0.21835,0.10636 -0.0873,0.0873 -0.11197,0.18093 -0.11197,0.46467 l 0,0.35832 0.32472,0 0.31912,0 0.0112,-0.35832 c 0.008,-0.29202 -0.009,-0.37287 -0.10078,-0.46467 -0.0708,-0.0708 -0.14889,-0.10606 -0.22394,-0.10636 z m 3.58309,0.0112 c -0.19758,-0.002 -0.25894,0.20053 -0.24074,0.73901 l 0.0112,0.24075 0.28553,-0.0168 0.29112,-0.0168 0.0112,-0.35831 c 0.0146,-0.39124 -0.044,-0.52175 -0.26314,-0.57664 -0.0339,-0.009 -0.0669,-0.0109 -0.0952,-0.0112 z m 3.72301,0 c -0.025,9.5e-4 -0.051,0.008 -0.078,0.0168 -0.1922,0.061 -0.2501,0.19327 -0.2519,0.58225 l 0,0.37512 0.3247,0 0.3303,0 -0.028,-0.4031 c -0.025,-0.38908 -0.1238,-0.57742 -0.2967,-0.57108 z m 1.8644,0.0224 c -0.035,0.004 -0.076,0.0138 -0.1176,0.028 -0.1694,0.0588 -0.2061,0.17519 -0.2071,0.60464 l 0,0.30792 0.2575,0.0224 c 0.373,0.0287 0.3673,0.0336 0.3863,-0.26313 0.032,-0.49255 -0.072,-0.72599 -0.3191,-0.69983 z m 1.8139,0.0168 c -0.063,0.006 -0.121,0.029 -0.1512,0.0672 -0.1143,0.14471 -0.1745,0.65309 -0.1007,0.8454 0.02,0.0522 0.1221,0.0728 0.3303,0.0728 l 0.3079,0 0,-0.3919 c 0,-0.28939 -0.028,-0.41888 -0.095,-0.49268 -0.065,-0.0719 -0.1862,-0.11007 -0.2911,-0.10077 z m 1.9651,0 c -0.088,0 -0.2002,0.0379 -0.2463,0.084 -0.089,0.0892 -0.164,0.67276 -0.1064,0.82298 0.027,0.0696 0.099,0.0803 0.3247,0.0672 l 0.2855,-0.0168 0.017,-0.35272 c 0.021,-0.43878 -0.053,-0.60465 -0.2743,-0.60465 z m 3.4207,0 c -0.2533,0 -0.3366,0.14746 -0.3247,0.59345 l 0.011,0.3919 0.2856,0 c 0.3285,0 0.3499,-0.0335 0.3303,-0.52627 -0.013,-0.33025 -0.095,-0.45908 -0.3024,-0.45908 z m 1.5564,0 c -0.2383,0 -0.319,0.13743 -0.3415,0.58225 l -0.022,0.4031 0.3359,0 c 0.3271,0 0.3378,-0.004 0.3472,-0.15117 0.034,-0.53531 -0.082,-0.83418 -0.3192,-0.83418 z m 1.5509,0 c -0.2559,0 -0.3356,0.11987 -0.3584,0.57105 l -0.017,0.41989 0.3472,-0.0168 0.3471,-0.0168 0.017,-0.33592 c 0.015,-0.38161 -0.1157,-0.62145 -0.336,-0.62145 z m -37.11302,2.21144 c -0.0596,6.3e-4 -0.1211,0.0357 -0.19036,0.10076 -0.11961,0.11238 -0.12876,0.16427 -0.12876,0.57667 l 0,0.45907 0.29672,0 c 0.33959,0 0.34064,10e-4 0.35831,-0.48148 0.0139,-0.3791 -0.0721,-0.57963 -0.27433,-0.64384 -0.0202,-0.006 -0.0417,-0.0115 -0.0616,-0.0112 z m 1.5508,0.0224 c -0.0602,0.005 -0.13559,0.0309 -0.19595,0.0784 -0.12782,0.10055 -0.13996,0.14223 -0.13996,0.57107 l 0,0.46467 0.33031,0 0.33032,0 0,-0.42549 c 0,-0.45565 -0.0727,-0.63589 -0.27433,-0.68862 -0.0162,-0.004 -0.0303,-0.002 -0.0504,0 z m 1.51162,0 c -0.0234,0.004 -0.0479,0.0108 -0.0784,0.0224 -0.2084,0.0792 -0.22865,0.13368 -0.22954,0.63821 l 0,0.45349 0.33031,0 0.33032,0 0,-0.44227 c 0,-0.40475 -0.0156,-0.45061 -0.14557,-0.57108 -0.0893,-0.0828 -0.13715,-0.1117 -0.20714,-0.10075 z m 3.39833,0.0224 c -0.0541,0.006 -0.11137,0.0313 -0.16795,0.0728 -0.0838,0.0613 -0.1064,0.16069 -0.12317,0.49267 -0.0116,0.22936 -0.006,0.45282 0.0112,0.49827 0.0386,0.10056 0.55562,0.11981 0.61584,0.0224 0.0215,-0.0347 0.0411,-0.23901 0.0448,-0.45347 0.006,-0.33485 -0.0125,-0.40896 -0.11757,-0.51508 -0.0878,-0.0886 -0.17294,-0.12761 -0.26313,-0.11756 z m 1.90912,0.0168 c -0.10309,-10e-4 -0.20569,0.0442 -0.27433,0.13437 -0.0704,0.0925 -0.0984,0.89248 -0.0336,0.95734 0.0201,0.0202 0.16922,0.0392 0.33031,0.0392 l 0.29113,0 0,-0.49268 c 0,-0.46263 -0.008,-0.49947 -0.13437,-0.58224 -0.0563,-0.0369 -0.11729,-0.0552 -0.17915,-0.056 z m 1.84753,0.0168 c -0.0945,-0.002 -0.18516,0.0203 -0.21834,0.0728 -0.0271,0.0428 -0.05,0.29558 -0.0504,0.55986 l 0,0.48148 0.30233,0 0.30232,0 0,-0.47028 c 0,-0.35768 -0.023,-0.49328 -0.0896,-0.55986 -0.0543,-0.0543 -0.15181,-0.082 -0.24634,-0.084 z m 5.57618,0.0168 c -0.0981,6.3e-4 -0.19323,0.0234 -0.22954,0.0672 -0.0527,0.0635 -0.0841,0.41861 -0.0728,0.85098 l 0.006,0.17916 0.30232,0 0.30232,0 0,-0.48148 c 0,-0.30267 -0.0259,-0.50739 -0.0672,-0.54866 -0.0433,-0.0433 -0.14265,-0.0678 -0.24074,-0.0672 z m 1.81395,0 c -0.25159,0 -0.30233,0.10912 -0.30233,0.65502 l 0,0.4423 0.30233,0 0.30232,0 0,-0.4423 c 0,-0.5459 -0.0507,-0.65502 -0.30232,-0.65502 z m 1.82513,0 c -0.24926,0 -0.31153,0.12646 -0.31352,0.64384 l 0,0.45348 0.30232,0 0.30233,0 0.0112,-0.31352 c 0.0212,-0.66565 -0.0268,-0.7838 -0.30232,-0.7838 z m 1.80275,0 c -0.21523,0 -0.30233,0.19226 -0.30233,0.67182 l 0,0.4255 0.30233,0 0.30232,0 0,-0.46469 c 0,-0.5052 -0.0616,-0.63263 -0.30232,-0.63263 z m 3.67831,0 c -0.2243,0 -0.3118,0.17455 -0.3304,0.65502 l -0.017,0.4423 0.3248,0 0.3247,0 0,-0.44789 c 0,-0.48864 -0.075,-0.64943 -0.3024,-0.64943 z m 1.8643,0 c -0.2006,0.021 -0.3526,0.31233 -0.3527,0.75021 l 0,0.34152 0.3135,0.0168 0.3191,0.0168 0.011,-0.48707 c 0.014,-0.41444 0,-0.50083 -0.078,-0.56547 -0.074,-0.0572 -0.1459,-0.0798 -0.2127,-0.0728 z m -14.59552,0.006 c -0.0293,-6.4e-4 -0.0641,0.002 -0.10077,0.006 -0.24196,0.0234 -0.31805,0.18764 -0.31912,0.68862 l 0,0.3975 0.33032,0 0.32471,0 0,-0.48708 c 0,-0.48107 -0.0298,-0.60094 -0.23514,-0.60465 z m 16.48222,0 c -0.064,0.004 -0.1309,0.0406 -0.2015,0.10638 -0.1054,0.0982 -0.1176,0.16936 -0.1176,0.57666 l 0,0.46467 0.3023,0 c 0.2761,0 0.304,-0.0127 0.3359,-0.13997 0.019,-0.0763 0.024,-0.29738 0.011,-0.49268 -0.017,-0.27041 -0.047,-0.37489 -0.1287,-0.43666 -0.074,-0.0559 -0.138,-0.0828 -0.2016,-0.0784 z m 1.8643,0 c -0.069,0.005 -0.1332,0.0532 -0.2015,0.13997 -0.093,0.11853 -0.112,0.22285 -0.112,0.57664 l 0,0.4311 0.3247,0 0.3303,0 0,-0.46467 c 0,-0.4073 -0.012,-0.4785 -0.1175,-0.57666 -0.081,-0.0753 -0.155,-0.11169 -0.224,-0.10638 z m 6.5448,0.028 c -0.067,0.003 -0.139,0.0398 -0.2296,0.11758 -0.077,0.0661 -0.095,0.17215 -0.095,0.53186 0,0.24702 0.01,0.46334 0.022,0.47589 0.013,0.0127 0.1525,0.0186 0.3135,0.0168 l 0.2968,0 0.011,-0.4535 c 0.015,-0.41788 0.01,-0.46139 -0.1176,-0.58784 -0.072,-0.0716 -0.1344,-0.10335 -0.2016,-0.10077 z m -3.0681,0.0224 c -0.2945,0 -0.3563,0.10459 -0.3583,0.61026 l 0,0.45906 0.3024,0.028 0.3023,0.028 0.011,-0.48708 c 0.018,-0.5363 -0.023,-0.63824 -0.2576,-0.63824 z m 1.5229,0 c -0.2509,0.002 -0.2883,0.0756 -0.308,0.61584 l -0.022,0.50949 0.2688,-0.006 c 0.1461,-9.5e-4 0.2982,-0.0215 0.3359,-0.0448 0.045,-0.0277 0.067,-0.18043 0.067,-0.44789 0,-0.44893 -0.097,-0.62883 -0.3415,-0.62704 z m -35.53982,2.19465 c -0.23059,0 -0.30792,0.15482 -0.30792,0.58786 l 0,0.40309 0.30232,0 0.30232,0 0,-0.39751 c 0,-0.4254 -0.0875,-0.59344 -0.29672,-0.59344 z m 3.10721,0.0168 c -0.0609,-0.002 -0.12815,0.0191 -0.20155,0.0672 -0.12888,0.0845 -0.13996,0.12435 -0.13996,0.49828 l 0,0.40871 0.33031,0 0.33592,0 -0.0112,-0.34713 c -0.011,-0.39527 -0.13073,-0.62025 -0.31352,-0.62704 z m 3.35915,0.0392 c -0.21892,0 -0.29673,0.19332 -0.29673,0.75021 0,0.43763 0.012,0.50437 0.0952,0.52067 0.08,0.0156 0.41113,0.012 0.50947,-0.006 0.0151,-0.003 0.0202,-0.25582 0.0112,-0.56546 -0.0176,-0.60284 -0.0608,-0.69982 -0.31912,-0.69982 z m 1.92591,0 c -0.27506,0 -0.35271,0.1672 -0.35271,0.73342 0,0.28188 0.0177,0.52718 0.0392,0.54865 0.0215,0.0211 0.16133,0.0313 0.31352,0.0223 l 0.27433,-0.0168 0.0168,-0.51507 c 0.018,-0.58292 -0.0541,-0.7726 -0.29113,-0.7726 z m 1.84753,0 c -0.063,-0.003 -0.12573,0.0213 -0.18476,0.0672 -0.068,0.0528 -0.0891,0.19904 -0.10637,0.63263 -0.0123,0.30985 -0.0148,0.57299 0,0.58786 0.0148,0.0148 0.16363,0.028 0.32472,0.028 l 0.29113,0 0,-0.57108 c 0,-0.5304 -0.0103,-0.58157 -0.12317,-0.66062 -0.0738,-0.0517 -0.1386,-0.0812 -0.20155,-0.084 z m 1.87552,0.0224 c -0.1031,-0.001 -0.20569,0.0442 -0.27433,0.13436 -0.0419,0.0551 -0.0661,0.29247 -0.0672,0.62704 l 0,0.53188 0.33032,0 0.32471,0 0,-0.57667 c 0,-0.55006 -0.006,-0.57632 -0.13436,-0.66063 -0.0563,-0.0369 -0.1173,-0.0552 -0.17916,-0.056 z m 12.7984,0.0336 c -0.083,0.002 -0.1667,0.0378 -0.2352,0.10637 -0.094,0.0942 -0.112,0.18211 -0.112,0.62145 0,0.28192 0.019,0.52852 0.039,0.54866 0.02,0.0202 0.1693,0.0392 0.3304,0.0392 l 0.2911,0 0,-0.55986 c 0,-0.44269 -0.018,-0.58101 -0.09,-0.66061 -0.06,-0.0659 -0.1414,-0.0969 -0.224,-0.0952 z m 3.7286,0 c -0.066,0.006 -0.1271,0.0374 -0.1847,0.0896 -0.085,0.0769 -0.1008,0.18 -0.1008,0.66064 l 0,0.56544 0.3023,0 0.3023,0 0,-0.60464 c 0,-0.53911 -0.011,-0.60414 -0.1063,-0.65503 -0.076,-0.0407 -0.1469,-0.0616 -0.2128,-0.056 z m 1.9539,0.006 c -0.029,-10e-4 -0.06,0.001 -0.095,0.006 -0.205,0.0242 -0.2734,0.22142 -0.2743,0.795 l 0,0.50946 0.3247,0 c 0.1794,0 0.3337,-0.0165 0.3471,-0.0392 0.014,-0.0226 0.01,-0.28502 -0.011,-0.58225 -0.034,-0.51649 -0.09,-0.67839 -0.2911,-0.68862 z m 3.3815,0 c -0.065,0.004 -0.1309,0.047 -0.2127,0.12876 -0.1125,0.11255 -0.1344,0.18394 -0.1344,0.45349 0,0.17754 0.014,0.34376 0.034,0.3639 0.02,0.0202 0.1693,0.0336 0.3304,0.0336 l 0.2911,0 0,-0.38631 c 0,-0.31121 -0.018,-0.40374 -0.1064,-0.49267 -0.072,-0.0725 -0.1365,-0.10468 -0.2015,-0.10076 z m -7.2221,0.006 c -0.1104,0.009 -0.2085,0.0716 -0.2576,0.17916 -0.068,0.149 -0.091,1.02362 -0.028,1.08612 0.02,0.0202 0.1693,0.0392 0.3304,0.0392 l 0.2911,0 0,-0.59343 c 0,-0.57321 -7e-4,-0.5976 -0.1288,-0.66624 -0.067,-0.036 -0.1409,-0.0504 -0.2071,-0.0448 z m 10.3014,0 c -0.051,0.006 -0.1063,0.0304 -0.1624,0.0672 -0.1231,0.0807 -0.1344,0.12016 -0.1344,0.49827 l 0,0.41431 0.3136,-0.0168 0.3191,-0.0168 0.017,-0.31911 c 0.021,-0.40204 -0.1336,-0.65314 -0.3527,-0.62704 z m -37.30896,1.85314 1.78035,0 1.78595,0 0.49827,0.3415 0.49268,0.34151 -0.0168,0.49828 -0.0112,0.49268 -2.7601,0.0168 -2.7601,0.0113 0,-0.54307 c 0,-0.49721 0.007,-0.5506 0.10637,-0.58226 0.0602,-0.0191 0.14122,-0.0631 0.17916,-0.10077 0.0379,-0.0377 0.21204,-0.16301 0.3863,-0.27432 l 0.31912,-0.20155 z m 21.55453,0.084 0.40869,0.19594 c 0.22654,0.10821 0.54125,0.2542 0.69983,0.32474 l 0.29112,0.12875 0,0.50947 c 0,0.46697 -0.0124,0.50966 -0.11757,0.54307 -0.063,0.0199 -1.10467,0.0272 -2.31781,0.0168 -1.21314,-0.0104 -3.05246,-0.0257 -4.08696,-0.0336 l -1.88112,-0.0113 0,-0.52625 0,-0.52067 0.20714,-0.0896 c 0.11327,-0.0467 0.36353,-0.15556 0.55986,-0.24633 0.19633,-0.0908 0.40987,-0.18384 0.47028,-0.20716 0.0604,-0.0233 1.37813,-0.0507 2.93365,-0.0616 l 2.83289,-0.0224 z m 12.42883,0.028 1.7692,0 c 1.5788,0 1.7822,0.009 1.9371,0.0952 0.095,0.0529 0.1864,0.11012 0.2015,0.12877 0.015,0.0186 0.1679,0.12446 0.3415,0.23512 l 0.3136,0.20155 0,0.52068 0,0.52068 -2.7601,0 c -1.5203,0 -2.7848,-0.0191 -2.8049,-0.0392 -0.02,-0.0202 -0.034,-0.25455 -0.034,-0.52066 0,-0.44239 0.01,-0.48959 0.1231,-0.55986 0.068,-0.0423 0.3033,-0.19067 0.5207,-0.33033 l 0.3919,-0.25192 z m -28.82147,0.54305 3.44313,0.0168 c 1.89533,0.008 3.87209,0.0187 4.38928,0.028 l 0.93496,0.0168 0.0112,0.46467 c 0.006,0.29122 -0.0112,0.47404 -0.0504,0.49828 -0.0636,0.0393 -5.55355,0.0676 -7.59167,0.0392 l -1.13651,-0.0168 0,-0.52628 0,-0.52066 z m 18.41932,0.084 1.92595,0.006 c 1.0571,0.003 3.0264,0.0121 4.3781,0.0168 l 2.4577,0.006 0,0.52627 0,0.52068 -4.3669,0 c -3.5894,0 -4.37175,-0.0127 -4.39485,-0.0728 -0.0155,-0.0403 -0.02,-0.28324 -0.0112,-0.53746 l 0.0112,-0.46468 z m -20.79871,2.84966 c 0.1813,-0.003 0.34796,-0.004 0.48148,0.006 1.06674,0.0738 1.45724,0.14311 2.36259,0.41431 0.40569,0.1215 0.44803,0.1401 1.32127,0.55425 0.65726,0.31173 1.35081,0.54952 2.12186,0.72223 0.49533,0.11095 0.71393,0.12315 1.77475,0.12315 1.06169,2e-5 1.27923,-0.0168 1.78595,-0.12876 0.70558,-0.15599 1.36403,-0.3756 1.99309,-0.66622 1.07849,-0.4983 1.47735,-0.62597 2.67052,-0.8622 0.57695,-0.11421 2.10254,-0.13159 2.66492,-0.028 0.99792,0.18381 1.6563,0.36764 2.14426,0.59345 0.18122,0.0839 0.33761,0.15425 0.35271,0.15676 0.0151,0.002 0.20348,0.0883 0.41429,0.19035 0.72468,0.35093 1.57367,0.60973 2.46897,0.75021 0.6137,0.0963 1.9861,0.10831 2.5586,0.0224 0.4085,-0.0613 1.2868,-0.25782 1.45,-0.32472 0.06,-0.0247 0.1966,-0.0752 0.3023,-0.11197 0.1057,-0.0368 0.2743,-0.10381 0.3695,-0.14557 0.095,-0.0418 0.184,-0.0784 0.2016,-0.0784 0.018,0 0.2373,-0.0954 0.487,-0.21275 0.6293,-0.29577 1.1036,-0.47383 1.5229,-0.57106 1.0762,-0.24956 1.9691,-0.3428 2.7097,-0.28553 0.3092,0.0239 0.6682,0.0525 0.8006,0.0616 0.1323,0.009 0.2795,0.0274 0.3247,0.0448 0.045,0.0173 0.2625,0.0712 0.4871,0.11756 0.4654,0.0961 0.9529,0.25712 1.5676,0.51507 l 0.4255,0.17916 0,1.39405 c 0,1.35147 0,1.39406 -0.1064,1.39406 -0.059,-3e-5 -0.1865,-0.0458 -0.2855,-0.1008 -0.2999,-0.16627 -1.522,-0.54361 -2.0771,-0.64382 -0.6588,-0.11897 -2.1885,-0.13289 -2.8833,-0.028 -0.504,0.0761 -1.028,0.19184 -1.1253,0.25195 -0.03,0.0184 -0.098,0.0454 -0.1512,0.056 -0.1543,0.0308 -0.7318,0.247 -1.0301,0.38629 -1.2698,0.59309 -2.0185,0.82827 -3.012,0.95737 -0.3794,0.0493 -2.0582,0.0666 -2.3402,0.0224 -0.3978,-0.0623 -1.46832,-0.3067 -1.55085,-0.35272 -0.0525,-0.0293 -0.14117,-0.0504 -0.19595,-0.0504 -0.0548,0 -0.12247,-0.025 -0.15116,-0.0504 -0.0287,-0.0254 -0.14062,-0.0783 -0.24634,-0.11758 -0.10572,-0.0393 -0.41119,-0.17537 -0.68302,-0.30233 -0.27185,-0.12694 -0.68044,-0.29803 -0.90697,-0.3807 -0.22654,-0.0827 -0.46586,-0.17096 -0.52627,-0.19596 -0.1044,-0.0431 -0.2929,-0.0902 -0.85099,-0.21272 -0.50974,-0.11194 -1.56978,-0.18641 -2.14985,-0.15117 -0.77897,0.0473 -1.81749,0.22184 -2.16105,0.36389 -0.0604,0.025 -0.29413,0.11518 -0.52067,0.19596 -0.22653,0.0808 -0.5449,0.21348 -0.71102,0.29672 -0.25612,0.12836 -0.748,0.33696 -1.1813,0.49829 -1.26255,0.47006 -3.44342,0.57638 -4.83157,0.24072 -0.7983,-0.19302 -1.11986,-0.30368 -1.86992,-0.65503 -0.6916,-0.32394 -1.03031,-0.46893 -1.12532,-0.48707 -0.0151,-0.003 -0.0997,-0.0329 -0.19035,-0.0672 -0.65061,-0.24632 -1.92165,-0.45729 -2.7657,-0.45907 -0.58227,-6.3e-4 -1.39224,0.0977 -2.07147,0.25193 -0.20945,0.0476 -0.44978,0.0962 -0.53187,0.11197 -0.0821,0.0157 -0.17787,0.0644 -0.21274,0.10639 -0.0349,0.042 -0.10408,0.0784 -0.15676,0.0784 -0.10575,0 -0.65646,0.21324 -0.73902,0.28554 -0.0287,0.0251 -0.0968,0.0448 -0.15116,0.0448 -0.0926,0 -0.10077,-0.0911 -0.10077,-1.40525 l 0,-1.39963 0.3695,-0.16797 c 0.42914,-0.19427 1.0122,-0.39187 1.44444,-0.48707 0.16612,-0.0366 0.38696,-0.0857 0.49267,-0.11197 0.30382,-0.0754 0.9789,-0.13614 1.52282,-0.14556 z m 0.24633,5.21229 c 0.55603,0.01 1.11254,0.0443 1.36046,0.0896 0.91179,0.16665 1.53651,0.37031 2.47457,0.81737 0.91504,0.4361 1.9845,0.76393 2.88326,0.87898 0.66571,0.0853 2.11457,0.0444 2.60895,-0.0728 0.0755,-0.0179 0.24504,-0.0558 0.3807,-0.084 0.49614,-0.10289 1.19965,-0.34208 1.86992,-0.63824 0.95953,-0.42397 0.97307,-0.42976 1.37165,-0.55427 1.51805,-0.47418 2.76264,-0.54504 4.44527,-0.25192 0.47574,0.0829 1.37716,0.37964 1.91472,0.63263 0.32299,0.15201 0.74983,0.33839 0.94616,0.41431 0.19633,0.0759 0.40427,0.15941 0.46468,0.18474 0.16478,0.0691 0.49113,0.16502 0.66619,0.19596 0.085,0.015 0.2952,0.0629 0.4647,0.10636 0.4211,0.10805 0.9848,0.15422 1.8644,0.15116 1.4316,-0.005 2.3716,-0.2285 3.9022,-0.91817 0.4423,-0.19931 0.8435,-0.3639 0.8901,-0.3639 0.047,0 0.1017,-0.0191 0.1176,-0.0448 0.032,-0.0512 1.0415,-0.29037 1.6516,-0.3919 0.4327,-0.072 2.1683,-0.0423 2.6593,0.0448 0.8582,0.15214 1.5832,0.36465 2.2282,0.66622 l 0.3528,0.16798 0,1.39963 c 0,1.166 -0.01,1.39966 -0.073,1.39966 -0.043,-3e-5 -0.238,-0.0701 -0.4311,-0.15676 -0.1932,-0.0867 -0.5824,-0.23307 -0.8678,-0.32475 -0.4945,-0.15874 -0.7091,-0.21059 -1.4501,-0.34149 -0.4028,-0.0711 -2.015,-0.0747 -2.3737,-0.006 -0.1458,0.028 -0.4252,0.0835 -0.6215,0.11757 -0.1963,0.0341 -0.43,0.0838 -0.5207,0.11196 -0.5285,0.1643 -0.689,0.21745 -0.9461,0.31911 -0.1567,0.062 -0.4969,0.20959 -0.7558,0.33033 -0.4329,0.20187 -1.1087,0.44627 -1.6516,0.59905 -0.1208,0.034 -0.465,0.10386 -0.767,0.15116 -0.5355,0.0839 -1.2548,0.11886 -1.9203,0.0952 -0.4471,-0.0159 -1.6374,-0.18887 -1.702,-0.24634 -0.029,-0.0255 -0.11876,-0.0448 -0.20154,-0.0448 -0.0828,0 -0.16609,-0.0258 -0.18475,-0.056 -0.0187,-0.0302 -0.0891,-0.056 -0.15677,-0.056 -0.0677,0 -0.15046,-0.0199 -0.17915,-0.0448 -0.0287,-0.025 -0.1608,-0.0757 -0.29673,-0.11758 -0.13591,-0.0419 -0.52523,-0.20836 -0.86777,-0.36951 -0.64856,-0.30513 -1.72271,-0.66957 -2.28983,-0.77821 -0.79689,-0.15266 -2.44327,-0.13202 -3.40393,0.0448 -0.50007,0.0921 -1.38054,0.37294 -1.70756,0.54307 -0.0583,0.0303 -0.16523,0.0804 -0.24074,0.11197 -0.0755,0.0316 -0.30194,0.12904 -0.49828,0.21834 -0.19632,0.0893 -0.45583,0.19172 -0.57665,0.22955 -0.12082,0.0378 -0.2699,0.0885 -0.33031,0.11197 -0.0604,0.0235 -0.17083,0.0587 -0.24634,0.0784 -0.0755,0.0196 -0.2246,0.0616 -0.33032,0.0896 -1.0078,0.2669 -3.12005,0.28806 -4.07576,0.0448 -0.89146,-0.22693 -1.21738,-0.341 -2.01549,-0.71103 -1.50957,-0.69986 -2.51124,-0.92934 -4.04218,-0.92934 -1.18261,0 -2.6539,0.29536 -3.44312,0.69422 -0.0829,0.0419 -0.20981,0.1 -0.28553,0.12876 l -0.13996,0.0504 0,-1.41645 0,-1.41645 0.29112,-0.13995 c 0.5947,-0.28961 1.6003,-0.58279 2.42979,-0.70542 0.24638,-0.0364 0.79883,-0.0492 1.35485,-0.0392 z m -0.43669,5.15628 c 0.43191,-0.0147 0.83849,0.0125 1.38285,0.0784 0.94652,0.11459 1.79591,0.37658 2.86088,0.87898 0.57571,0.27158 1.03298,0.45464 1.35485,0.54306 0.15857,0.0436 0.42733,0.11691 0.59345,0.16235 0.16613,0.0455 0.66886,0.12078 1.11972,0.16797 1.12249,0.11744 2.11378,0.028 3.35914,-0.29673 0.26619,-0.0694 0.94812,-0.3343 1.45004,-0.56547 0.19633,-0.0904 0.48161,-0.21047 0.63263,-0.26873 0.15102,-0.0583 0.3259,-0.12553 0.3863,-0.15115 0.0604,-0.0256 0.31992,-0.10239 0.57666,-0.16796 0.25674,-0.0656 0.54203,-0.14078 0.63264,-0.16795 0.0906,-0.0272 0.51546,-0.0798 0.94616,-0.11758 0.67478,-0.0592 0.89246,-0.0598 1.58999,0.0169 0.8638,0.0948 1.2137,0.15967 1.45564,0.25753 0.0831,0.0337 0.15116,0.0505 0.15116,0.0392 0,-0.0253 0.80656,0.26182 1.08612,0.38632 0.1117,0.0498 0.35623,0.15672 0.53747,0.24072 1.51237,0.70114 2.45602,0.90124 4.10372,0.8622 0.9933,-0.0236 1.6396,-0.10174 2.1275,-0.25755 0.1057,-0.0337 0.229,-0.0727 0.2743,-0.084 0.2912,-0.0728 0.8006,-0.28272 1.646,-0.67743 0.2827,-0.13199 1.2192,-0.44687 1.4276,-0.48146 0.077,-0.0127 0.1989,-0.0469 0.2744,-0.0728 0.4096,-0.14067 0.9713,-0.19411 1.9763,-0.19034 0.8107,0.003 1.1402,0.0238 1.3548,0.0896 0.156,0.0478 0.2981,0.077 0.3136,0.0616 0.015,-0.0154 0.1123,-0.004 0.2127,0.028 0.1004,0.0319 0.472,0.15217 0.8286,0.26314 0.3566,0.11095 0.7913,0.26856 0.9629,0.3527 l 0.308,0.15115 -0.017,1.39406 c -0.01,0.76497 -0.027,1.39848 -0.039,1.41084 -0.012,0.0124 -0.2394,-0.0709 -0.5039,-0.18476 -0.2645,-0.11382 -0.5275,-0.22603 -0.5879,-0.25193 -0.1988,-0.0853 -1.148,-0.30694 -1.6235,-0.3807 -0.5902,-0.0916 -1.8525,-0.0963 -2.497,-0.006 -0.893,0.12564 -1.7279,0.37852 -2.6369,0.80059 -0.7447,0.34578 -1.4044,0.57707 -2.1443,0.75021 -0.4647,0.10876 -2.0402,0.21016 -2.6033,0.16795 -0.5494,-0.0412 -1.73745,-0.28537 -2.06032,-0.42549 -0.0906,-0.0393 -0.31704,-0.12778 -0.49827,-0.19594 -0.18123,-0.0682 -0.58425,-0.24111 -0.89578,-0.38631 -1.27646,-0.59499 -2.30343,-0.82322 -3.71745,-0.82859 -0.85823,-0.003 -1.95354,0.11351 -2.17785,0.23514 -0.0525,0.0285 -0.12895,0.0504 -0.16795,0.0504 -0.14492,0 -0.9592,0.29088 -1.41085,0.50389 -0.25674,0.12105 -0.51624,0.24738 -0.57665,0.27432 -0.21915,0.0978 -1.04977,0.38527 -1.23729,0.43108 -1.11606,0.27199 -2.00941,0.35467 -3.04562,0.27434 -1.1499,-0.0891 -2.1863,-0.38477 -3.44313,-0.97974 -1.43184,-0.67785 -2.89963,-0.95416 -4.43967,-0.8342 -1.06235,0.0828 -2.01477,0.31959 -2.87767,0.71102 -0.20806,0.0944 -0.38657,0.16796 -0.3975,0.16796 -0.0109,0 -0.0224,-0.63894 -0.0224,-1.42205 l 0,-1.42202 0.29113,-0.13997 c 0.69035,-0.32992 1.72409,-0.62054 2.56415,-0.72223 0.31051,-0.0376 0.58064,-0.0639 0.83978,-0.0728 z"
       id="path2996"
       inkscape:connector-curvature="0" />
  </g>
  <g
     style="display:none"
     inkscape:label="red"
     id="g3828"
     inkscape:groupmode="layer"
     sodipodi:insensitive="true">
    <rect
       y="78.559998"
       x="0"
       height="4"
       width="1052.36"
       id="rect3830"
       style="fill:url(#linearGradient3838);fill-opacity:1;stroke:none" />
  </g>
  <g
     style="display:none"
     inkscape:label="gray"
     id="g3939"
     inkscape:groupmode="layer"
     sodipodi:insensitive="true">
    <rect
       y="78.559998"
       x="0"
       height="4"
       width="1052.36"
       id="rect3941"
       style="fill:url(#linearGradient3949);fill-opacity:1;stroke:none" />
  </g>
  <g
     style="display:none"
     inkscape:label="blue"
     id="g3951"
     inkscape:groupmode="layer"
     sodipodi:insensitive="true">
    <rect
       y="78.559998"
       x="0"
       height="4"
       width="1052.36"
       id="rect3953"
       style="fill:url(#linearGradient3961);fill-opacity:1;stroke:none" />
  </g>
  <g
     style="display:none"
     inkscape:label="pink"
     id="g3963"
     inkscape:groupmode="layer"
     sodipodi:insensitive="true">
    <rect
       y="78.559998"
       x="0"
       height="4"
       width="1052.36"
       id="rect3965"
       style="fill:url(#linearGradient3973);fill-opacity:1;stroke:none" />
  </g>
  <g
     inkscape:groupmode="layer"
     id="layer2"
     inkscape:label="green"
     style="display:none"
     sodipodi:insensitive="true">
    <rect
       style="fill:url(#linearGradient3809);fill-opacity:1;stroke:none"
       id="rect2993"
       width="1052.36"
       height="4"
       x="0"
       y="78.559998" />
  </g>
  <g
     inkscape:groupmode="layer"
     id="layer3"
     inkscape:label="yellow">
    <rect
       style="fill:url(#linearGradient3811);fill-opacity:1;stroke:none;display:inline"
       id="rect2993-4"
       width="1052.36"
       height="4"
       x="0"
       y="78.559998" />
  </g>
</svg>
