<?xml version="1.0" encoding="UTF-8" standalone="no"?>
<!-- Created with Inkscape (http://www.inkscape.org/) -->

<svg
   xmlns:dc="http://purl.org/dc/elements/1.1/"
   xmlns:cc="http://creativecommons.org/ns#"
   xmlns:rdf="http://www.w3.org/1999/02/22-rdf-syntax-ns#"
   xmlns:svg="http://www.w3.org/2000/svg"
   xmlns="http://www.w3.org/2000/svg"
   xmlns:xlink="http://www.w3.org/1999/xlink"
   xmlns:sodipodi="http://sodipodi.sourceforge.net/DTD/sodipodi-0.dtd"
   xmlns:inkscape="http://www.inkscape.org/namespaces/inkscape"
   width="1052.36"
   height="114.97945"
   id="svg2"
   version="1.1"
   inkscape:version="0.48.3.1 r9886"
   sodipodi:docname="header.svg"
   inkscape:export-filename="header.png"
   inkscape:export-xdpi="120.03619"
   inkscape:export-ydpi="120.03619">
  <defs
     id="defs4">
    <linearGradient
       id="linearGradient3984">
      <stop
         style="stop-color:#d1deff;stop-opacity:1;"
         offset="0"
         id="stop3986" />
      <stop
         style="stop-color:#a4bcff;stop-opacity:1;"
         offset="1"
         id="stop3988" />
    </linearGradient>
    <linearGradient
       id="linearGradient3942">
      <stop
         style="stop-color:#1f346c;stop-opacity:1;"
         offset="0"
         id="stop3944" />
      <stop
         style="stop-color:#2c4a9b;stop-opacity:1;"
         offset="1"
         id="stop3946" />
    </linearGradient>
    <linearGradient
       id="linearGradient3805">
      <stop
         style="stop-color:#fafa45;stop-opacity:1;"
         offset="0"
         id="stop3807" />
      <stop
         style="stop-color:#ffffff;stop-opacity:1;"
         offset="1"
         id="stop3809" />
    </linearGradient>
    <linearGradient
       id="linearGradient3967">
      <stop
         style="stop-color:#ecc2ee;stop-opacity:1;"
         offset="0"
         id="stop3969" />
      <stop
         style="stop-color:#ecc2ee;stop-opacity:0;"
         offset="1"
         id="stop3971" />
    </linearGradient>
    <linearGradient
       id="linearGradient3955">
      <stop
         style="stop-color:#8997a0;stop-opacity:1;"
         offset="0"
         id="stop3957" />
      <stop
         style="stop-color:#8a97a0;stop-opacity:0;"
         offset="1"
         id="stop3959" />
    </linearGradient>
    <linearGradient
       id="linearGradient3943">
      <stop
         style="stop-color:#a09c89;stop-opacity:1;"
         offset="0"
         id="stop3945" />
      <stop
         style="stop-color:#a09c89;stop-opacity:0;"
         offset="1"
         id="stop3947" />
    </linearGradient>
    <linearGradient
       id="linearGradient3832">
      <stop
         style="stop-color:#ae553f;stop-opacity:1;"
         offset="0"
         id="stop3834" />
      <stop
         style="stop-color:#ad553f;stop-opacity:0;"
         offset="1"
         id="stop3836" />
    </linearGradient>
    <linearGradient
       id="linearGradient3772">
      <stop
         style="stop-color:#000000;stop-opacity:1;"
         offset="0"
         id="stop3774" />
      <stop
         style="stop-color:#000000;stop-opacity:0;"
         offset="1"
         id="stop3776" />
    </linearGradient>
    <linearGradient
       id="linearGradient3763">
      <stop
         style="stop-color:#199200;stop-opacity:1;"
         offset="0"
         id="stop3765" />
      <stop
         style="stop-color:#ffffff;stop-opacity:0;"
         offset="1"
         id="stop3767" />
    </linearGradient>
    <linearGradient
       id="linearGradient3760">
      <stop
         style="stop-color:#1b1c3e;stop-opacity:1;"
         offset="0"
         id="stop3762" />
      <stop
         style="stop-color:#37376e;stop-opacity:1;"
         offset="1"
         id="stop3764" />
    </linearGradient>
    <clipPath
       id="clipPath3034"
       clipPathUnits="userSpaceOnUse">
      <path
         id="path3036"
         d="m 0,0 3310,0 0,264 L 0,264 0,0 z"
         inkscape:connector-curvature="0" />
    </clipPath>
    <clipPath
       id="clipPath3024"
       clipPathUnits="userSpaceOnUse">
      <path
         id="path3026"
         d="m 0,0 3310,0 0,264 L 0,264 0,0 z"
         inkscape:connector-curvature="0" />
    </clipPath>
    <linearGradient
       inkscape:collect="always"
       xlink:href="#linearGradient3760"
       id="linearGradient3766"
       x1="-3.3833658e-07"
       y1="361.50504"
       x2="1052.36"
       y2="361.50504"
       gradientUnits="userSpaceOnUse" />
    <linearGradient
       inkscape:collect="always"
       xlink:href="#linearGradient3763"
       id="linearGradient3769"
       x1="-1.0101526"
       y1="85.123703"
       x2="1056.6196"
       y2="85.123703"
       gradientUnits="userSpaceOnUse"
       gradientTransform="matrix(0.99501746,0,0,0.3045998,1.0051194,359.28118)" />
    <linearGradient
       inkscape:collect="always"
       xlink:href="#linearGradient3763-0"
       id="linearGradient3769-2"
       x1="-1.0101526"
       y1="85.123703"
       x2="1056.6196"
       y2="85.123703"
       gradientUnits="userSpaceOnUse"
       gradientTransform="matrix(0.99501746,0,0,0.3045998,1.0051194,359.28118)" />
    <linearGradient
       id="linearGradient3763-0">
      <stop
         style="stop-color:#199200;stop-opacity:1;"
         offset="0"
         id="stop3765-2" />
      <stop
         style="stop-color:#199200;stop-opacity:0;"
         offset="1"
         id="stop3767-1" />
    </linearGradient>
    <linearGradient
       y2="85.123703"
       x2="1056.6196"
       y1="85.123703"
       x1="-1.0101526"
       gradientTransform="matrix(0.99501746,0,0,0.3045998,1.0051189,54.63131)"
       gradientUnits="userSpaceOnUse"
       id="linearGradient3809-8"
       xlink:href="#linearGradient3763-0-4"
       inkscape:collect="always" />
    <linearGradient
       id="linearGradient3763-0-4">
      <stop
         style="stop-color:#199200;stop-opacity:1;"
         offset="0"
         id="stop3765-2-3" />
      <stop
         style="stop-color:#199200;stop-opacity:0;"
         offset="1"
         id="stop3767-1-1" />
    </linearGradient>
    <linearGradient
       inkscape:collect="always"
       xlink:href="#linearGradient3942"
       id="linearGradient3948"
       x1="-3.3833658e-07"
       y1="361.07388"
       x2="1052.36"
       y2="361.07388"
       gradientUnits="userSpaceOnUse" />
    <linearGradient
       inkscape:collect="always"
       xlink:href="#linearGradient3942-4"
       id="linearGradient3948-3"
       x1="-3.3833658e-07"
       y1="361.07388"
       x2="1052.36"
       y2="361.07388"
       gradientUnits="userSpaceOnUse" />
    <linearGradient
       id="linearGradient3942-4">
      <stop
         style="stop-color:#1f346c;stop-opacity:1;"
         offset="0"
         id="stop3944-0" />
      <stop
         style="stop-color:#2c4a9b;stop-opacity:1;"
         offset="1"
         id="stop3946-1" />
    </linearGradient>
    <linearGradient
       inkscape:collect="always"
       xlink:href="#linearGradient3984"
       id="linearGradient3990"
       x1="-3.3833658e-07"
       y1="403.2099"
       x2="1052.36"
       y2="403.2099"
       gradientUnits="userSpaceOnUse"
       gradientTransform="matrix(1,0,0,0.02578756,0,407.77881)" />
    <linearGradient
       inkscape:collect="always"
       xlink:href="#linearGradient3301-2-5"
       id="linearGradient3307-4-3"
       x1="1849.498"
       y1="1175.0056"
       x2="1921.5383"
       y2="1206.2761"
       gradientUnits="userSpaceOnUse"
       gradientTransform="translate(-234.71047,-107.26233)" />
    <linearGradient
       inkscape:collect="always"
       id="linearGradient3301-2-5">
      <stop
         style="stop-color:#000000;stop-opacity:1;"
         offset="0"
         id="stop3303-2-6" />
      <stop
         style="stop-color:#000000;stop-opacity:0;"
         offset="1"
         id="stop3305-6-6" />
    </linearGradient>
    <filter
       id="filter3059-4-7"
       inkscape:label="Invert"
       x="0"
       y="0"
       width="1"
       height="1"
       inkscape:menu="Color"
       inkscape:menu-tooltip="Invert colors"
       color-interpolation-filters="sRGB">
      <feColorMatrix
         id="feColorMatrix3061-1-6"
         type="saturate"
         values="1"
         result="fbSourceGraphic" />
      <feColorMatrix
         id="feColorMatrix3063-2-1"
         in="fbSourceGraphic"
         values="-1 0 0 0 1 0 -1 0 0 1 0 0 -1 0 1 0 0 0 1 0 " />
    </filter>
    <linearGradient
       inkscape:collect="always"
       xlink:href="#linearGradient3301-2-5"
       id="linearGradient3156"
       x1="1849.498"
       y1="1175.0056"
       x2="1921.5383"
       y2="1206.2761"
       gradientUnits="userSpaceOnUse"
       gradientTransform="translate(-234.71047,-107.26233)" />
    <linearGradient
       inkscape:collect="always"
       id="linearGradient3272-8">
      <stop
         style="stop-color:#ffffff;stop-opacity:1;"
         offset="0"
         id="stop3274-9" />
      <stop
         style="stop-color:#ffffff;stop-opacity:0;"
         offset="1"
         id="stop3276-2" />
    </linearGradient>
    <filter
       id="filter3065-8-3"
       inkscape:label="Invert"
       x="0"
       y="0"
       width="1"
       height="1"
       inkscape:menu="Color"
       inkscape:menu-tooltip="Invert colors"
       color-interpolation-filters="sRGB">
      <feColorMatrix
         id="feColorMatrix3067-8-2"
         type="saturate"
         values="1"
         result="fbSourceGraphic" />
      <feColorMatrix
         id="feColorMatrix3069-8-7"
         in="fbSourceGraphic"
         values="-1 0 0 0 1 0 -1 0 0 1 0 0 -1 0 1 0 0 0 1 0 " />
    </filter>
    <filter
       id="filter3071-8-6"
       inkscape:label="Invert"
       x="0"
       y="0"
       width="1"
       height="1"
       inkscape:menu="Color"
       inkscape:menu-tooltip="Invert colors"
       color-interpolation-filters="sRGB">
      <feColorMatrix
         id="feColorMatrix3073-3-6"
         type="saturate"
         values="1"
         result="fbSourceGraphic" />
      <feColorMatrix
         id="feColorMatrix3075-8-0"
         in="fbSourceGraphic"
         values="-1 0 0 0 1 0 -1 0 0 1 0 0 -1 0 1 0 0 0 1 0 " />
    </filter>
    <linearGradient
       inkscape:collect="always"
       id="linearGradient3258-3">
      <stop
         style="stop-color:#ffffff;stop-opacity:1;"
         offset="0"
         id="stop3260-3" />
      <stop
         style="stop-color:#ffffff;stop-opacity:0;"
         offset="1"
         id="stop3262-8" />
    </linearGradient>
    <filter
       id="filter3077-0-7"
       inkscape:label="Invert"
       x="0"
       y="0"
       width="1"
       height="1"
       inkscape:menu="Color"
       inkscape:menu-tooltip="Invert colors"
       color-interpolation-filters="sRGB">
      <feColorMatrix
         id="feColorMatrix3079-4-6"
         type="saturate"
         values="1"
         result="fbSourceGraphic" />
      <feColorMatrix
         id="feColorMatrix3081-7-9"
         in="fbSourceGraphic"
         values="-1 0 0 0 1 0 -1 0 0 1 0 0 -1 0 1 0 0 0 1 0 " />
    </filter>
    <filter
       id="filter3083-8-0"
       inkscape:label="Invert"
       x="0"
       y="0"
       width="1"
       height="1"
       inkscape:menu="Color"
       inkscape:menu-tooltip="Invert colors"
       color-interpolation-filters="sRGB">
      <feColorMatrix
         id="feColorMatrix3085-9-5"
         type="saturate"
         values="1"
         result="fbSourceGraphic" />
      <feColorMatrix
         id="feColorMatrix3087-0-8"
         in="fbSourceGraphic"
         values="-1 0 0 0 1 0 -1 0 0 1 0 0 -1 0 1 0 0 0 1 0 " />
    </filter>
    <linearGradient
       inkscape:collect="always"
       id="linearGradient3248-8">
      <stop
         style="stop-color:#ffffff;stop-opacity:1;"
         offset="0"
         id="stop3250-7" />
      <stop
         style="stop-color:#ffffff;stop-opacity:0;"
         offset="1"
         id="stop3252-9" />
    </linearGradient>
    <filter
       id="filter3089-0-8"
       inkscape:label="Invert"
       x="0"
       y="0"
       width="1"
       height="1"
       inkscape:menu="Color"
       inkscape:menu-tooltip="Invert colors"
       color-interpolation-filters="sRGB">
      <feColorMatrix
         id="feColorMatrix3091-3-8"
         type="saturate"
         values="1"
         result="fbSourceGraphic" />
      <feColorMatrix
         id="feColorMatrix3093-3-4"
         in="fbSourceGraphic"
         values="-1 0 0 0 1 0 -1 0 0 1 0 0 -1 0 1 0 0 0 1 0 " />
    </filter>
    <linearGradient
       id="linearGradient3234-7-8">
      <stop
         style="stop-color:#ffffff;stop-opacity:1;"
         offset="0"
         id="stop3236-3-8" />
      <stop
         style="stop-color:#ffffff;stop-opacity:0;"
         offset="1"
         id="stop3238-2-8" />
    </linearGradient>
    <filter
       id="filter3095-6-3"
       inkscape:label="Invert"
       x="0"
       y="0"
       width="1"
       height="1"
       inkscape:menu="Color"
       inkscape:menu-tooltip="Invert colors"
       color-interpolation-filters="sRGB">
      <feColorMatrix
         id="feColorMatrix3097-5-1"
         type="saturate"
         values="1"
         result="fbSourceGraphic" />
      <feColorMatrix
         id="feColorMatrix3099-2-5"
         in="fbSourceGraphic"
         values="-1 0 0 0 1 0 -1 0 0 1 0 0 -1 0 1 0 0 0 1 0 " />
    </filter>
    <linearGradient
       inkscape:collect="always"
       id="linearGradient3214-5">
      <stop
         style="stop-color:#ffffff;stop-opacity:1"
         offset="0"
         id="stop3216-8" />
      <stop
         style="stop-color:#ffffff;stop-opacity:0"
         offset="1"
         id="stop3218-7" />
    </linearGradient>
    <filter
       id="filter3101-9-8"
       inkscape:label="Invert"
       x="0"
       y="0"
       width="1"
       height="1"
       inkscape:menu="Color"
       inkscape:menu-tooltip="Invert colors"
       color-interpolation-filters="sRGB">
      <feColorMatrix
         id="feColorMatrix3103-6-1"
         type="saturate"
         values="1"
         result="fbSourceGraphic" />
      <feColorMatrix
         id="feColorMatrix3105-0-2"
         in="fbSourceGraphic"
         values="-1 0 0 0 1 0 -1 0 0 1 0 0 -1 0 1 0 0 0 1 0 " />
    </filter>
    <filter
       id="filter3107-1-3"
       inkscape:label="Invert"
       x="0"
       y="0"
       width="1"
       height="1"
       inkscape:menu="Color"
       inkscape:menu-tooltip="Invert colors"
       color-interpolation-filters="sRGB">
      <feColorMatrix
         id="feColorMatrix3109-0-6"
         type="saturate"
         values="1"
         result="fbSourceGraphic" />
      <feColorMatrix
         id="feColorMatrix3111-4-1"
         in="fbSourceGraphic"
         values="-1 0 0 0 1 0 -1 0 0 1 0 0 -1 0 1 0 0 0 1 0 " />
    </filter>
    <filter
       id="filter3113-7-9"
       inkscape:label="Invert"
       x="0"
       y="0"
       width="1"
       height="1"
       inkscape:menu="Color"
       inkscape:menu-tooltip="Invert colors"
       color-interpolation-filters="sRGB">
      <feColorMatrix
         id="feColorMatrix3115-0-5"
         type="saturate"
         values="1"
         result="fbSourceGraphic" />
      <feColorMatrix
         id="feColorMatrix3117-8-7"
         in="fbSourceGraphic"
         values="-1 0 0 0 1 0 -1 0 0 1 0 0 -1 0 1 0 0 0 1 0 " />
    </filter>
    <linearGradient
       id="linearGradient3240">
      <stop
         style="stop-color:#ffffff;stop-opacity:1;"
         offset="0"
         id="stop3242" />
      <stop
         style="stop-color:#ffffff;stop-opacity:0;"
         offset="1"
         id="stop3244" />
    </linearGradient>
    <filter
       id="filter3119-2-3"
       inkscape:label="Invert"
       x="0"
       y="0"
       width="1"
       height="1"
       inkscape:menu="Color"
       inkscape:menu-tooltip="Invert colors"
       color-interpolation-filters="sRGB">
      <feColorMatrix
         id="feColorMatrix3121-4-0"
         type="saturate"
         values="1"
         result="fbSourceGraphic" />
      <feColorMatrix
         id="feColorMatrix3123-7-1"
         in="fbSourceGraphic"
         values="-1 0 0 0 1 0 -1 0 0 1 0 0 -1 0 1 0 0 0 1 0 " />
    </filter>
    <linearGradient
       id="linearGradient3156-4-2">
      <stop
         style="stop-color:#ffffff;stop-opacity:1;"
         offset="0"
         id="stop3158-3-7" />
      <stop
         style="stop-color:#ffffff;stop-opacity:0"
         offset="1"
         id="stop3160-1-8" />
    </linearGradient>
    <filter
       id="filter3125-4-2"
       inkscape:label="Invert"
       x="0"
       y="0"
       width="1"
       height="1"
       inkscape:menu="Color"
       inkscape:menu-tooltip="Invert colors"
       color-interpolation-filters="sRGB">
      <feColorMatrix
         id="feColorMatrix3127-6-4"
         type="saturate"
         values="1"
         result="fbSourceGraphic" />
      <feColorMatrix
         id="feColorMatrix3129-9-6"
         in="fbSourceGraphic"
         values="-1 0 0 0 1 0 -1 0 0 1 0 0 -1 0 1 0 0 0 1 0 " />
    </filter>
    <linearGradient
       inkscape:collect="always"
       xlink:href="#linearGradient3156-4-2"
       id="linearGradient4427"
       gradientUnits="userSpaceOnUse"
       gradientTransform="translate(-234.71047,-107.26233)"
       x1="918.09521"
       y1="0"
       x2="1000"
       y2="507.61908" />
    <linearGradient
       inkscape:collect="always"
       xlink:href="#linearGradient3234-7-8"
       id="linearGradient4429"
       gradientUnits="userSpaceOnUse"
       gradientTransform="translate(25.289529,-107.26233)"
       x1="160"
       y1="104.28571"
       x2="459.04764"
       y2="416.66666" />
    <linearGradient
       inkscape:collect="always"
       xlink:href="#linearGradient3214-5"
       id="linearGradient4431"
       gradientUnits="userSpaceOnUse"
       gradientTransform="translate(-234.71047,-107.26233)"
       x1="315.2381"
       y1="1129.8051"
       x2="1920"
       y2="828.85266" />
    <linearGradient
       inkscape:collect="always"
       xlink:href="#linearGradient3214-5"
       id="linearGradient4433"
       gradientUnits="userSpaceOnUse"
       gradientTransform="matrix(0.7931034,0,0,0.8421432,162.53091,82.165781)"
       x1="315.2381"
       y1="1129.8051"
       x2="1920"
       y2="828.85266" />
    <linearGradient
       inkscape:collect="always"
       xlink:href="#linearGradient3214-5"
       id="linearGradient4435"
       gradientUnits="userSpaceOnUse"
       gradientTransform="matrix(0.6321839,0,0,0.6737146,471.49643,284.28016)"
       x1="315.2381"
       y1="1129.8051"
       x2="1920"
       y2="828.85266" />
    <linearGradient
       inkscape:collect="always"
       xlink:href="#linearGradient3234-7-8"
       id="linearGradient4437"
       gradientUnits="userSpaceOnUse"
       gradientTransform="translate(-234.71047,-107.26233)"
       x1="160"
       y1="104.28571"
       x2="459.04764"
       y2="416.66666" />
    <linearGradient
       inkscape:collect="always"
       xlink:href="#linearGradient3248-8"
       id="linearGradient4439"
       gradientUnits="userSpaceOnUse"
       gradientTransform="translate(-234.71047,-107.26233)"
       x1="615.2381"
       y1="293.33334"
       x2="897.14282"
       y2="712.38092" />
    <radialGradient
       inkscape:collect="always"
       xlink:href="#linearGradient3258-3"
       id="radialGradient4441"
       gradientUnits="userSpaceOnUse"
       gradientTransform="matrix(1,0,0,0.882353,-234.71047,-47.262367)"
       cx="182.06349"
       cy="491.29102"
       fx="182.06349"
       fy="491.29102"
       r="170" />
    <radialGradient
       inkscape:collect="always"
       xlink:href="#linearGradient3258-3"
       id="radialGradient4443"
       gradientUnits="userSpaceOnUse"
       gradientTransform="matrix(0.2197462,0.7381071,-2.5448999,0.7576573,2283.5923,-492.96137)"
       cx="182.06349"
       cy="491.29102"
       fx="182.06349"
       fy="491.29102"
       r="170" />
    <radialGradient
       inkscape:collect="always"
       xlink:href="#linearGradient3272-8"
       id="radialGradient4445"
       gradientUnits="userSpaceOnUse"
       gradientTransform="matrix(1.3082479,0.6050943,-0.5327241,1.1517796,-426.74725,-572.69543)"
       cx="750.66138"
       cy="73.871254"
       fx="750.66138"
       fy="73.871254"
       r="60.661373" />
    <radialGradient
       inkscape:collect="always"
       xlink:href="#linearGradient3272-8"
       id="radialGradient4447"
       gradientUnits="userSpaceOnUse"
       gradientTransform="matrix(1.3082479,0.6050943,-0.5327241,1.1517796,-604.3369,-581.72541)"
       cx="750.66138"
       cy="73.871254"
       fx="750.66138"
       fy="73.871254"
       r="60.661373" />
    <linearGradient
       inkscape:collect="always"
       xlink:href="#linearGradient3301-2-5"
       id="linearGradient4449"
       gradientUnits="userSpaceOnUse"
       gradientTransform="translate(-234.71047,-107.26233)"
       x1="1849.498"
       y1="1175.0056"
       x2="1921.5383"
       y2="1206.2761" />
    <style
       id="style5133"
       type="text/css">
   
    .fil1 {fill:#1F1A17}
    .fil0 {fill:#0963AA}
   
  </style>
    <linearGradient
       inkscape:collect="always"
       xlink:href="#linearGradient3301-2-5-5"
       id="linearGradient4449-0"
       gradientUnits="userSpaceOnUse"
       gradientTransform="translate(-234.71047,-107.26233)"
       x1="1849.498"
       y1="1175.0056"
       x2="1921.5383"
       y2="1206.2761" />
    <linearGradient
       inkscape:collect="always"
       id="linearGradient3301-2-5-5">
      <stop
         style="stop-color:#000000;stop-opacity:1;"
         offset="0"
         id="stop3303-2-6-8" />
      <stop
         style="stop-color:#000000;stop-opacity:0;"
         offset="1"
         id="stop3305-6-6-5" />
    </linearGradient>
    <filter
       id="filter3059-4-7-7"
       inkscape:label="Invert"
       x="0"
       y="0"
       width="1"
       height="1"
       inkscape:menu="Color"
       inkscape:menu-tooltip="Invert colors"
       color-interpolation-filters="sRGB">
      <feColorMatrix
         id="feColorMatrix3061-1-6-0"
         type="saturate"
         values="1"
         result="fbSourceGraphic" />
      <feColorMatrix
         id="feColorMatrix3063-2-1-9"
         in="fbSourceGraphic"
         values="-1 0 0 0 1 0 -1 0 0 1 0 0 -1 0 1 0 0 0 1 0 " />
    </filter>
    <linearGradient
       inkscape:collect="always"
       xlink:href="#linearGradient3301-2-5-5"
       id="linearGradient5443"
       gradientUnits="userSpaceOnUse"
       gradientTransform="translate(-234.71047,-107.26233)"
       x1="1849.498"
       y1="1175.0056"
       x2="1921.5383"
       y2="1206.2761" />
    <radialGradient
       inkscape:collect="always"
       xlink:href="#linearGradient3272-8-0"
       id="radialGradient4447-3"
       gradientUnits="userSpaceOnUse"
       gradientTransform="matrix(1.3082479,0.6050943,-0.5327241,1.1517796,-604.3369,-581.72541)"
       cx="750.66138"
       cy="73.871254"
       fx="750.66138"
       fy="73.871254"
       r="60.661373" />
    <linearGradient
       inkscape:collect="always"
       id="linearGradient3272-8-0">
      <stop
         style="stop-color:#ffffff;stop-opacity:1;"
         offset="0"
         id="stop3274-9-1" />
      <stop
         style="stop-color:#ffffff;stop-opacity:0;"
         offset="1"
         id="stop3276-2-2" />
    </linearGradient>
    <filter
       id="filter3065-8-3-9"
       inkscape:label="Invert"
       x="0"
       y="0"
       width="1"
       height="1"
       inkscape:menu="Color"
       inkscape:menu-tooltip="Invert colors"
       color-interpolation-filters="sRGB">
      <feColorMatrix
         id="feColorMatrix3067-8-2-6"
         type="saturate"
         values="1"
         result="fbSourceGraphic" />
      <feColorMatrix
         id="feColorMatrix3069-8-7-5"
         in="fbSourceGraphic"
         values="-1 0 0 0 1 0 -1 0 0 1 0 0 -1 0 1 0 0 0 1 0 " />
    </filter>
    <radialGradient
       inkscape:collect="always"
       xlink:href="#linearGradient3272-8-0"
       id="radialGradient4445-9"
       gradientUnits="userSpaceOnUse"
       gradientTransform="matrix(1.3082479,0.6050943,-0.5327241,1.1517796,-426.74725,-572.69543)"
       cx="750.66138"
       cy="73.871254"
       fx="750.66138"
       fy="73.871254"
       r="60.661373" />
    <filter
       id="filter3071-8-6-8"
       inkscape:label="Invert"
       x="0"
       y="0"
       width="1"
       height="1"
       inkscape:menu="Color"
       inkscape:menu-tooltip="Invert colors"
       color-interpolation-filters="sRGB">
      <feColorMatrix
         id="feColorMatrix3073-3-6-8"
         type="saturate"
         values="1"
         result="fbSourceGraphic" />
      <feColorMatrix
         id="feColorMatrix3075-8-0-8"
         in="fbSourceGraphic"
         values="-1 0 0 0 1 0 -1 0 0 1 0 0 -1 0 1 0 0 0 1 0 " />
    </filter>
    <radialGradient
       inkscape:collect="always"
       xlink:href="#linearGradient3258-3-4"
       id="radialGradient4443-1"
       gradientUnits="userSpaceOnUse"
       gradientTransform="matrix(0.2197462,0.7381071,-2.5448999,0.7576573,2283.5923,-492.96137)"
       cx="182.06349"
       cy="491.29102"
       fx="182.06349"
       fy="491.29102"
       r="170" />
    <linearGradient
       inkscape:collect="always"
       id="linearGradient3258-3-4">
      <stop
         style="stop-color:#ffffff;stop-opacity:1;"
         offset="0"
         id="stop3260-3-9" />
      <stop
         style="stop-color:#ffffff;stop-opacity:0;"
         offset="1"
         id="stop3262-8-4" />
    </linearGradient>
    <filter
       id="filter3077-0-7-5"
       inkscape:label="Invert"
       x="0"
       y="0"
       width="1"
       height="1"
       inkscape:menu="Color"
       inkscape:menu-tooltip="Invert colors"
       color-interpolation-filters="sRGB">
      <feColorMatrix
         id="feColorMatrix3079-4-6-2"
         type="saturate"
         values="1"
         result="fbSourceGraphic" />
      <feColorMatrix
         id="feColorMatrix3081-7-9-1"
         in="fbSourceGraphic"
         values="-1 0 0 0 1 0 -1 0 0 1 0 0 -1 0 1 0 0 0 1 0 " />
    </filter>
    <radialGradient
       inkscape:collect="always"
       xlink:href="#linearGradient3258-3-4"
       id="radialGradient4441-4"
       gradientUnits="userSpaceOnUse"
       gradientTransform="matrix(1,0,0,0.882353,-234.71047,-47.262367)"
       cx="182.06349"
       cy="491.29102"
       fx="182.06349"
       fy="491.29102"
       r="170" />
    <filter
       id="filter3083-8-0-7"
       inkscape:label="Invert"
       x="0"
       y="0"
       width="1"
       height="1"
       inkscape:menu="Color"
       inkscape:menu-tooltip="Invert colors"
       color-interpolation-filters="sRGB">
      <feColorMatrix
         id="feColorMatrix3085-9-5-9"
         type="saturate"
         values="1"
         result="fbSourceGraphic" />
      <feColorMatrix
         id="feColorMatrix3087-0-8-8"
         in="fbSourceGraphic"
         values="-1 0 0 0 1 0 -1 0 0 1 0 0 -1 0 1 0 0 0 1 0 " />
    </filter>
    <linearGradient
       inkscape:collect="always"
       xlink:href="#linearGradient3248-8-3"
       id="linearGradient4439-0"
       gradientUnits="userSpaceOnUse"
       gradientTransform="translate(-234.71047,-107.26233)"
       x1="615.2381"
       y1="293.33334"
       x2="897.14282"
       y2="712.38092" />
    <linearGradient
       inkscape:collect="always"
       id="linearGradient3248-8-3">
      <stop
         style="stop-color:#ffffff;stop-opacity:1;"
         offset="0"
         id="stop3250-7-0" />
      <stop
         style="stop-color:#ffffff;stop-opacity:0;"
         offset="1"
         id="stop3252-9-6" />
    </linearGradient>
    <filter
       id="filter3089-0-8-1"
       inkscape:label="Invert"
       x="0"
       y="0"
       width="1"
       height="1"
       inkscape:menu="Color"
       inkscape:menu-tooltip="Invert colors"
       color-interpolation-filters="sRGB">
      <feColorMatrix
         id="feColorMatrix3091-3-8-8"
         type="saturate"
         values="1"
         result="fbSourceGraphic" />
      <feColorMatrix
         id="feColorMatrix3093-3-4-3"
         in="fbSourceGraphic"
         values="-1 0 0 0 1 0 -1 0 0 1 0 0 -1 0 1 0 0 0 1 0 " />
    </filter>
    <linearGradient
       inkscape:collect="always"
       xlink:href="#linearGradient3234-7-8-9"
       id="linearGradient4437-3"
       gradientUnits="userSpaceOnUse"
       gradientTransform="translate(-234.71047,-107.26233)"
       x1="160"
       y1="104.28571"
       x2="459.04764"
       y2="416.66666" />
    <linearGradient
       id="linearGradient3234-7-8-9">
      <stop
         style="stop-color:#ffffff;stop-opacity:1;"
         offset="0"
         id="stop3236-3-8-7" />
      <stop
         style="stop-color:#ffffff;stop-opacity:0;"
         offset="1"
         id="stop3238-2-8-4" />
    </linearGradient>
    <filter
       id="filter3095-6-3-0"
       inkscape:label="Invert"
       x="0"
       y="0"
       width="1"
       height="1"
       inkscape:menu="Color"
       inkscape:menu-tooltip="Invert colors"
       color-interpolation-filters="sRGB">
      <feColorMatrix
         id="feColorMatrix3097-5-1-1"
         type="saturate"
         values="1"
         result="fbSourceGraphic" />
      <feColorMatrix
         id="feColorMatrix3099-2-5-5"
         in="fbSourceGraphic"
         values="-1 0 0 0 1 0 -1 0 0 1 0 0 -1 0 1 0 0 0 1 0 " />
    </filter>
    <filter
       id="filter3101-9-8-9"
       inkscape:label="Invert"
       x="0"
       y="0"
       width="1"
       height="1"
       inkscape:menu="Color"
       inkscape:menu-tooltip="Invert colors"
       color-interpolation-filters="sRGB">
      <feColorMatrix
         id="feColorMatrix3103-6-1-3"
         type="saturate"
         values="1"
         result="fbSourceGraphic" />
      <feColorMatrix
         id="feColorMatrix3105-0-2-8"
         in="fbSourceGraphic"
         values="-1 0 0 0 1 0 -1 0 0 1 0 0 -1 0 1 0 0 0 1 0 " />
    </filter>
    <filter
       id="filter3107-1-3-4"
       inkscape:label="Invert"
       x="0"
       y="0"
       width="1"
       height="1"
       inkscape:menu="Color"
       inkscape:menu-tooltip="Invert colors"
       color-interpolation-filters="sRGB">
      <feColorMatrix
         id="feColorMatrix3109-0-6-2"
         type="saturate"
         values="1"
         result="fbSourceGraphic" />
      <feColorMatrix
         id="feColorMatrix3111-4-1-8"
         in="fbSourceGraphic"
         values="-1 0 0 0 1 0 -1 0 0 1 0 0 -1 0 1 0 0 0 1 0 " />
    </filter>
    <filter
       id="filter3113-7-9-5"
       inkscape:label="Invert"
       x="0"
       y="0"
       width="1"
       height="1"
       inkscape:menu="Color"
       inkscape:menu-tooltip="Invert colors"
       color-interpolation-filters="sRGB">
      <feColorMatrix
         id="feColorMatrix3115-0-5-4"
         type="saturate"
         values="1"
         result="fbSourceGraphic" />
      <feColorMatrix
         id="feColorMatrix3117-8-7-5"
         in="fbSourceGraphic"
         values="-1 0 0 0 1 0 -1 0 0 1 0 0 -1 0 1 0 0 0 1 0 " />
    </filter>
    <linearGradient
       inkscape:collect="always"
       xlink:href="#linearGradient3234-7-8-9"
       id="linearGradient4429-6"
       gradientUnits="userSpaceOnUse"
       gradientTransform="translate(25.289529,-107.26233)"
       x1="160"
       y1="104.28571"
       x2="459.04764"
       y2="416.66666" />
    <linearGradient
       id="linearGradient5527">
      <stop
         style="stop-color:#ffffff;stop-opacity:1;"
         offset="0"
         id="stop5529" />
      <stop
         style="stop-color:#ffffff;stop-opacity:0;"
         offset="1"
         id="stop5531" />
    </linearGradient>
    <filter
       id="filter3119-2-3-2"
       inkscape:label="Invert"
       x="0"
       y="0"
       width="1"
       height="1"
       inkscape:menu="Color"
       inkscape:menu-tooltip="Invert colors"
       color-interpolation-filters="sRGB">
      <feColorMatrix
         id="feColorMatrix3121-4-0-5"
         type="saturate"
         values="1"
         result="fbSourceGraphic" />
      <feColorMatrix
         id="feColorMatrix3123-7-1-0"
         in="fbSourceGraphic"
         values="-1 0 0 0 1 0 -1 0 0 1 0 0 -1 0 1 0 0 0 1 0 " />
    </filter>
    <linearGradient
       inkscape:collect="always"
       xlink:href="#linearGradient3156-4-2-1"
       id="linearGradient4427-5"
       gradientUnits="userSpaceOnUse"
       gradientTransform="translate(-234.71047,-107.26233)"
       x1="918.09521"
       y1="0"
       x2="1000"
       y2="507.61908" />
    <linearGradient
       id="linearGradient3156-4-2-1">
      <stop
         style="stop-color:#ffffff;stop-opacity:1;"
         offset="0"
         id="stop3158-3-7-3" />
      <stop
         style="stop-color:#ffffff;stop-opacity:0"
         offset="1"
         id="stop3160-1-8-3" />
    </linearGradient>
    <filter
       id="filter3125-4-2-5"
       inkscape:label="Invert"
       x="0"
       y="0"
       width="1"
       height="1"
       inkscape:menu="Color"
       inkscape:menu-tooltip="Invert colors"
       color-interpolation-filters="sRGB">
      <feColorMatrix
         id="feColorMatrix3127-6-4-7"
         type="saturate"
         values="1"
         result="fbSourceGraphic" />
      <feColorMatrix
         id="feColorMatrix3129-9-6-2"
         in="fbSourceGraphic"
         values="-1 0 0 0 1 0 -1 0 0 1 0 0 -1 0 1 0 0 0 1 0 " />
    </filter>
    <linearGradient
       inkscape:collect="always"
       xlink:href="#linearGradient3214-5-9-8"
       id="linearGradient4435-7-6"
       gradientUnits="userSpaceOnUse"
       gradientTransform="matrix(0.6321839,0,0,0.6737146,471.49643,284.28016)"
       x1="315.2381"
       y1="1129.8051"
       x2="1920"
       y2="828.85266" />
    <linearGradient
       inkscape:collect="always"
       id="linearGradient3214-5-9-8">
      <stop
         style="stop-color:#ffffff;stop-opacity:1"
         offset="0"
         id="stop3216-8-4-2" />
      <stop
         style="stop-color:#ffffff;stop-opacity:0"
         offset="1"
         id="stop3218-7-7-2" />
    </linearGradient>
    <filter
       id="filter3101-9-8-9-4"
       inkscape:label="Invert"
       x="0"
       y="0"
       width="1"
       height="1"
       inkscape:menu="Color"
       inkscape:menu-tooltip="Invert colors"
       color-interpolation-filters="sRGB">
      <feColorMatrix
         id="feColorMatrix3103-6-1-3-2"
         type="saturate"
         values="1"
         result="fbSourceGraphic" />
      <feColorMatrix
         id="feColorMatrix3105-0-2-8-4"
         in="fbSourceGraphic"
         values="-1 0 0 0 1 0 -1 0 0 1 0 0 -1 0 1 0 0 0 1 0 " />
    </filter>
    <linearGradient
       inkscape:collect="always"
       xlink:href="#linearGradient3301-2-5-59"
       id="linearGradient4449-6"
       gradientUnits="userSpaceOnUse"
       gradientTransform="translate(-234.71047,-107.26233)"
       x1="1849.498"
       y1="1175.0056"
       x2="1921.5383"
       y2="1206.2761" />
    <linearGradient
       inkscape:collect="always"
       id="linearGradient3301-2-5-59">
      <stop
         style="stop-color:#000000;stop-opacity:1;"
         offset="0"
         id="stop3303-2-6-0" />
      <stop
         style="stop-color:#000000;stop-opacity:0;"
         offset="1"
         id="stop3305-6-6-8" />
    </linearGradient>
    <filter
       id="filter3059-4-7-3"
       inkscape:label="Invert"
       x="0"
       y="0"
       width="1"
       height="1"
       inkscape:menu="Color"
       inkscape:menu-tooltip="Invert colors"
       color-interpolation-filters="sRGB">
      <feColorMatrix
         id="feColorMatrix3061-1-6-6"
         type="saturate"
         values="1"
         result="fbSourceGraphic" />
      <feColorMatrix
         id="feColorMatrix3063-2-1-4"
         in="fbSourceGraphic"
         values="-1 0 0 0 1 0 -1 0 0 1 0 0 -1 0 1 0 0 0 1 0 " />
    </filter>
    <linearGradient
       inkscape:collect="always"
       xlink:href="#linearGradient3301-2-5-59"
       id="linearGradient5827"
       gradientUnits="userSpaceOnUse"
       gradientTransform="translate(-234.71047,-107.26233)"
       x1="1849.498"
       y1="1175.0056"
       x2="1921.5383"
       y2="1206.2761" />
    <linearGradient
       inkscape:collect="always"
       xlink:href="#linearGradient3214-5-6"
       id="linearGradient4435-2"
       gradientUnits="userSpaceOnUse"
       gradientTransform="matrix(0.6321839,0,0,0.6737146,471.49643,284.28016)"
       x1="315.2381"
       y1="1129.8051"
       x2="1920"
       y2="828.85266" />
    <linearGradient
       inkscape:collect="always"
       id="linearGradient3214-5-6">
      <stop
         style="stop-color:#ffffff;stop-opacity:1"
         offset="0"
         id="stop3216-8-5" />
      <stop
         style="stop-color:#ffffff;stop-opacity:0"
         offset="1"
         id="stop3218-7-1" />
    </linearGradient>
    <filter
       id="filter3101-9-8-8"
       inkscape:label="Invert"
       x="0"
       y="0"
       width="1"
       height="1"
       inkscape:menu="Color"
       inkscape:menu-tooltip="Invert colors"
       color-interpolation-filters="sRGB">
      <feColorMatrix
         id="feColorMatrix3103-6-1-7"
         type="saturate"
         values="1"
         result="fbSourceGraphic" />
      <feColorMatrix
         id="feColorMatrix3105-0-2-9"
         in="fbSourceGraphic"
         values="-1 0 0 0 1 0 -1 0 0 1 0 0 -1 0 1 0 0 0 1 0 " />
    </filter>
    <linearGradient
       inkscape:collect="always"
       xlink:href="#linearGradient3214-5-6"
       id="linearGradient4433-5"
       gradientUnits="userSpaceOnUse"
       gradientTransform="matrix(0.7931034,0,0,0.8421432,162.53091,82.165781)"
       x1="315.2381"
       y1="1129.8051"
       x2="1920"
       y2="828.85266" />
    <filter
       id="filter3107-1-3-45"
       inkscape:label="Invert"
       x="0"
       y="0"
       width="1"
       height="1"
       inkscape:menu="Color"
       inkscape:menu-tooltip="Invert colors"
       color-interpolation-filters="sRGB">
      <feColorMatrix
         id="feColorMatrix3109-0-6-1"
         type="saturate"
         values="1"
         result="fbSourceGraphic" />
      <feColorMatrix
         id="feColorMatrix3111-4-1-2"
         in="fbSourceGraphic"
         values="-1 0 0 0 1 0 -1 0 0 1 0 0 -1 0 1 0 0 0 1 0 " />
    </filter>
    <linearGradient
       inkscape:collect="always"
       xlink:href="#linearGradient3214-5-6"
       id="linearGradient4431-7"
       gradientUnits="userSpaceOnUse"
       gradientTransform="translate(-234.71047,-107.26233)"
       x1="315.2381"
       y1="1129.8051"
       x2="1920"
       y2="828.85266" />
    <filter
       id="filter3113-7-9-4"
       inkscape:label="Invert"
       x="0"
       y="0"
       width="1"
       height="1"
       inkscape:menu="Color"
       inkscape:menu-tooltip="Invert colors"
       color-interpolation-filters="sRGB">
      <feColorMatrix
         id="feColorMatrix3115-0-5-8"
         type="saturate"
         values="1"
         result="fbSourceGraphic" />
      <feColorMatrix
         id="feColorMatrix3117-8-7-2"
         in="fbSourceGraphic"
         values="-1 0 0 0 1 0 -1 0 0 1 0 0 -1 0 1 0 0 0 1 0 " />
    </filter>
    <linearGradient
       y2="828.85266"
       x2="1920"
       y1="1129.8051"
       x1="315.2381"
       gradientTransform="translate(-234.71047,-107.26233)"
       gradientUnits="userSpaceOnUse"
       id="linearGradient5867"
       xlink:href="#linearGradient3214-5-6"
       inkscape:collect="always" />
  </defs>
  <sodipodi:namedview
     id="base"
     pagecolor="#ffffff"
     bordercolor="#666666"
     borderopacity="1.0"
     inkscape:pageopacity="0.0"
     inkscape:pageshadow="2"
     inkscape:zoom="1.28"
     inkscape:cx="149.31965"
     inkscape:cy="149.57446"
     inkscape:document-units="px"
     inkscape:current-layer="layer2"
     showgrid="false"
     inkscape:window-width="1218"
     inkscape:window-height="600"
     inkscape:window-x="331"
     inkscape:window-y="24"
     inkscape:window-maximized="0"
     fit-margin-top="0"
     fit-margin-left="0"
     fit-margin-right="0"
     fit-margin-bottom="0" />
  <metadata
     id="metadata7">
    <rdf:RDF>
      <cc:Work
         rdf:about="">
        <dc:format>image/svg+xml</dc:format>
        <dc:type
           rdf:resource="http://purl.org/dc/dcmitype/StillImage" />
        <dc:title></dc:title>
      </cc:Work>
    </rdf:RDF>
  </metadata>
  <g
     inkscape:label="basic"
     inkscape:groupmode="layer"
     id="layer1"
     transform="translate(3.3833658e-7,-304.65216)"
     style="display:inline"
     sodipodi:insensitive="true">
    <rect
       style="fill:url(#linearGradient3948);fill-opacity:1;stroke:none"
       id="rect2995"
       width="1052.36"
       height="112.84342"
       x="-3.3833658e-07"
       y="304.65216" />
    <rect
       style="fill:url(#linearGradient3990);fill-opacity:1;stroke:none;display:inline"
       id="rect2995-8"
       width="1052.36"
       height="2.909956"
       x="-3.3833658e-07"
       y="416.72165" />
  </g>
  <g
     inkscape:groupmode="layer"
     id="layer2"
     inkscape:label="waves"
     style="display:inline">
    <path
       inkscape:connector-curvature="0"
       style="opacity:0.203;fill:url(#linearGradient4427);fill-opacity:1;stroke:none;filter:url(#filter3125-4-2)"
       d="m 1685.2895,-107.26233 -1919.99997,0 0,680 c 611.7531,0.1726 1402.86107,-428.26377 1919.99997,-440 l 0,-240 z"
       id="path3154"
       sodipodi:nodetypes="ccccc"
       transform="matrix(0.53487983,0,0,0.24576558,-3.0573238,-320.5103)" />
    <path
       inkscape:connector-curvature="0"
       sodipodi:nodetypes="ccccc"
       id="path3242"
       d="m -234.71047,572.73767 c 205.714279,-394.28571 893.52495,-567.6132188 700,-680 l 240,0 c -321.25943,204.769591 -859.99149,711.33797 -940,1060 l 0,-380 z"
       style="opacity:0.203;fill:url(#linearGradient4429);fill-opacity:1;stroke:none;filter:url(#filter3119-2-3)"
       transform="matrix(0.53487983,0,0,0.24576558,-3.0573238,-320.5103)" />
    <path
       inkscape:connector-curvature="0"
       style="opacity:0.203;fill:url(#linearGradient4431);fill-opacity:1;stroke:none;filter:url(#filter3113-7-9)"
       d="M -54.710471,1092.7377 C 447.27898,852.59213 584.05154,330.86716 1685.2895,552.73767 l 0,60 C 733.98705,368.11772 218.28521,1030.3607 185.28953,1092.7377 l -240.000001,0 z"
       id="path3212"
       sodipodi:nodetypes="ccccc"
       transform="matrix(0.53487983,0,0,0.24576558,-3.0573238,-320.5103)" />
    <path
       inkscape:connector-curvature="0"
       sodipodi:nodetypes="ccccc"
       id="path3222"
       d="M 305.28953,1092.7377 C 703.41909,890.50073 811.89393,451.13357 1685.2895,637.98032 l 0,50.5286 C 930.80823,482.50388 521.80335,1040.2073 495.63436,1092.7377 l -190.34483,0 z"
       style="opacity:0.203;fill:url(#linearGradient4433);fill-opacity:1;stroke:none;filter:url(#filter3107-1-3)"
       transform="matrix(0.53487983,0,0,0.24576558,-3.0573238,-320.5103)" />
    <path
       inkscape:connector-curvature="0"
       style="opacity:0.203;fill:url(#linearGradient4435);fill-opacity:1;stroke:none;filter:url(#filter3101-9-8)"
       d="M 585.28953,1092.7377 C 902.63913,930.94807 989.10463,579.45439 1685.2895,728.93179 l 0,40.42288 C 1163.8914,587.40778 719.77777,1044.9991 737.01367,1092.7377 l -151.72414,0 z"
       id="path3226"
       sodipodi:nodetypes="ccccc"
       transform="matrix(0.53487983,0,0,0.24576558,-3.0573238,-320.5103)" />
    <path
       inkscape:connector-curvature="0"
       style="opacity:0.203;fill:url(#linearGradient4437);fill-opacity:1;stroke:none;filter:url(#filter3095-6-3)"
       d="m -234.71047,372.73767 c 213.333329,-253.33333 801.14402,-432.375127 440,-480 l 240,0 c -16.49753,48.579112 -666.65817,450.38559 -680,620 l 0,-140 z"
       id="path3232"
       sodipodi:nodetypes="ccccc"
       transform="matrix(0.53487983,0,0,0.24576558,-3.0573238,-320.5103)" />
    <path
       inkscape:connector-curvature="0"
       style="opacity:0.053;fill:url(#linearGradient4439);fill-opacity:1;stroke:none;filter:url(#filter3089-0-8)"
       d="M -234.71047,1012.7377 C 143.47074,563.89156 767.66993,-95.428682 1565.2895,-107.26233 l 120,0 0,120.000001 c -2.0623,-72.518426 -168.7666,38.9542 -231.9396,28.96631 C 1068.3642,-19.1637 -84.096471,620.51274 -174.71047,1092.7377 l -60,0 0,-80 z"
       id="path3246"
       sodipodi:nodetypes="ccccsccc"
       transform="matrix(0.53487983,0,0,0.24576558,-3.0573238,-320.5103)" />
    <path
       inkscape:connector-curvature="0"
       style="opacity:0.203;fill:url(#radialGradient4441);fill-opacity:1;stroke:none;filter:url(#filter3083-8-0)"
       d="m -194.71047,552.73767 c 100.671919,-119.69553 209.027009,-227.43946 340,-300 0,0 -61.984131,-0.39683 -180.000001,100 -116.746029,99.12698 -159.999999,200 -159.999999,200 z"
       id="path3256"
       sodipodi:nodetypes="cczc"
       transform="matrix(0.53487983,0,0,0.24576558,-3.0573238,-320.5103)" />
    <path
       inkscape:connector-curvature="0"
       sodipodi:nodetypes="cczc"
       id="path3266"
       d="m 640.99809,220.77899 c 115.64643,-77.28553 607.32061,-277.837964 816.67241,-300.399244 0,0 -263.7029,26.356429 -409.2391,79.52122516 C 904.52703,52.315951 640.99809,220.77899 640.99809,220.77899 z"
       style="opacity:0.203;fill:url(#radialGradient4443);fill-opacity:1;stroke:none;filter:url(#filter3077-0-7)"
       transform="matrix(0.53487983,0,0,0.24576558,-3.0573238,-320.5103)" />
    <path
       inkscape:connector-curvature="0"
       style="opacity:0.203;fill:url(#radialGradient4445);fill-opacity:1;stroke:none;filter:url(#filter3071-8-6)"
       d="m 501.52704,-89.519825 c 0,0 16.26249,14.757496 3.76249,42.257496 -12.5,27.5 -50,70 -50,70 46.93535,-41.13443 88.77878,-83.686042 121.32275,-96.613757 -33.81241,4.056528 -44.99147,5.972383 -75.08524,-15.643739 z"
       id="path3270"
       sodipodi:nodetypes="czccc"
       transform="matrix(0.53487983,0,0,0.24576558,-3.0573238,-320.5103)" />
    <path
       inkscape:connector-curvature="0"
       sodipodi:nodetypes="czccc"
       id="path3280"
       d="m 323.93739,-98.549807 c 0,0 6.86111,14.337524 3.76249,42.257496 -3.09377,27.876249 -54.89124,70.752502 -54.89124,70.752502 44.3016,-30.599454 93.67002,-84.438544 126.21399,-97.366259 -33.81241,4.056528 -44.99147,5.972383 -75.08524,-15.643739 z"
       style="opacity:0.203;fill:url(#radialGradient4447);fill-opacity:1;stroke:none;filter:url(#filter3065-8-3)"
       transform="matrix(0.53487983,0,0,0.24576558,-3.0573238,-320.5103)" />
    <text
       xml:space="preserve"
       style="font-size:16px;font-style:normal;font-weight:bold;writing-mode:lr-tb;opacity:0.203;fill:url(#linearGradient4449);fill-opacity:1;stroke:none;filter:url(#filter3059-4-7);font-family:Liberation Mono"
       x="1609.1021"
       y="1084.3314"
       id="text3297"
       transform="matrix(0.53487983,0,0,0.24576558,-3.0573238,-320.5103)"><tspan
         sodipodi:role="line"
         id="tspan3299"
         x="1609.1021"
         y="1084.3314"
         style="fill:url(#linearGradient4449);fill-opacity:1">W.Smith</tspan></text>
    <path
       inkscape:connector-curvature="0"
       sodipodi:nodetypes="ccccc"
       id="path3242-3"
       d="m -234.71047,572.73767 c 205.714279,-394.28571 893.52495,-567.6132188 700,-680 l 240,0 c -321.25943,204.769591 -859.99149,711.33797 -940,1060 l 0,-380 z"
       style="opacity:0.203;fill:url(#linearGradient4429-6);fill-opacity:1;stroke:none;display:inline;filter:url(#filter3119-2-3-2)"
       transform="matrix(0.45973102,0,0,0.09100368,105.36031,6.8925719)" />
    <path
       inkscape:connector-curvature="0"
       style="opacity:0.203;fill:url(#linearGradient4437-3);fill-opacity:1;stroke:none;display:inline;filter:url(#filter3095-6-3-0)"
       d="m -234.71047,372.73767 c 213.333329,-253.33333 801.14402,-432.375127 440,-480 l 240,0 c -16.49753,48.579112 -666.65817,450.38559 -680,620 l 0,-140 z"
       id="path3232-4"
       sodipodi:nodetypes="ccccc"
       transform="matrix(0.45973102,0,0,0.09100368,105.36031,6.8925719)" />
    <path
       inkscape:connector-curvature="0"
       style="opacity:0.053;fill:url(#linearGradient4439-0);fill-opacity:1;stroke:none;display:inline;filter:url(#filter3089-0-8-1)"
       d="M -234.71047,1012.7377 C 143.47074,563.89156 767.66993,-95.428682 1565.2895,-107.26233 l 120,0 0,120.000001 c -2.0623,-72.518426 -168.7666,38.9542 -231.9396,28.96631 C 1068.3642,-19.1637 -84.096471,620.51274 -174.71047,1092.7377 l -60,0 0,-80 z"
       id="path3246-8"
       sodipodi:nodetypes="ccccsccc"
       transform="matrix(0.45973102,0,0,0.09100368,117.36031,6.8925719)" />
    <path
       inkscape:connector-curvature="0"
       style="opacity:0.203;fill:url(#radialGradient4441-4);fill-opacity:1;stroke:none;display:inline;filter:url(#filter3083-8-0-7)"
       d="m -194.71047,552.73767 c 100.671919,-119.69553 209.027009,-227.43946 340,-300 0,0 -61.984131,-0.39683 -180.000001,100 -116.746029,99.12698 -159.999999,200 -159.999999,200 z"
       id="path3256-4"
       sodipodi:nodetypes="cczc"
       transform="matrix(0.45973102,0,0,0.09100368,105.36031,6.8925719)" />
    <path
       inkscape:connector-curvature="0"
       sodipodi:nodetypes="cczc"
       id="path3266-1"
       d="m 640.99809,220.77899 c 115.64643,-77.28553 607.32061,-277.837964 816.67241,-300.399244 0,0 -263.7029,26.356429 -409.2391,79.52122516 C 904.52703,52.315951 640.99809,220.77899 640.99809,220.77899 z"
       style="opacity:0.203;fill:url(#radialGradient4443-1);fill-opacity:1;stroke:none;display:inline;filter:url(#filter3077-0-7-5)"
       transform="matrix(0.45973102,0,0,0.09100368,125.36031,6.8925719)" />
    <path
       inkscape:connector-curvature="0"
       style="opacity:0.203;fill:url(#radialGradient4445-9);fill-opacity:1;stroke:none;display:inline;filter:url(#filter3071-8-6-8)"
       d="m 501.52704,-89.519825 c 0,0 16.26249,14.757496 3.76249,42.257496 -12.5,27.5 -50,70 -50,70 46.93535,-41.13443 88.77878,-83.686042 121.32275,-96.613757 -33.81241,4.056528 -44.99147,5.972383 -75.08524,-15.643739 z"
       id="path3270-8"
       sodipodi:nodetypes="czccc"
       transform="matrix(0.45973102,0,0,0.09100368,105.36031,6.8925719)" />
    <path
       inkscape:connector-curvature="0"
       sodipodi:nodetypes="czccc"
       id="path3280-7"
       d="m 323.93739,-98.549807 c 0,0 6.86111,14.337524 3.76249,42.257496 -3.09377,27.876249 -54.89124,70.752502 -54.89124,70.752502 44.3016,-30.599454 93.67002,-84.438544 126.21399,-97.366259 -33.81241,4.056528 -44.99147,5.972383 -75.08524,-15.643739 z"
       style="opacity:0.203;fill:url(#radialGradient4447-3);fill-opacity:1;stroke:none;display:inline;filter:url(#filter3065-8-3-9)"
       transform="matrix(0.45973102,0,0,0.09100368,105.36031,6.8925719)" />
    <text
       xml:space="preserve"
       style="font-size:16px;font-style:normal;font-weight:bold;writing-mode:lr-tb;opacity:0.203;fill:url(#linearGradient4449-0);fill-opacity:1;stroke:none;display:inline;filter:url(#filter3059-4-7-7);font-family:Liberation Mono"
       x="1609.1021"
       y="1084.3314"
       id="text3297-9"
       transform="matrix(-0.44806416,0.10291318,-0.02037165,-0.08869423,1677.2397,-47.896372)"><tspan
         sodipodi:role="line"
         id="tspan3299-1"
         x="1609.1021"
         y="1084.3314"
         style="fill:url(#linearGradient4449-0);fill-opacity:1">W.Smith</tspan></text>
    <path
       inkscape:connector-curvature="0"
       style="opacity:0.203;fill:url(#linearGradient5867);fill-opacity:1;stroke:none;display:inline;filter:url(#filter3113-7-9-4)"
       d="M -54.710471,1092.7377 C 447.27898,852.59213 584.05154,330.86716 1685.2895,552.73767 l 0,60 C 733.98705,368.11772 218.28521,1030.3607 185.28953,1092.7377 l -240.000001,0 z"
       id="path3212-0"
       sodipodi:nodetypes="ccccc"
       transform="matrix(-0.22763885,0.05228501,-0.02402382,-0.10459507,1149.9973,78.12492)" />
    <path
       inkscape:connector-curvature="0"
       sodipodi:nodetypes="ccccc"
       id="path3222-3"
       d="M 305.28953,1092.7377 C 703.41909,890.50073 811.89393,451.13357 1685.2895,637.98032 l 0,50.5286 C 930.80823,482.50388 521.80335,1040.2073 495.63436,1092.7377 l -190.34483,0 z"
       style="opacity:0.203;fill:url(#linearGradient4433-5);fill-opacity:1;stroke:none;display:inline;filter:url(#filter3107-1-3-45)"
       transform="matrix(-0.22763885,0.05228501,-0.02402382,-0.10459507,1149.9973,78.12492)" />
    <path
       inkscape:connector-curvature="0"
       style="opacity:0.203;fill:url(#linearGradient4435-2);fill-opacity:1;stroke:none;display:inline;filter:url(#filter3101-9-8-8)"
       d="M 585.28953,1092.7377 C 902.63913,930.94807 989.10463,579.45439 1685.2895,728.93179 l 0,40.42288 C 1163.8914,587.40778 719.77777,1044.9991 737.01367,1092.7377 l -151.72414,0 z"
       id="path3226-3"
       sodipodi:nodetypes="ccccc"
       transform="matrix(-0.22763885,0.05228501,-0.02402382,-0.10459507,1149.9973,78.12492)" />
    <text
       xml:space="preserve"
       style="font-size:16px;font-style:normal;font-weight:bold;writing-mode:lr-tb;opacity:0.203;fill:url(#linearGradient4449-6);fill-opacity:1;stroke:none;display:inline;filter:url(#filter3059-4-7-3);font-family:Liberation Mono"
       x="1609.1021"
       y="1084.3314"
       id="text3297-97"
       transform="matrix(-0.22763885,0.05228501,-0.02402382,-0.10459507,1137.9973,78.12492)"><tspan
         sodipodi:role="line"
         id="tspan3299-19"
         x="1609.1021"
         y="1084.3314"
         style="fill:url(#linearGradient4449-6);fill-opacity:1">W.Smith</tspan></text>
  </g>
  <g
     inkscape:groupmode="layer"
     id="layer3"
     inkscape:label="logo_deusto"
     sodipodi:insensitive="true"
     style="display:inline">
    <path
       style="fill:#ffffff;fill-opacity:1;display:inline"
       d="m 963.58611,26.645399 -0.022,2.3738 c -0.01,1.30636 -0.022,11.57151 -0.028,22.81421 -0.012,20.2559 -0.01,20.45109 0.1008,21.17382 0.1857,1.22162 0.5019,2.57526 0.8566,3.67828 0.2172,0.67553 0.3065,0.92952 0.571,1.60678 0.2278,0.58311 0.9702,2.13564 1.3045,2.7265 0.062,0.10912 0.1442,0.25278 0.1848,0.32473 0.397,0.70358 1.489,2.27186 2.217,3.17999 0.5567,0.69448 2.0358,2.19162 2.7713,2.80488 0.163,0.13593 0.3848,0.32149 0.4927,0.4143 0.7093,0.60987 2.7359,1.9987 2.9168,1.9987 0.027,0 0.05,0.0258 0.05,0.056 0,0.0302 0.023,0.056 0.05,0.056 0.028,0 0.232,0.10421 0.4535,0.23512 0.4991,0.29505 1.4817,0.77089 2.2954,1.10854 0.1964,0.0815 0.4357,0.17944 0.5263,0.21833 0.091,0.0389 0.247,0.10316 0.3527,0.13997 0.1057,0.0368 0.2419,0.0874 0.3023,0.11198 0.1728,0.0703 1.2812,0.4185 1.7188,0.54305 1.2703,0.36154 3.2401,0.68273 4.7364,0.767 1.1663,0.0657 1.8965,0.0666 2.8832,0.006 0.9245,-0.0571 2.1918,-0.18671 2.609,-0.26873 0.1359,-0.0267 0.3825,-0.0742 0.5486,-0.10637 0.767,-0.14873 2.4651,-0.57435 2.665,-0.66623 0.06,-0.0277 0.3788,-0.14123 0.711,-0.25193 0.3323,-0.1107 0.7118,-0.24488 0.8398,-0.30234 0.128,-0.0575 0.2447,-0.10636 0.2631,-0.10636 0.075,0 1.3423,-0.59001 1.8644,-0.86777 0.242,-0.12876 0.5471,-0.28515 0.683,-0.35272 0.1359,-0.0676 0.2586,-0.14532 0.2687,-0.16796 0.01,-0.0226 0.036,-0.0392 0.062,-0.0392 0.08,0 1.50739,-0.89573 1.92589,-1.20929 0.1057,-0.0792 0.3395,-0.25327 0.5207,-0.38632 1.0645,-0.78147 2.9096,-2.5131 3.7343,-3.50471 0.2108,-0.25348 0.4109,-0.49279 0.4422,-0.52626 0.1928,-0.20596 0.8326,-1.05321 1.1813,-1.5676 0.2283,-0.33672 0.767,-1.16642 0.767,-1.1813 0,-0.01 0.1034,-0.20262 0.2352,-0.42548 0.3486,-0.58975 1.0903,-2.11388 1.3828,-2.84408 0.5932,-1.48071 1.1532,-3.42334 1.3437,-4.66363 0.035,-0.22654 0.086,-0.5118 0.112,-0.63264 0.047,-0.21361 0.1084,-0.79782 0.2183,-2.02667 0.034,-0.37809 0.056,-8.67048 0.056,-22.42231 l 0,-21.81767 -23.58679,0 -23.5812,0 z m 17.2157,3.72867 c 1.7823,-0.008 5.3244,0.0175 5.4362,0.0504 0.2932,0.0862 0.4014,0.16912 0.515,0.3919 0.104,0.2037 0.1121,0.32468 0.112,2.15546 0,1.06592 -0.019,3.17942 -0.039,4.6972 -0.02,1.51778 -0.049,2.7545 -0.067,2.7545 -0.018,-9.5e-4 -0.092,-0.0818 -0.1679,-0.18476 -0.2516,-0.34304 -0.117,-0.32938 -3.6111,-0.34709 l -3.1968,-0.0168 -0.01,-0.17916 c -0.01,-1.16932 0.01,-9.28722 0.022,-9.29923 0.011,-0.0107 0.408,-0.0197 1.0021,-0.0224 z m 10.3797,0.056 c 1.7185,-0.002 3.1921,-0.002 3.2752,0 l 0.1512,0 0,4.7532 0,4.7476 -3.236,0 c -2.7478,0 -3.2535,0.0149 -3.3872,0.084 -0.087,0.0447 -0.2256,0.15877 -0.3079,0.25756 l -0.1512,0.18474 0,-4.67482 c 0,-4.91587 -0.01,-4.8381 0.2296,-5.13389 0.1641,-0.2055 0.2396,-0.21349 3.4263,-0.21835 z m -13.2126,1.10293 0.4367,0 0.4422,0 0,4.69161 0,4.69721 3.6951,0 3.6895,0 0.1231,0.26313 c 0.1605,0.34947 0.3764,0.47409 0.8174,0.47588 0.2968,9.5e-4 0.3691,-0.0188 0.5543,-0.16797 0.1161,-0.0935 0.2343,-0.25544 0.2687,-0.35831 l 0.067,-0.18474 0.8118,0 c 0.4488,0 2.1317,-0.009 3.7399,-0.0168 l 2.928,-0.0112 0.011,-4.67482 0.017,-4.66922 0.4255,-0.0112 0.4255,-0.0112 0,5.12269 0,5.1227 -0.3695,0 c -0.2039,0.002 -1.9628,0 -3.9022,0 l -3.5215,0 -0.1288,0.16796 c -0.1387,0.18761 -0.4075,0.37008 -0.6998,0.47589 -0.3127,0.11321 -0.8238,0.13012 -1.1477,0.0392 -0.3373,-0.0947 -0.4357,-0.15507 -0.7838,-0.49267 l -0.2519,-0.24634 -3.8127,-0.0112 -3.807,-0.0168 -0.017,-5.09469 -0.011,-5.08911 z m 26.68839,15.97275 0,0.33031 0,0.32472 1.3045,0.43108 c 1.4451,0.47897 1.3648,0.42536 1.2933,0.91258 l -0.028,0.20154 -3.0961,0 -3.096,0 -0.034,-0.12317 c -0.041,-0.16277 0,-0.5223 0.062,-0.58225 0.028,-0.0258 0.1995,-0.0901 0.3807,-0.13997 0.1813,-0.0498 0.3819,-0.11666 0.4423,-0.14554 0.095,-0.0456 0.7004,-0.23515 1.4277,-0.4535 0.2194,-0.0659 0.2189,-0.0705 0.2463,-0.39749 l 0.028,-0.32473 0.5319,-0.0168 0.5374,-0.0168 z m -17.62989,0.12876 c 0.1342,-0.0221 0.328,0.0217 1.3492,0.31352 0.2334,0.0667 0.3711,0.10783 1.1813,0.33031 0.3474,0.0954 0.789,0.2172 0.9854,0.27434 0.6997,0.20361 1.3479,0.38452 1.3884,0.38631 0.023,6.3e-4 0.039,0.16195 0.039,0.35831 l 0,0.35831 -4.8483,0 c -2.6681,-2e-5 -4.8675,-0.0191 -4.8876,-0.0392 -0.053,-0.0532 -0.047,-0.43022 0.011,-0.58225 0.039,-0.10175 0.1255,-0.14779 0.3975,-0.21836 0.1917,-0.0497 0.5735,-0.15275 0.8454,-0.22953 0.4306,-0.12163 0.9906,-0.27549 2.0323,-0.55427 0.151,-0.0404 0.5209,-0.14162 0.823,-0.22394 0.302,-0.0823 0.6075,-0.16101 0.683,-0.17355 z m -16.8797,0.26313 c 0.04,0 0.5216,0.15048 1.0749,0.33591 0.5533,0.18544 1.0795,0.35686 1.1701,0.3807 0.091,0.0239 0.3243,0.0979 0.5207,0.16798 l 0.3583,0.12876 0.017,0.34152 0.017,0.34709 -0.8958,0 c -0.4923,6e-5 -1.8694,0.0138 -3.0624,0.0336 -2.4855,0.0412 -2.3231,0.077 -2.2954,-0.44788 l 0.017,-0.31913 0.3023,-0.10078 c 0.1661,-0.0565 0.4973,-0.16246 0.739,-0.23514 0.2416,-0.0727 0.7849,-0.24827 1.2037,-0.38631 0.4188,-0.13802 0.7944,-0.24633 0.8342,-0.24633 z m 16.9077,0.19036 c -0.1828,0.0194 -0.3497,0.13482 -0.3863,0.33031 -0.04,0.21454 0.012,0.41037 0.1343,0.50387 0.1532,0.1167 0.5534,0.0862 0.6719,-0.0504 0.1599,-0.18443 0.1823,-0.35141 0.067,-0.54867 -0.1054,-0.18043 -0.3043,-0.25453 -0.4871,-0.23513 z m -14.7019,2.14425 0.4815,0 0.017,3.68945 c 0.01,2.03126 0.01,3.69506 0,3.69506 -0.01,-6.3e-4 -0.2383,-0.15073 -0.5039,-0.3303 l -0.4815,-0.32472 -0.6438,-0.0168 -0.6382,-0.0168 -0.017,-0.49267 c -0.016,-0.54403 -0.068,-0.69798 -0.2688,-0.78941 -0.2024,-0.0922 -0.3286,-0.0729 -0.4983,0.0728 -0.1435,0.12334 -0.1535,0.16586 -0.1791,0.64383 l -0.028,0.51507 -0.6326,0.028 -0.6327,0.0224 -0.4647,0.31912 -0.4646,0.31353 -0.034,-1.08615 c -0.019,-0.59624 -0.041,-2.23819 -0.045,-3.65027 l -0.01,-2.56413 2.2786,-0.0168 c 1.2535,-0.007 2.4958,-0.0112 2.7601,-0.0112 z m 1.1533,0 1.9707,0.006 c 1.0837,0.004 3.0507,0.007 4.3725,0.0112 l 2.4018,0.006 -0.011,3.67828 -0.017,3.67826 -2.525,0.0168 c -1.3894,0.009 -3.3596,0.008 -4.3781,0 l -1.8531,-0.0113 0.017,-3.69506 0.022,-3.68946 z m 9.3496,0.028 4.227,0 4.2269,0 -0.01,2.45215 c 0,1.35168 -0.021,3.02148 -0.039,3.70629 l -0.034,1.24287 -0.2184,-0.0952 c -0.1208,-0.0542 -0.4613,-0.20799 -0.7558,-0.33591 l -0.5374,-0.22953 0,-0.52068 c 0,-0.477 -0.01,-0.52535 -0.1344,-0.64943 -0.1883,-0.18829 -0.5096,-0.19059 -0.6886,0 -0.1143,0.12166 -0.1368,0.20432 -0.1568,0.66063 l -0.022,0.52626 -0.5822,-0.0168 -0.5823,-0.0168 -0.017,-0.54306 c -0.019,-0.63434 -0.094,-0.74139 -0.4927,-0.74462 -0.3462,-0.003 -0.4491,0.17314 -0.4478,0.7558 6e-4,0.24625 -0.014,0.47741 -0.034,0.50948 -0.033,0.0539 -0.9606,0.0681 -1.0974,0.0168 -0.032,-0.012 -0.053,-0.20939 -0.045,-0.47028 0.013,-0.40616 0,-0.46573 -0.1231,-0.63265 -0.1258,-0.1649 -0.1697,-0.17915 -0.4143,-0.17915 -0.2486,0 -0.2815,0.0108 -0.3807,0.17354 -0.086,0.14154 -0.1062,0.27804 -0.1064,0.65505 l 0,0.47589 -0.4255,0.17916 c -0.2341,0.0967 -0.5571,0.2301 -0.7166,0.3023 -0.1595,0.0722 -0.3178,0.13437 -0.3471,0.13437 -0.034,1e-5 -0.05,-1.33682 -0.05,-3.67826 l 0,-3.67826 z m 14.2596,0.0392 c 1.7599,-6.3e-4 3.44579,0.011 3.50469,0.0336 0.07,0.0269 0.084,0.49886 0.084,3.5383 0,1.93027 -0.015,3.58947 -0.034,3.68386 l -0.034,0.17356 -3.44309,-0.0168 c -1.8915,-0.007 -3.8693,-0.0189 -4.3949,-0.028 l -0.9518,-0.0168 0.034,-1.19251 c 0.019,-0.65619 0.033,-2.29201 0.034,-3.63906 l 0,-2.45219 0.1232,-0.056 c 0.076,-0.034 0.207,-0.0311 0.3527,0 0.1277,0.0272 0.4892,0.0324 0.8006,0.0112 0.3343,-0.0228 2.1648,-0.0384 3.9246,-0.0392 z m 4.22139,0.0392 2.7713,0.0168 2.7713,0.0112 0.01,2.48577 c 9e-4,1.36702 -0.012,3.01619 -0.028,3.66706 l -0.028,1.1869 -0.4927,-0.31911 -0.4983,-0.31911 -0.6438,0 -0.6495,0 0,-0.54307 c 0,-0.50613 0,-0.54394 -0.1343,-0.66622 -0.1918,-0.18007 -0.4803,-0.17481 -0.6663,0.0112 -0.1294,0.1294 -0.143,0.18095 -0.1511,0.65504 l -0.01,0.51507 -0.6495,0.0168 -0.6438,0.0113 -0.4199,0.27433 c -0.2299,0.15005 -0.4364,0.27432 -0.4591,0.27432 -0.067,0 -0.078,-0.7784 -0.078,-4.12056 l 0,-3.1576 z m -32.75729,0.57666 c -0.2324,0 -0.3304,0.17574 -0.3304,0.58226 0,0.18458 0.018,0.35363 0.039,0.37511 0.021,0.0211 0.1614,0.0313 0.3136,0.0224 l 0.2743,-0.0168 0.017,-0.34711 c 0.02,-0.42713 -0.072,-0.61587 -0.3135,-0.61587 z m 1.534,0 c -0.2249,0 -0.3303,0.19822 -0.3303,0.63263 l 0,0.36392 0.3191,-0.0168 0.3135,-0.0168 0.017,-0.3807 c 0.019,-0.43023 -0.064,-0.58225 -0.3191,-0.58225 z m 1.534,0 c -0.2112,0 -0.3247,0.22517 -0.3247,0.65503 l 0,0.33591 0.3303,0 0.3303,0 0,-0.39749 c 0,-0.44823 -0.082,-0.59345 -0.3359,-0.59345 z m 3.4543,0 c -0.2361,0 -0.3191,0.15204 -0.3191,0.58784 l 0,0.4031 0.3023,0 0.3023,0 0,-0.37509 c 0,-0.41315 -0.093,-0.61585 -0.2855,-0.61585 z m 1.8475,0 c -0.2053,0 -0.3111,0.18443 -0.3303,0.55986 -0.01,0.18774 0,0.36168 0.011,0.38629 0.015,0.0247 0.1604,0.0448 0.3247,0.0448 l 0.2968,0 0,-0.39749 c 0,-0.43084 -0.083,-0.59345 -0.3024,-0.59345 z m 1.8476,0 c -0.1784,-0.009 -0.28,0.20472 -0.28,0.61585 l 0,0.3751 0.3024,0 0.3023,0 0,-0.40869 c 0,-0.36016 -0.016,-0.42297 -0.1232,-0.49827 -0.076,-0.0533 -0.1421,-0.0809 -0.2015,-0.084 z m 1.8811,0.006 c -0.052,0.004 -0.1014,0.0392 -0.1736,0.10638 -0.1014,0.0945 -0.1231,0.17015 -0.1231,0.49267 l 0,0.3863 0.3023,0 0.3023,0 0,-0.40869 c 0,-0.36015 -0.01,-0.42296 -0.1176,-0.49826 -0.08,-0.0561 -0.1379,-0.0822 -0.1903,-0.0784 z m 3.6727,0.0224 c -0.017,0.006 -0.036,0.0186 -0.056,0.0336 -0.1939,0.1463 -0.2296,0.24179 -0.2296,0.58225 l 0,0.34709 0.3303,0 0.3247,0 0,-0.3807 c 0,-0.36126 0,-0.38561 -0.1623,-0.49826 -0.1054,-0.075 -0.1556,-0.10246 -0.2072,-0.084 z m 3.6726,0.028 c -0.065,0.003 -0.1353,0.0298 -0.2127,0.084 -0.1062,0.0744 -0.1232,0.13852 -0.1232,0.47028 l 0,0.3807 0.3303,0 0.3303,0 0,-0.34709 c 0,-0.37949 -0.1301,-0.59589 -0.3247,-0.58786 z m -1.8195,0.006 c -0.075,-3.2e-4 -0.1482,0.0362 -0.2184,0.10636 -0.087,0.0873 -0.1119,0.18093 -0.1119,0.46467 l 0,0.35832 0.3247,0 0.3191,0 0.011,-0.35832 c 0.01,-0.29202 -0.01,-0.37287 -0.1008,-0.46467 -0.071,-0.0708 -0.1489,-0.10606 -0.2239,-0.10636 z m 3.5831,0.0112 c -0.1976,-0.002 -0.259,0.20053 -0.2408,0.73901 l 0.011,0.24075 0.2856,-0.0168 0.2911,-0.0168 0.011,-0.35831 c 0.015,-0.39124 -0.044,-0.52175 -0.2632,-0.57664 -0.034,-0.009 -0.067,-0.0109 -0.095,-0.0112 z m 3.723,0 c -0.025,9.5e-4 -0.051,0.008 -0.078,0.0168 -0.1922,0.061 -0.2501,0.19327 -0.2519,0.58225 l 0,0.37512 0.3247,0 0.3303,0 -0.028,-0.4031 c -0.025,-0.38908 -0.1238,-0.57742 -0.2967,-0.57108 z m 1.8644,0.0224 c -0.035,0.004 -0.076,0.0138 -0.1176,0.028 -0.1694,0.0588 -0.2061,0.17519 -0.2071,0.60464 l 0,0.30792 0.2575,0.0224 c 0.373,0.0287 0.3673,0.0336 0.3863,-0.26313 0.032,-0.49255 -0.072,-0.72599 -0.3191,-0.69983 z m 1.8139,0.0168 c -0.063,0.006 -0.121,0.029 -0.1512,0.0672 -0.1143,0.14471 -0.1745,0.65309 -0.1007,0.8454 0.02,0.0522 0.1221,0.0728 0.3303,0.0728 l 0.3079,0 0,-0.3919 c 0,-0.28939 -0.028,-0.41888 -0.095,-0.49268 -0.065,-0.0719 -0.1862,-0.11007 -0.2911,-0.10077 z m 1.9651,0 c -0.088,0 -0.2002,0.0379 -0.2463,0.084 -0.089,0.0892 -0.164,0.67276 -0.1064,0.82298 0.027,0.0696 0.099,0.0803 0.3247,0.0672 l 0.2855,-0.0168 0.017,-0.35272 c 0.021,-0.43878 -0.053,-0.60465 -0.2743,-0.60465 z m 3.42069,0 c -0.2533,0 -0.3366,0.14746 -0.3247,0.59345 l 0.011,0.3919 0.2856,0 c 0.3285,0 0.3499,-0.0335 0.3303,-0.52627 -0.013,-0.33025 -0.095,-0.45908 -0.3024,-0.45908 z m 1.5564,0 c -0.2383,0 -0.319,0.13743 -0.3415,0.58225 l -0.022,0.4031 0.3359,0 c 0.3271,0 0.3378,-0.004 0.3472,-0.15117 0.034,-0.53531 -0.082,-0.83418 -0.3192,-0.83418 z m 1.5509,0 c -0.2559,0 -0.3356,0.11987 -0.3584,0.57105 l -0.017,0.41989 0.3472,-0.0168 0.3471,-0.0168 0.017,-0.33592 c 0.015,-0.38161 -0.1157,-0.62145 -0.336,-0.62145 z m -37.11299,2.21144 c -0.06,6.3e-4 -0.1211,0.0357 -0.1904,0.10076 -0.1196,0.11238 -0.1288,0.16427 -0.1288,0.57667 l 0,0.45907 0.2968,0 c 0.3396,0 0.3406,10e-4 0.3583,-0.48148 0.014,-0.3791 -0.072,-0.57963 -0.2744,-0.64384 -0.02,-0.006 -0.042,-0.0115 -0.062,-0.0112 z m 1.5508,0.0224 c -0.06,0.005 -0.1356,0.0309 -0.196,0.0784 -0.1278,0.10055 -0.1399,0.14223 -0.1399,0.57107 l 0,0.46467 0.3303,0 0.3303,0 0,-0.42549 c 0,-0.45565 -0.073,-0.63589 -0.2743,-0.68862 -0.016,-0.004 -0.03,-0.002 -0.05,0 z m 1.5116,0 c -0.023,0.004 -0.048,0.0108 -0.078,0.0224 -0.2084,0.0792 -0.2287,0.13368 -0.2296,0.63821 l 0,0.45349 0.3304,0 0.3303,0 0,-0.44227 c 0,-0.40475 -0.016,-0.45061 -0.1456,-0.57108 -0.089,-0.0828 -0.1371,-0.1117 -0.2071,-0.10075 z m 3.3983,0.0224 c -0.054,0.006 -0.1114,0.0313 -0.1679,0.0728 -0.084,0.0613 -0.1064,0.16069 -0.1232,0.49267 -0.012,0.22936 -0.01,0.45282 0.011,0.49827 0.039,0.10056 0.5556,0.11981 0.6158,0.0224 0.022,-0.0347 0.041,-0.23901 0.045,-0.45347 0.01,-0.33485 -0.013,-0.40896 -0.1175,-0.51508 -0.088,-0.0886 -0.173,-0.12761 -0.2632,-0.11756 z m 1.9091,0.0168 c -0.1031,-0.001 -0.2057,0.0442 -0.2743,0.13437 -0.07,0.0925 -0.098,0.89248 -0.034,0.95734 0.02,0.0202 0.1692,0.0392 0.3303,0.0392 l 0.2911,0 0,-0.49268 c 0,-0.46263 -0.01,-0.49947 -0.1343,-0.58224 -0.056,-0.0369 -0.1173,-0.0552 -0.1792,-0.056 z m 1.8476,0.0168 c -0.095,-0.002 -0.1852,0.0203 -0.2184,0.0728 -0.027,0.0428 -0.05,0.29558 -0.05,0.55986 l 0,0.48148 0.3024,0 0.3023,0 0,-0.47028 c 0,-0.35768 -0.023,-0.49328 -0.09,-0.55986 -0.054,-0.0543 -0.1518,-0.082 -0.2464,-0.084 z m 5.5761,0.0168 c -0.098,6.3e-4 -0.1932,0.0234 -0.2295,0.0672 -0.053,0.0635 -0.084,0.41861 -0.073,0.85098 l 0.01,0.17916 0.3023,0 0.3023,0 0,-0.48148 c 0,-0.30267 -0.026,-0.50739 -0.067,-0.54866 -0.043,-0.0433 -0.1426,-0.0678 -0.2407,-0.0672 z m 1.814,0 c -0.2516,0 -0.3023,0.10912 -0.3023,0.65502 l 0,0.4423 0.3023,0 0.3023,0 0,-0.4423 c 0,-0.5459 -0.051,-0.65502 -0.3023,-0.65502 z m 1.8251,0 c -0.2492,0 -0.3115,0.12646 -0.3135,0.64384 l 0,0.45348 0.3023,0 0.3024,0 0.011,-0.31352 c 0.021,-0.66565 -0.027,-0.7838 -0.3024,-0.7838 z m 1.8028,0 c -0.2153,0 -0.3024,0.19226 -0.3024,0.67182 l 0,0.4255 0.3024,0 0.3023,0 0,-0.46469 c 0,-0.5052 -0.062,-0.63263 -0.3023,-0.63263 z m 3.6783,0 c -0.2243,0 -0.3118,0.17455 -0.3304,0.65502 l -0.017,0.4423 0.3248,0 0.3247,0 0,-0.44789 c 0,-0.48864 -0.075,-0.64943 -0.3024,-0.64943 z m 1.8643,0 c -0.2006,0.021 -0.3526,0.31233 -0.3527,0.75021 l 0,0.34152 0.3135,0.0168 0.3191,0.0168 0.011,-0.48707 c 0.014,-0.41444 0,-0.50083 -0.078,-0.56547 -0.074,-0.0572 -0.1459,-0.0798 -0.2127,-0.0728 z m -14.5955,0.006 c -0.029,-6.4e-4 -0.064,0.002 -0.1008,0.006 -0.242,0.0234 -0.3181,0.18764 -0.3191,0.68862 l 0,0.3975 0.3303,0 0.3247,0 0,-0.48708 c 0,-0.48107 -0.03,-0.60094 -0.2351,-0.60465 z m 16.4822,0 c -0.064,0.004 -0.1309,0.0406 -0.2015,0.10638 -0.1054,0.0982 -0.1176,0.16936 -0.1176,0.57666 l 0,0.46467 0.3023,0 c 0.2761,0 0.304,-0.0127 0.3359,-0.13997 0.019,-0.0763 0.024,-0.29738 0.011,-0.49268 -0.017,-0.27041 -0.047,-0.37489 -0.1287,-0.43666 -0.074,-0.0559 -0.138,-0.0828 -0.2016,-0.0784 z m 1.8643,0 c -0.069,0.005 -0.1332,0.0532 -0.2015,0.13997 -0.093,0.11853 -0.112,0.22285 -0.112,0.57664 l 0,0.4311 0.3247,0 0.3303,0 0,-0.46467 c 0,-0.4073 -0.012,-0.4785 -0.1175,-0.57666 -0.081,-0.0753 -0.155,-0.11169 -0.224,-0.10638 z m 6.54479,0.028 c -0.067,0.003 -0.139,0.0398 -0.2296,0.11758 -0.077,0.0661 -0.095,0.17215 -0.095,0.53186 0,0.24702 0.01,0.46334 0.022,0.47589 0.013,0.0127 0.1525,0.0186 0.3135,0.0168 l 0.2968,0 0.011,-0.4535 c 0.015,-0.41788 0.01,-0.46139 -0.1176,-0.58784 -0.072,-0.0716 -0.1344,-0.10335 -0.2016,-0.10077 z m -3.0681,0.0224 c -0.2945,0 -0.3563,0.10459 -0.3583,0.61026 l 0,0.45906 0.3024,0.028 0.3023,0.028 0.011,-0.48708 c 0.018,-0.5363 -0.023,-0.63824 -0.2576,-0.63824 z m 1.5229,0 c -0.2509,0.002 -0.2883,0.0756 -0.308,0.61584 l -0.022,0.50949 0.2688,-0.006 c 0.1461,-9.5e-4 0.2982,-0.0215 0.3359,-0.0448 0.045,-0.0277 0.067,-0.18043 0.067,-0.44789 0,-0.44893 -0.097,-0.62883 -0.3415,-0.62704 z m -35.53979,2.19465 c -0.2306,0 -0.308,0.15482 -0.308,0.58786 l 0,0.40309 0.3024,0 0.3023,0 0,-0.39751 c 0,-0.4254 -0.088,-0.59344 -0.2967,-0.59344 z m 3.1072,0.0168 c -0.061,-0.002 -0.1282,0.0191 -0.2016,0.0672 -0.1289,0.0845 -0.1399,0.12435 -0.1399,0.49828 l 0,0.40871 0.3303,0 0.3359,0 -0.011,-0.34713 c -0.011,-0.39527 -0.1307,-0.62025 -0.3135,-0.62704 z m 3.3591,0.0392 c -0.2189,0 -0.2967,0.19332 -0.2967,0.75021 0,0.43763 0.012,0.50437 0.095,0.52067 0.08,0.0156 0.4111,0.012 0.5095,-0.006 0.015,-0.003 0.02,-0.25582 0.011,-0.56546 -0.018,-0.60284 -0.061,-0.69982 -0.3192,-0.69982 z m 1.9259,0 c -0.275,0 -0.3527,0.1672 -0.3527,0.73342 0,0.28188 0.018,0.52718 0.039,0.54865 0.022,0.0211 0.1614,0.0313 0.3135,0.0223 l 0.2744,-0.0168 0.017,-0.51507 c 0.018,-0.58292 -0.054,-0.7726 -0.2912,-0.7726 z m 1.8476,0 c -0.063,-0.003 -0.1258,0.0213 -0.1848,0.0672 -0.068,0.0528 -0.089,0.19904 -0.1064,0.63263 -0.012,0.30985 -0.015,0.57299 0,0.58786 0.015,0.0148 0.1637,0.028 0.3248,0.028 l 0.2911,0 0,-0.57108 c 0,-0.5304 -0.01,-0.58157 -0.1232,-0.66062 -0.074,-0.0517 -0.1386,-0.0812 -0.2015,-0.084 z m 1.8755,0.0224 c -0.1031,-0.001 -0.2057,0.0442 -0.2743,0.13436 -0.042,0.0551 -0.066,0.29247 -0.067,0.62704 l 0,0.53188 0.3303,0 0.3247,0 0,-0.57667 c 0,-0.55006 -0.01,-0.57632 -0.1344,-0.66063 -0.056,-0.0369 -0.1173,-0.0552 -0.1791,-0.056 z m 12.7984,0.0336 c -0.083,0.002 -0.1667,0.0378 -0.2352,0.10637 -0.094,0.0942 -0.112,0.18211 -0.112,0.62145 0,0.28192 0.019,0.52852 0.039,0.54866 0.02,0.0202 0.1693,0.0392 0.3304,0.0392 l 0.2911,0 0,-0.55986 c 0,-0.44269 -0.018,-0.58101 -0.09,-0.66061 -0.06,-0.0659 -0.1414,-0.0969 -0.224,-0.0952 z m 3.7286,0 c -0.066,0.006 -0.1271,0.0374 -0.1847,0.0896 -0.085,0.0769 -0.1008,0.18 -0.1008,0.66064 l 0,0.56544 0.3023,0 0.3023,0 0,-0.60464 c 0,-0.53911 -0.011,-0.60414 -0.1063,-0.65503 -0.076,-0.0407 -0.1469,-0.0616 -0.2128,-0.056 z m 1.9539,0.006 c -0.029,-10e-4 -0.06,0.001 -0.095,0.006 -0.205,0.0242 -0.2734,0.22142 -0.2743,0.795 l 0,0.50946 0.3247,0 c 0.1794,0 0.3337,-0.0165 0.3471,-0.0392 0.014,-0.0226 0.01,-0.28502 -0.011,-0.58225 -0.034,-0.51649 -0.09,-0.67839 -0.2911,-0.68862 z m 3.38149,0 c -0.065,0.004 -0.1309,0.047 -0.2127,0.12876 -0.1125,0.11255 -0.1344,0.18394 -0.1344,0.45349 0,0.17754 0.014,0.34376 0.034,0.3639 0.02,0.0202 0.1693,0.0336 0.3304,0.0336 l 0.2911,0 0,-0.38631 c 0,-0.31121 -0.018,-0.40374 -0.1064,-0.49267 -0.072,-0.0725 -0.1365,-0.10468 -0.2015,-0.10076 z m -7.22209,0.006 c -0.1104,0.009 -0.2085,0.0716 -0.2576,0.17916 -0.068,0.149 -0.091,1.02362 -0.028,1.08612 0.02,0.0202 0.1693,0.0392 0.3304,0.0392 l 0.2911,0 0,-0.59343 c 0,-0.57321 -7e-4,-0.5976 -0.1288,-0.66624 -0.067,-0.036 -0.1409,-0.0504 -0.2071,-0.0448 z m 10.30139,0 c -0.051,0.006 -0.1063,0.0304 -0.1624,0.0672 -0.1231,0.0807 -0.1344,0.12016 -0.1344,0.49827 l 0,0.41431 0.3136,-0.0168 0.3191,-0.0168 0.017,-0.31911 c 0.021,-0.40204 -0.1336,-0.65314 -0.3527,-0.62704 z m -37.30899,1.85314 1.7804,0 1.7859,0 0.4983,0.3415 0.4927,0.34151 -0.017,0.49828 -0.011,0.49268 -2.7601,0.0168 -2.7601,0.0113 0,-0.54307 c 0,-0.49721 0.01,-0.5506 0.1063,-0.58226 0.06,-0.0191 0.1413,-0.0631 0.1792,-0.10077 0.038,-0.0377 0.212,-0.16301 0.3863,-0.27432 l 0.3191,-0.20155 z m 21.5546,0.084 0.4086,0.19594 c 0.2266,0.10821 0.5413,0.2542 0.6999,0.32474 l 0.2911,0.12875 0,0.50947 c 0,0.46697 -0.012,0.50966 -0.1176,0.54307 -0.063,0.0199 -1.1046,0.0272 -2.3178,0.0168 -1.2131,-0.0104 -3.0524,-0.0257 -4.0869,-0.0336 l -1.8812,-0.0113 0,-0.52625 0,-0.52067 0.2072,-0.0896 c 0.1132,-0.0467 0.3635,-0.15556 0.5598,-0.24633 0.1964,-0.0908 0.4099,-0.18384 0.4703,-0.20716 0.06,-0.0233 1.3781,-0.0507 2.9337,-0.0616 l 2.8329,-0.0224 z m 12.42879,0.028 1.7692,0 c 1.5788,0 1.7822,0.009 1.9371,0.0952 0.095,0.0529 0.1864,0.11012 0.2015,0.12877 0.015,0.0186 0.1679,0.12446 0.3415,0.23512 l 0.3136,0.20155 0,0.52068 0,0.52068 -2.7601,0 c -1.5203,0 -2.7848,-0.0191 -2.8049,-0.0392 -0.02,-0.0202 -0.034,-0.25455 -0.034,-0.52066 0,-0.44239 0.01,-0.48959 0.1231,-0.55986 0.068,-0.0423 0.3033,-0.19067 0.5207,-0.33033 l 0.3919,-0.25192 z m -28.82149,0.54305 3.4431,0.0168 c 1.8954,0.008 3.8721,0.0187 4.3893,0.028 l 0.935,0.0168 0.011,0.46467 c 0.01,0.29122 -0.011,0.47404 -0.05,0.49828 -0.064,0.0393 -5.5536,0.0676 -7.5917,0.0392 l -1.1365,-0.0168 0,-0.52628 0,-0.52066 z m 18.4193,0.084 1.926,0.006 c 1.0571,0.003 3.0264,0.0121 4.3781,0.0168 l 2.45769,0.006 0,0.52627 0,0.52068 -4.36689,0 c -3.5894,0 -4.3718,-0.0127 -4.3949,-0.0728 -0.015,-0.0403 -0.02,-0.28324 -0.011,-0.53746 l 0.011,-0.46468 z m -20.7987,2.84966 c 0.1813,-0.003 0.348,-0.004 0.4815,0.006 1.0667,0.0738 1.4572,0.14311 2.3626,0.41431 0.4057,0.1215 0.448,0.1401 1.3213,0.55425 0.6572,0.31173 1.3508,0.54952 2.1218,0.72223 0.4954,0.11095 0.714,0.12315 1.7748,0.12315 1.0617,2e-5 1.2792,-0.0168 1.7859,-0.12876 0.7056,-0.15599 1.3641,-0.3756 1.9931,-0.66622 1.0785,-0.4983 1.4774,-0.62597 2.6705,-0.8622 0.577,-0.11421 2.1026,-0.13159 2.665,-0.028 0.9979,0.18381 1.6563,0.36764 2.1442,0.59345 0.1812,0.0839 0.3376,0.15425 0.3527,0.15676 0.015,0.002 0.2035,0.0883 0.4143,0.19035 0.7247,0.35093 1.5737,0.60973 2.469,0.75021 0.6137,0.0963 1.9861,0.10831 2.5586,0.0224 0.4085,-0.0613 1.2868,-0.25782 1.45,-0.32472 0.06,-0.0247 0.1966,-0.0752 0.3023,-0.11197 0.1057,-0.0368 0.2743,-0.10381 0.3695,-0.14557 0.095,-0.0418 0.184,-0.0784 0.2016,-0.0784 0.018,0 0.2373,-0.0954 0.487,-0.21275 0.6293,-0.29577 1.10359,-0.47383 1.52289,-0.57106 1.0762,-0.24956 1.9691,-0.3428 2.7097,-0.28553 0.3092,0.0239 0.6682,0.0525 0.8006,0.0616 0.1323,0.009 0.2795,0.0274 0.3247,0.0448 0.045,0.0173 0.2625,0.0712 0.4871,0.11756 0.4654,0.0961 0.9529,0.25712 1.5676,0.51507 l 0.4255,0.17916 0,1.39405 c 0,1.35147 0,1.39406 -0.1064,1.39406 -0.059,-3e-5 -0.1865,-0.0458 -0.2855,-0.1008 -0.2999,-0.16627 -1.522,-0.54361 -2.0771,-0.64382 -0.6588,-0.11897 -2.1885,-0.13289 -2.8833,-0.028 -0.504,0.0761 -1.028,0.19184 -1.1253,0.25195 -0.03,0.0184 -0.098,0.0454 -0.1512,0.056 -0.1543,0.0308 -0.73179,0.247 -1.03009,0.38629 -1.2698,0.59309 -2.0185,0.82827 -3.012,0.95737 -0.3794,0.0493 -2.0582,0.0666 -2.3402,0.0224 -0.3978,-0.0623 -1.4683,-0.3067 -1.5509,-0.35272 -0.053,-0.0293 -0.1411,-0.0504 -0.1959,-0.0504 -0.055,0 -0.1225,-0.025 -0.1512,-0.0504 -0.029,-0.0254 -0.1406,-0.0783 -0.2463,-0.11758 -0.1057,-0.0393 -0.4112,-0.17537 -0.683,-0.30233 -0.2719,-0.12694 -0.6805,-0.29803 -0.907,-0.3807 -0.2265,-0.0827 -0.4659,-0.17096 -0.5263,-0.19596 -0.1044,-0.0431 -0.2929,-0.0902 -0.851,-0.21272 -0.5097,-0.11194 -1.5697,-0.18641 -2.1498,-0.15117 -0.779,0.0473 -1.8175,0.22184 -2.1611,0.36389 -0.06,0.025 -0.2941,0.11518 -0.5206,0.19596 -0.2266,0.0808 -0.5449,0.21348 -0.7111,0.29672 -0.2561,0.12836 -0.748,0.33696 -1.1813,0.49829 -1.2625,0.47006 -3.4434,0.57638 -4.8315,0.24072 -0.7983,-0.19302 -1.1199,-0.30368 -1.8699,-0.65503 -0.6916,-0.32394 -1.0304,-0.46893 -1.1254,-0.48707 -0.015,-0.003 -0.1,-0.0329 -0.1903,-0.0672 -0.6506,-0.24632 -1.9217,-0.45729 -2.7657,-0.45907 -0.5823,-6.3e-4 -1.3923,0.0977 -2.0715,0.25193 -0.2094,0.0476 -0.4498,0.0962 -0.5319,0.11197 -0.082,0.0157 -0.1778,0.0644 -0.2127,0.10639 -0.035,0.042 -0.1041,0.0784 -0.1568,0.0784 -0.1057,0 -0.6564,0.21324 -0.739,0.28554 -0.029,0.0251 -0.097,0.0448 -0.1511,0.0448 -0.093,0 -0.1008,-0.0911 -0.1008,-1.40525 l 0,-1.39963 0.3695,-0.16797 c 0.4291,-0.19427 1.0122,-0.39187 1.4444,-0.48707 0.1662,-0.0366 0.387,-0.0857 0.4927,-0.11197 0.3038,-0.0754 0.9789,-0.13614 1.5228,-0.14556 z m 0.2464,5.21229 c 0.556,0.01 1.1125,0.0443 1.3604,0.0896 0.9118,0.16665 1.5365,0.37031 2.4746,0.81737 0.915,0.4361 1.9845,0.76393 2.8832,0.87898 0.6658,0.0853 2.1146,0.0444 2.609,-0.0728 0.076,-0.0179 0.245,-0.0558 0.3807,-0.084 0.4961,-0.10289 1.1996,-0.34208 1.8699,-0.63824 0.9595,-0.42397 0.9731,-0.42976 1.3717,-0.55427 1.518,-0.47418 2.7626,-0.54504 4.4452,-0.25192 0.4758,0.0829 1.3772,0.37964 1.9148,0.63263 0.3229,0.15201 0.7498,0.33839 0.9461,0.41431 0.1963,0.0759 0.4043,0.15941 0.4647,0.18474 0.1648,0.0691 0.4911,0.16502 0.6662,0.19596 0.085,0.015 0.2952,0.0629 0.4647,0.10636 0.4211,0.10805 0.9848,0.15422 1.8644,0.15116 1.4316,-0.005 2.3716,-0.2285 3.9022,-0.91817 0.4423,-0.19931 0.8435,-0.3639 0.8901,-0.3639 0.047,0 0.1017,-0.0191 0.1176,-0.0448 0.032,-0.0512 1.04149,-0.29037 1.65159,-0.3919 0.4327,-0.072 2.1683,-0.0423 2.6593,0.0448 0.8582,0.15214 1.5832,0.36465 2.2282,0.66622 l 0.3528,0.16798 0,1.39963 c 0,1.166 -0.01,1.39966 -0.073,1.39966 -0.043,-3e-5 -0.238,-0.0701 -0.4311,-0.15676 -0.1932,-0.0867 -0.5824,-0.23307 -0.8678,-0.32475 -0.4945,-0.15874 -0.7091,-0.21059 -1.4501,-0.34149 -0.4028,-0.0711 -2.015,-0.0747 -2.3737,-0.006 -0.1458,0.028 -0.4252,0.0835 -0.6215,0.11757 -0.1963,0.0341 -0.43,0.0838 -0.5207,0.11196 -0.52849,0.1643 -0.68899,0.21745 -0.94609,0.31911 -0.1567,0.062 -0.4969,0.20959 -0.7558,0.33033 -0.4329,0.20187 -1.1087,0.44627 -1.6516,0.59905 -0.1208,0.034 -0.465,0.10386 -0.767,0.15116 -0.5355,0.0839 -1.2548,0.11886 -1.9203,0.0952 -0.4471,-0.0159 -1.6374,-0.18887 -1.702,-0.24634 -0.029,-0.0255 -0.1188,-0.0448 -0.2016,-0.0448 -0.083,0 -0.166,-0.0258 -0.1847,-0.056 -0.019,-0.0302 -0.089,-0.056 -0.1568,-0.056 -0.068,0 -0.1504,-0.0199 -0.1791,-0.0448 -0.029,-0.025 -0.1608,-0.0757 -0.2968,-0.11758 -0.1359,-0.0419 -0.5252,-0.20836 -0.8677,-0.36951 -0.6486,-0.30513 -1.7227,-0.66957 -2.2899,-0.77821 -0.7968,-0.15266 -2.4432,-0.13202 -3.4039,0.0448 -0.5001,0.0921 -1.3805,0.37294 -1.7075,0.54307 -0.058,0.0303 -0.1653,0.0804 -0.2408,0.11197 -0.075,0.0316 -0.3019,0.12904 -0.4983,0.21834 -0.1963,0.0893 -0.4558,0.19172 -0.5766,0.22955 -0.1208,0.0378 -0.2699,0.0885 -0.3303,0.11197 -0.06,0.0235 -0.1709,0.0587 -0.2464,0.0784 -0.075,0.0196 -0.2246,0.0616 -0.3303,0.0896 -1.0078,0.2669 -3.12,0.28806 -4.0757,0.0448 -0.8915,-0.22693 -1.2174,-0.341 -2.0155,-0.71103 -1.5096,-0.69986 -2.5113,-0.92934 -4.0422,-0.92934 -1.1826,0 -2.6539,0.29536 -3.4431,0.69422 -0.083,0.0419 -0.2098,0.1 -0.2856,0.12876 l -0.1399,0.0504 0,-1.41645 0,-1.41645 0.2911,-0.13995 c 0.5947,-0.28961 1.6003,-0.58279 2.4298,-0.70542 0.2464,-0.0364 0.7988,-0.0492 1.3548,-0.0392 z m -0.4367,5.15628 c 0.4319,-0.0147 0.8385,0.0125 1.3828,0.0784 0.9465,0.11459 1.7959,0.37658 2.8609,0.87898 0.5757,0.27158 1.033,0.45464 1.3548,0.54306 0.1586,0.0436 0.4274,0.11691 0.5935,0.16235 0.1661,0.0455 0.6689,0.12078 1.1197,0.16797 1.1225,0.11744 2.1138,0.028 3.3592,-0.29673 0.2661,-0.0694 0.9481,-0.3343 1.45,-0.56547 0.1963,-0.0904 0.4816,-0.21047 0.6326,-0.26873 0.151,-0.0583 0.3259,-0.12553 0.3863,-0.15115 0.06,-0.0256 0.3199,-0.10239 0.5767,-0.16796 0.2567,-0.0656 0.542,-0.14078 0.6326,-0.16795 0.091,-0.0272 0.5155,-0.0798 0.9462,-0.11758 0.6748,-0.0592 0.8924,-0.0598 1.59,0.0169 0.8638,0.0948 1.2137,0.15967 1.4556,0.25753 0.083,0.0337 0.1512,0.0505 0.1512,0.0392 0,-0.0253 0.8065,0.26182 1.0861,0.38632 0.1117,0.0498 0.3562,0.15672 0.5375,0.24072 1.5123,0.70114 2.456,0.90124 4.1037,0.8622 0.9933,-0.0236 1.6396,-0.10174 2.1275,-0.25755 0.1057,-0.0337 0.229,-0.0727 0.2743,-0.084 0.2912,-0.0728 0.8006,-0.28272 1.646,-0.67743 0.2827,-0.13199 1.21919,-0.44687 1.42759,-0.48146 0.077,-0.0127 0.1989,-0.0469 0.2744,-0.0728 0.4096,-0.14067 0.9713,-0.19411 1.9763,-0.19034 0.8107,0.003 1.1402,0.0238 1.3548,0.0896 0.156,0.0478 0.2981,0.077 0.3136,0.0616 0.015,-0.0154 0.1123,-0.004 0.2127,0.028 0.1004,0.0319 0.472,0.15217 0.8286,0.26314 0.3566,0.11095 0.7913,0.26856 0.9629,0.3527 l 0.308,0.15115 -0.017,1.39406 c -0.01,0.76497 -0.027,1.39848 -0.039,1.41084 -0.012,0.0124 -0.2394,-0.0709 -0.5039,-0.18476 -0.2645,-0.11382 -0.5275,-0.22603 -0.5879,-0.25193 -0.1988,-0.0853 -1.148,-0.30694 -1.6235,-0.3807 -0.5902,-0.0916 -1.8525,-0.0963 -2.497,-0.006 -0.893,0.12564 -1.72789,0.37852 -2.63689,0.80059 -0.7447,0.34578 -1.4044,0.57707 -2.1443,0.75021 -0.4647,0.10876 -2.0402,0.21016 -2.6033,0.16795 -0.5494,-0.0412 -1.7375,-0.28537 -2.0603,-0.42549 -0.091,-0.0393 -0.3171,-0.12778 -0.4983,-0.19594 -0.1812,-0.0682 -0.5843,-0.24111 -0.8958,-0.38631 -1.2764,-0.59499 -2.3034,-0.82322 -3.7174,-0.82859 -0.8583,-0.003 -1.9536,0.11351 -2.1779,0.23514 -0.053,0.0285 -0.1289,0.0504 -0.1679,0.0504 -0.145,0 -0.9592,0.29088 -1.4109,0.50389 -0.2567,0.12105 -0.5162,0.24738 -0.5766,0.27432 -0.2192,0.0978 -1.0498,0.38527 -1.2373,0.43108 -1.1161,0.27199 -2.0094,0.35467 -3.0456,0.27434 -1.1499,-0.0891 -2.1863,-0.38477 -3.4432,-0.97974 -1.4318,-0.67785 -2.8996,-0.95416 -4.4396,-0.8342 -1.0624,0.0828 -2.0148,0.31959 -2.8777,0.71102 -0.2081,0.0944 -0.3866,0.16796 -0.3975,0.16796 -0.011,0 -0.022,-0.63894 -0.022,-1.42205 l 0,-1.42202 0.2911,-0.13997 c 0.6904,-0.32992 1.7241,-0.62054 2.5642,-0.72223 0.3105,-0.0376 0.5806,-0.0639 0.8397,-0.0728 z"
       id="path2996-7"
       inkscape:connector-curvature="0" />
  </g>
  <g
     inkscape:groupmode="layer"
     id="layer4"
     inkscape:label="logo_deustotech"
     style="display:none"
     sodipodi:insensitive="true">
    <g
       style="fill-rule:evenodd"
       id="g5146"
       transform="matrix(90.000003,0,0,90.000003,-800.83836,-600.49897)">
      <g
         id="Layer_x0020_1">
        <metadata
           id="CorelCorpID_0Corel-Layer" />
        <g
           id="_133358376">
          <path
             d="m 19.861401,7.411187 0.05221,0 c 0.07925,0 0.139225,-0.064568 0.139225,-0.1435762 0,-0.08256 -0.05753,-0.1479297 -0.139225,-0.1479297 l -0.05221,0 0,0.2915059 z m -0.274102,0.039158 c 0,0.131433 0.12754,0.252349 0.26105,0.252349 l 0.0087,0 c 0.08586,0 0.151628,-0.047375 0.194799,-0.092354 0.04954,-0.051624 0.06625,-0.1199176 0.06625,-0.2209044 -0.03121,0.022861 -0.02748,0.039985 -0.07829,0.065292 -0.0286,0.01425 -0.07893,0.026074 -0.121856,0.026074 l -0.143576,0 0,-0.4307299 0.152281,0 c 0.03718,0 0.08823,0.013654 0.113151,0.026069 0.05081,0.025313 0.04707,0.04243 0.07829,0.065299 l 0,-0.1914393 -0.530798,0 0,0.5003443 z"
             class="fil0"
             id="_133232128"
             inkscape:connector-curvature="0"
             style="fill:#ffffff;fill-opacity:1" />
        </g>
      </g>
    </g>
  </g>
</svg>
